M48
; DRILL file {KiCad 7.0.8} date Fri Oct 27 17:24:22 2023
; FORMAT={-:-/ absolute / metric / decimal}
; #@! TF.CreationDate,2023-10-27T17:24:22-04:00
; #@! TF.GenerationSoftware,Kicad,Pcbnew,7.0.8
; #@! TF.FileFunction,Plated,1,2,PTH
FMAT,2
METRIC
; #@! TA.AperFunction,Plated,PTH,ViaDrill
T1C0.400
; #@! TA.AperFunction,Plated,PTH,ComponentDrill
T2C1.000
; #@! TA.AperFunction,Plated,PTH,ComponentDrill
T3C1.100
; #@! TA.AperFunction,Plated,PTH,ComponentDrill
T4C1.295
%
G90
G05
T1
X148.082Y-79.375
X148.082Y-81.534
X148.336Y-107.696
X148.336Y-109.22
X149.86Y-107.696
X149.86Y-109.22
X150.241Y-79.375
X150.241Y-81.534
X159.004Y-56.896
X159.004Y-58.42
X159.004Y-59.944
X160.528Y-56.896
X160.528Y-58.42
X160.528Y-59.944
X170.18Y-69.596
X170.18Y-71.12
X170.18Y-72.644
X170.18Y-74.168
X170.18Y-75.692
X170.18Y-77.216
X170.18Y-91.948
X170.18Y-93.472
X170.18Y-94.996
X170.18Y-96.52
X170.18Y-98.044
X170.18Y-99.568
X171.704Y-69.596
X171.704Y-71.12
X171.704Y-72.644
X171.704Y-74.168
X171.704Y-75.692
X171.704Y-77.216
X171.704Y-91.948
X171.704Y-93.472
X171.704Y-94.996
X171.704Y-96.52
X171.704Y-98.044
X171.704Y-99.568
X173.228Y-69.596
X173.228Y-71.12
X173.228Y-72.644
X173.228Y-74.168
X173.228Y-75.692
X173.228Y-77.216
X173.228Y-91.948
X173.228Y-93.472
X173.228Y-94.996
X173.228Y-96.52
X173.228Y-98.044
X173.228Y-99.568
X176.276Y-96.774
X177.8Y-100.076
X185.928Y-88.138
X185.928Y-91.44
X187.706Y-76.19
X194.056Y-69.596
X194.056Y-71.12
X194.056Y-72.644
X194.056Y-74.168
X194.056Y-75.692
X194.056Y-77.216
X195.58Y-69.596
X195.58Y-71.12
X195.58Y-72.644
X195.58Y-74.168
X195.58Y-75.692
X195.58Y-77.216
X197.104Y-69.596
X197.104Y-71.12
X197.104Y-72.644
X197.104Y-74.168
X197.104Y-75.692
X197.104Y-77.216
X202.946Y-66.04
X212.217Y-71.12
X212.217Y-76.2
X212.217Y-78.74
X212.217Y-83.82
X212.217Y-88.9
X212.217Y-91.44
X212.217Y-93.98
X212.217Y-101.6
T2
X181.918Y-68.38
X181.918Y-70.92
X181.918Y-73.46
X181.918Y-76.0
X181.918Y-78.54
X181.918Y-81.08
X181.918Y-83.62
X181.918Y-86.16
X182.018Y-91.848
X182.018Y-94.388
X182.018Y-96.928
X182.018Y-99.468
X182.018Y-102.008
X182.018Y-104.548
X182.018Y-107.088
X182.018Y-109.628
X220.821Y-76.2
X220.821Y-78.74
X220.821Y-81.28
X220.821Y-83.82
X220.821Y-86.36
X220.821Y-88.9
X220.821Y-91.44
X220.821Y-93.98
X220.821Y-96.52
X220.821Y-99.06
X220.821Y-101.6
X220.821Y-104.14
T3
X145.034Y-66.548
X145.034Y-71.628
X145.034Y-94.234
X145.034Y-99.314
X157.663Y-77.37
X157.663Y-79.91
X157.663Y-82.45
X157.663Y-100.738
X157.663Y-103.278
X157.663Y-105.818
X165.408Y-74.73
X165.408Y-79.81
X165.508Y-98.198
X165.508Y-103.278
X171.704Y-58.42
X176.784Y-58.42
T4
X145.034Y-58.928
X145.034Y-61.468
X145.034Y-86.614
X145.034Y-89.154
X181.864Y-58.42
X184.404Y-58.42
T0
M30
