G04 #@! TF.GenerationSoftware,KiCad,Pcbnew,7.0.8*
G04 #@! TF.CreationDate,2023-10-27T17:24:16-04:00*
G04 #@! TF.ProjectId,IPTC Power Distribution and Control,49505443-2050-46f7-9765-722044697374,rev?*
G04 #@! TF.SameCoordinates,Original*
G04 #@! TF.FileFunction,Soldermask,Top*
G04 #@! TF.FilePolarity,Negative*
%FSLAX46Y46*%
G04 Gerber Fmt 4.6, Leading zero omitted, Abs format (unit mm)*
G04 Created by KiCad (PCBNEW 7.0.8) date 2023-10-27 17:24:16*
%MOMM*%
%LPD*%
G01*
G04 APERTURE LIST*
G04 Aperture macros list*
%AMRoundRect*
0 Rectangle with rounded corners*
0 $1 Rounding radius*
0 $2 $3 $4 $5 $6 $7 $8 $9 X,Y pos of 4 corners*
0 Add a 4 corners polygon primitive as box body*
4,1,4,$2,$3,$4,$5,$6,$7,$8,$9,$2,$3,0*
0 Add four circle primitives for the rounded corners*
1,1,$1+$1,$2,$3*
1,1,$1+$1,$4,$5*
1,1,$1+$1,$6,$7*
1,1,$1+$1,$8,$9*
0 Add four rect primitives between the rounded corners*
20,1,$1+$1,$2,$3,$4,$5,0*
20,1,$1+$1,$4,$5,$6,$7,0*
20,1,$1+$1,$6,$7,$8,$9,0*
20,1,$1+$1,$8,$9,$2,$3,0*%
G04 Aperture macros list end*
%ADD10C,0.010000*%
%ADD11C,2.200000*%
%ADD12RoundRect,0.237500X0.237500X-0.250000X0.237500X0.250000X-0.237500X0.250000X-0.237500X-0.250000X0*%
%ADD13R,1.700000X1.700000*%
%ADD14O,1.700000X1.700000*%
%ADD15C,1.803400*%
%ADD16RoundRect,0.552000X-0.300000X-0.300000X0.300000X-0.300000X0.300000X0.300000X-0.300000X0.300000X0*%
%ADD17O,1.254000X1.654000*%
%ADD18O,1.304000X2.004000*%
%ADD19C,2.540000*%
%ADD20C,1.778000*%
%ADD21O,4.400000X2.200000*%
%ADD22R,4.000000X2.500000*%
%ADD23O,4.470400X2.286000*%
%ADD24R,2.000000X1.905000*%
%ADD25O,2.000000X1.905000*%
%ADD26R,2.500000X4.000000*%
%ADD27O,2.286000X4.470400*%
G04 APERTURE END LIST*
D10*
X211377000Y-99960000D02*
X208277000Y-99960000D01*
X208261000Y-99960000D01*
X208246000Y-99958000D01*
X208230000Y-99956000D01*
X208215000Y-99953000D01*
X208199000Y-99950000D01*
X208184000Y-99945000D01*
X208169000Y-99940000D01*
X208155000Y-99934000D01*
X208141000Y-99927000D01*
X208127000Y-99920000D01*
X208114000Y-99912000D01*
X208101000Y-99903000D01*
X208088000Y-99893000D01*
X208076000Y-99883000D01*
X208065000Y-99872000D01*
X208054000Y-99861000D01*
X208044000Y-99849000D01*
X208034000Y-99836000D01*
X208025000Y-99823000D01*
X208017000Y-99810000D01*
X208010000Y-99796000D01*
X208003000Y-99782000D01*
X207997000Y-99768000D01*
X207992000Y-99753000D01*
X207987000Y-99738000D01*
X207984000Y-99722000D01*
X207981000Y-99707000D01*
X207979000Y-99691000D01*
X207977000Y-99676000D01*
X207977000Y-99660000D01*
X207977000Y-98460000D01*
X207977000Y-98444000D01*
X207979000Y-98429000D01*
X207981000Y-98413000D01*
X207984000Y-98398000D01*
X207987000Y-98382000D01*
X207992000Y-98367000D01*
X207997000Y-98352000D01*
X208003000Y-98338000D01*
X208010000Y-98324000D01*
X208017000Y-98310000D01*
X208025000Y-98297000D01*
X208034000Y-98284000D01*
X208044000Y-98271000D01*
X208054000Y-98259000D01*
X208065000Y-98248000D01*
X208076000Y-98237000D01*
X208088000Y-98227000D01*
X208101000Y-98217000D01*
X208114000Y-98208000D01*
X208127000Y-98200000D01*
X208141000Y-98193000D01*
X208155000Y-98186000D01*
X208169000Y-98180000D01*
X208184000Y-98175000D01*
X208199000Y-98170000D01*
X208215000Y-98167000D01*
X208230000Y-98164000D01*
X208246000Y-98162000D01*
X208261000Y-98160000D01*
X208277000Y-98160000D01*
X211377000Y-98160000D01*
X211377000Y-99960000D01*
G36*
X211377000Y-99960000D02*
G01*
X208277000Y-99960000D01*
X208261000Y-99960000D01*
X208246000Y-99958000D01*
X208230000Y-99956000D01*
X208215000Y-99953000D01*
X208199000Y-99950000D01*
X208184000Y-99945000D01*
X208169000Y-99940000D01*
X208155000Y-99934000D01*
X208141000Y-99927000D01*
X208127000Y-99920000D01*
X208114000Y-99912000D01*
X208101000Y-99903000D01*
X208088000Y-99893000D01*
X208076000Y-99883000D01*
X208065000Y-99872000D01*
X208054000Y-99861000D01*
X208044000Y-99849000D01*
X208034000Y-99836000D01*
X208025000Y-99823000D01*
X208017000Y-99810000D01*
X208010000Y-99796000D01*
X208003000Y-99782000D01*
X207997000Y-99768000D01*
X207992000Y-99753000D01*
X207987000Y-99738000D01*
X207984000Y-99722000D01*
X207981000Y-99707000D01*
X207979000Y-99691000D01*
X207977000Y-99676000D01*
X207977000Y-99660000D01*
X207977000Y-98460000D01*
X207977000Y-98444000D01*
X207979000Y-98429000D01*
X207981000Y-98413000D01*
X207984000Y-98398000D01*
X207987000Y-98382000D01*
X207992000Y-98367000D01*
X207997000Y-98352000D01*
X208003000Y-98338000D01*
X208010000Y-98324000D01*
X208017000Y-98310000D01*
X208025000Y-98297000D01*
X208034000Y-98284000D01*
X208044000Y-98271000D01*
X208054000Y-98259000D01*
X208065000Y-98248000D01*
X208076000Y-98237000D01*
X208088000Y-98227000D01*
X208101000Y-98217000D01*
X208114000Y-98208000D01*
X208127000Y-98200000D01*
X208141000Y-98193000D01*
X208155000Y-98186000D01*
X208169000Y-98180000D01*
X208184000Y-98175000D01*
X208199000Y-98170000D01*
X208215000Y-98167000D01*
X208230000Y-98164000D01*
X208246000Y-98162000D01*
X208261000Y-98160000D01*
X208277000Y-98160000D01*
X211377000Y-98160000D01*
X211377000Y-99960000D01*
G37*
X211377000Y-87260000D02*
X208277000Y-87260000D01*
X208261000Y-87260000D01*
X208246000Y-87258000D01*
X208230000Y-87256000D01*
X208215000Y-87253000D01*
X208199000Y-87250000D01*
X208184000Y-87245000D01*
X208169000Y-87240000D01*
X208155000Y-87234000D01*
X208141000Y-87227000D01*
X208127000Y-87220000D01*
X208114000Y-87212000D01*
X208101000Y-87203000D01*
X208088000Y-87193000D01*
X208076000Y-87183000D01*
X208065000Y-87172000D01*
X208054000Y-87161000D01*
X208044000Y-87149000D01*
X208034000Y-87136000D01*
X208025000Y-87123000D01*
X208017000Y-87110000D01*
X208010000Y-87096000D01*
X208003000Y-87082000D01*
X207997000Y-87068000D01*
X207992000Y-87053000D01*
X207987000Y-87038000D01*
X207984000Y-87022000D01*
X207981000Y-87007000D01*
X207979000Y-86991000D01*
X207977000Y-86976000D01*
X207977000Y-86960000D01*
X207977000Y-85760000D01*
X207977000Y-85744000D01*
X207979000Y-85729000D01*
X207981000Y-85713000D01*
X207984000Y-85698000D01*
X207987000Y-85682000D01*
X207992000Y-85667000D01*
X207997000Y-85652000D01*
X208003000Y-85638000D01*
X208010000Y-85624000D01*
X208017000Y-85610000D01*
X208025000Y-85597000D01*
X208034000Y-85584000D01*
X208044000Y-85571000D01*
X208054000Y-85559000D01*
X208065000Y-85548000D01*
X208076000Y-85537000D01*
X208088000Y-85527000D01*
X208101000Y-85517000D01*
X208114000Y-85508000D01*
X208127000Y-85500000D01*
X208141000Y-85493000D01*
X208155000Y-85486000D01*
X208169000Y-85480000D01*
X208184000Y-85475000D01*
X208199000Y-85470000D01*
X208215000Y-85467000D01*
X208230000Y-85464000D01*
X208246000Y-85462000D01*
X208261000Y-85460000D01*
X208277000Y-85460000D01*
X211377000Y-85460000D01*
X211377000Y-87260000D01*
G36*
X211377000Y-87260000D02*
G01*
X208277000Y-87260000D01*
X208261000Y-87260000D01*
X208246000Y-87258000D01*
X208230000Y-87256000D01*
X208215000Y-87253000D01*
X208199000Y-87250000D01*
X208184000Y-87245000D01*
X208169000Y-87240000D01*
X208155000Y-87234000D01*
X208141000Y-87227000D01*
X208127000Y-87220000D01*
X208114000Y-87212000D01*
X208101000Y-87203000D01*
X208088000Y-87193000D01*
X208076000Y-87183000D01*
X208065000Y-87172000D01*
X208054000Y-87161000D01*
X208044000Y-87149000D01*
X208034000Y-87136000D01*
X208025000Y-87123000D01*
X208017000Y-87110000D01*
X208010000Y-87096000D01*
X208003000Y-87082000D01*
X207997000Y-87068000D01*
X207992000Y-87053000D01*
X207987000Y-87038000D01*
X207984000Y-87022000D01*
X207981000Y-87007000D01*
X207979000Y-86991000D01*
X207977000Y-86976000D01*
X207977000Y-86960000D01*
X207977000Y-85760000D01*
X207977000Y-85744000D01*
X207979000Y-85729000D01*
X207981000Y-85713000D01*
X207984000Y-85698000D01*
X207987000Y-85682000D01*
X207992000Y-85667000D01*
X207997000Y-85652000D01*
X208003000Y-85638000D01*
X208010000Y-85624000D01*
X208017000Y-85610000D01*
X208025000Y-85597000D01*
X208034000Y-85584000D01*
X208044000Y-85571000D01*
X208054000Y-85559000D01*
X208065000Y-85548000D01*
X208076000Y-85537000D01*
X208088000Y-85527000D01*
X208101000Y-85517000D01*
X208114000Y-85508000D01*
X208127000Y-85500000D01*
X208141000Y-85493000D01*
X208155000Y-85486000D01*
X208169000Y-85480000D01*
X208184000Y-85475000D01*
X208199000Y-85470000D01*
X208215000Y-85467000D01*
X208230000Y-85464000D01*
X208246000Y-85462000D01*
X208261000Y-85460000D01*
X208277000Y-85460000D01*
X211377000Y-85460000D01*
X211377000Y-87260000D01*
G37*
X211377000Y-74560000D02*
X208277000Y-74560000D01*
X208261000Y-74560000D01*
X208246000Y-74558000D01*
X208230000Y-74556000D01*
X208215000Y-74553000D01*
X208199000Y-74550000D01*
X208184000Y-74545000D01*
X208169000Y-74540000D01*
X208155000Y-74534000D01*
X208141000Y-74527000D01*
X208127000Y-74520000D01*
X208114000Y-74512000D01*
X208101000Y-74503000D01*
X208088000Y-74493000D01*
X208076000Y-74483000D01*
X208065000Y-74472000D01*
X208054000Y-74461000D01*
X208044000Y-74449000D01*
X208034000Y-74436000D01*
X208025000Y-74423000D01*
X208017000Y-74410000D01*
X208010000Y-74396000D01*
X208003000Y-74382000D01*
X207997000Y-74368000D01*
X207992000Y-74353000D01*
X207987000Y-74338000D01*
X207984000Y-74322000D01*
X207981000Y-74307000D01*
X207979000Y-74291000D01*
X207977000Y-74276000D01*
X207977000Y-74260000D01*
X207977000Y-73060000D01*
X207977000Y-73044000D01*
X207979000Y-73029000D01*
X207981000Y-73013000D01*
X207984000Y-72998000D01*
X207987000Y-72982000D01*
X207992000Y-72967000D01*
X207997000Y-72952000D01*
X208003000Y-72938000D01*
X208010000Y-72924000D01*
X208017000Y-72910000D01*
X208025000Y-72897000D01*
X208034000Y-72884000D01*
X208044000Y-72871000D01*
X208054000Y-72859000D01*
X208065000Y-72848000D01*
X208076000Y-72837000D01*
X208088000Y-72827000D01*
X208101000Y-72817000D01*
X208114000Y-72808000D01*
X208127000Y-72800000D01*
X208141000Y-72793000D01*
X208155000Y-72786000D01*
X208169000Y-72780000D01*
X208184000Y-72775000D01*
X208199000Y-72770000D01*
X208215000Y-72767000D01*
X208230000Y-72764000D01*
X208246000Y-72762000D01*
X208261000Y-72760000D01*
X208277000Y-72760000D01*
X211377000Y-72760000D01*
X211377000Y-74560000D01*
G36*
X211377000Y-74560000D02*
G01*
X208277000Y-74560000D01*
X208261000Y-74560000D01*
X208246000Y-74558000D01*
X208230000Y-74556000D01*
X208215000Y-74553000D01*
X208199000Y-74550000D01*
X208184000Y-74545000D01*
X208169000Y-74540000D01*
X208155000Y-74534000D01*
X208141000Y-74527000D01*
X208127000Y-74520000D01*
X208114000Y-74512000D01*
X208101000Y-74503000D01*
X208088000Y-74493000D01*
X208076000Y-74483000D01*
X208065000Y-74472000D01*
X208054000Y-74461000D01*
X208044000Y-74449000D01*
X208034000Y-74436000D01*
X208025000Y-74423000D01*
X208017000Y-74410000D01*
X208010000Y-74396000D01*
X208003000Y-74382000D01*
X207997000Y-74368000D01*
X207992000Y-74353000D01*
X207987000Y-74338000D01*
X207984000Y-74322000D01*
X207981000Y-74307000D01*
X207979000Y-74291000D01*
X207977000Y-74276000D01*
X207977000Y-74260000D01*
X207977000Y-73060000D01*
X207977000Y-73044000D01*
X207979000Y-73029000D01*
X207981000Y-73013000D01*
X207984000Y-72998000D01*
X207987000Y-72982000D01*
X207992000Y-72967000D01*
X207997000Y-72952000D01*
X208003000Y-72938000D01*
X208010000Y-72924000D01*
X208017000Y-72910000D01*
X208025000Y-72897000D01*
X208034000Y-72884000D01*
X208044000Y-72871000D01*
X208054000Y-72859000D01*
X208065000Y-72848000D01*
X208076000Y-72837000D01*
X208088000Y-72827000D01*
X208101000Y-72817000D01*
X208114000Y-72808000D01*
X208127000Y-72800000D01*
X208141000Y-72793000D01*
X208155000Y-72786000D01*
X208169000Y-72780000D01*
X208184000Y-72775000D01*
X208199000Y-72770000D01*
X208215000Y-72767000D01*
X208230000Y-72764000D01*
X208246000Y-72762000D01*
X208261000Y-72760000D01*
X208277000Y-72760000D01*
X211377000Y-72760000D01*
X211377000Y-74560000D01*
G37*
X211377000Y-61860000D02*
X208277000Y-61860000D01*
X208261000Y-61860000D01*
X208246000Y-61858000D01*
X208230000Y-61856000D01*
X208215000Y-61853000D01*
X208199000Y-61850000D01*
X208184000Y-61845000D01*
X208169000Y-61840000D01*
X208155000Y-61834000D01*
X208141000Y-61827000D01*
X208127000Y-61820000D01*
X208114000Y-61812000D01*
X208101000Y-61803000D01*
X208088000Y-61793000D01*
X208076000Y-61783000D01*
X208065000Y-61772000D01*
X208054000Y-61761000D01*
X208044000Y-61749000D01*
X208034000Y-61736000D01*
X208025000Y-61723000D01*
X208017000Y-61710000D01*
X208010000Y-61696000D01*
X208003000Y-61682000D01*
X207997000Y-61668000D01*
X207992000Y-61653000D01*
X207987000Y-61638000D01*
X207984000Y-61622000D01*
X207981000Y-61607000D01*
X207979000Y-61591000D01*
X207977000Y-61576000D01*
X207977000Y-61560000D01*
X207977000Y-60360000D01*
X207977000Y-60344000D01*
X207979000Y-60329000D01*
X207981000Y-60313000D01*
X207984000Y-60298000D01*
X207987000Y-60282000D01*
X207992000Y-60267000D01*
X207997000Y-60252000D01*
X208003000Y-60238000D01*
X208010000Y-60224000D01*
X208017000Y-60210000D01*
X208025000Y-60197000D01*
X208034000Y-60184000D01*
X208044000Y-60171000D01*
X208054000Y-60159000D01*
X208065000Y-60148000D01*
X208076000Y-60137000D01*
X208088000Y-60127000D01*
X208101000Y-60117000D01*
X208114000Y-60108000D01*
X208127000Y-60100000D01*
X208141000Y-60093000D01*
X208155000Y-60086000D01*
X208169000Y-60080000D01*
X208184000Y-60075000D01*
X208199000Y-60070000D01*
X208215000Y-60067000D01*
X208230000Y-60064000D01*
X208246000Y-60062000D01*
X208261000Y-60060000D01*
X208277000Y-60060000D01*
X211377000Y-60060000D01*
X211377000Y-61860000D01*
G36*
X211377000Y-61860000D02*
G01*
X208277000Y-61860000D01*
X208261000Y-61860000D01*
X208246000Y-61858000D01*
X208230000Y-61856000D01*
X208215000Y-61853000D01*
X208199000Y-61850000D01*
X208184000Y-61845000D01*
X208169000Y-61840000D01*
X208155000Y-61834000D01*
X208141000Y-61827000D01*
X208127000Y-61820000D01*
X208114000Y-61812000D01*
X208101000Y-61803000D01*
X208088000Y-61793000D01*
X208076000Y-61783000D01*
X208065000Y-61772000D01*
X208054000Y-61761000D01*
X208044000Y-61749000D01*
X208034000Y-61736000D01*
X208025000Y-61723000D01*
X208017000Y-61710000D01*
X208010000Y-61696000D01*
X208003000Y-61682000D01*
X207997000Y-61668000D01*
X207992000Y-61653000D01*
X207987000Y-61638000D01*
X207984000Y-61622000D01*
X207981000Y-61607000D01*
X207979000Y-61591000D01*
X207977000Y-61576000D01*
X207977000Y-61560000D01*
X207977000Y-60360000D01*
X207977000Y-60344000D01*
X207979000Y-60329000D01*
X207981000Y-60313000D01*
X207984000Y-60298000D01*
X207987000Y-60282000D01*
X207992000Y-60267000D01*
X207997000Y-60252000D01*
X208003000Y-60238000D01*
X208010000Y-60224000D01*
X208017000Y-60210000D01*
X208025000Y-60197000D01*
X208034000Y-60184000D01*
X208044000Y-60171000D01*
X208054000Y-60159000D01*
X208065000Y-60148000D01*
X208076000Y-60137000D01*
X208088000Y-60127000D01*
X208101000Y-60117000D01*
X208114000Y-60108000D01*
X208127000Y-60100000D01*
X208141000Y-60093000D01*
X208155000Y-60086000D01*
X208169000Y-60080000D01*
X208184000Y-60075000D01*
X208199000Y-60070000D01*
X208215000Y-60067000D01*
X208230000Y-60064000D01*
X208246000Y-60062000D01*
X208261000Y-60060000D01*
X208277000Y-60060000D01*
X211377000Y-60060000D01*
X211377000Y-61860000D01*
G37*
X200618000Y-103012000D02*
X200634000Y-103014000D01*
X200649000Y-103017000D01*
X200665000Y-103020000D01*
X200680000Y-103025000D01*
X200695000Y-103030000D01*
X200709000Y-103036000D01*
X200723000Y-103043000D01*
X200737000Y-103050000D01*
X200750000Y-103058000D01*
X200763000Y-103067000D01*
X200776000Y-103077000D01*
X200788000Y-103087000D01*
X200799000Y-103098000D01*
X200810000Y-103109000D01*
X200820000Y-103121000D01*
X200830000Y-103134000D01*
X200839000Y-103147000D01*
X200847000Y-103160000D01*
X200854000Y-103174000D01*
X200861000Y-103188000D01*
X200867000Y-103202000D01*
X200872000Y-103217000D01*
X200877000Y-103232000D01*
X200880000Y-103248000D01*
X200883000Y-103263000D01*
X200885000Y-103279000D01*
X200887000Y-103294000D01*
X200887000Y-103310000D01*
X200887000Y-106410000D01*
X199087000Y-106410000D01*
X199087000Y-103310000D01*
X199087000Y-103294000D01*
X199089000Y-103279000D01*
X199091000Y-103263000D01*
X199094000Y-103248000D01*
X199097000Y-103232000D01*
X199102000Y-103217000D01*
X199107000Y-103202000D01*
X199113000Y-103188000D01*
X199120000Y-103174000D01*
X199127000Y-103160000D01*
X199135000Y-103147000D01*
X199144000Y-103134000D01*
X199154000Y-103121000D01*
X199164000Y-103109000D01*
X199175000Y-103098000D01*
X199186000Y-103087000D01*
X199198000Y-103077000D01*
X199211000Y-103067000D01*
X199224000Y-103058000D01*
X199237000Y-103050000D01*
X199251000Y-103043000D01*
X199265000Y-103036000D01*
X199279000Y-103030000D01*
X199294000Y-103025000D01*
X199309000Y-103020000D01*
X199325000Y-103017000D01*
X199340000Y-103014000D01*
X199356000Y-103012000D01*
X199371000Y-103010000D01*
X199387000Y-103010000D01*
X200587000Y-103010000D01*
X200603000Y-103010000D01*
X200618000Y-103012000D01*
G36*
X200618000Y-103012000D02*
G01*
X200634000Y-103014000D01*
X200649000Y-103017000D01*
X200665000Y-103020000D01*
X200680000Y-103025000D01*
X200695000Y-103030000D01*
X200709000Y-103036000D01*
X200723000Y-103043000D01*
X200737000Y-103050000D01*
X200750000Y-103058000D01*
X200763000Y-103067000D01*
X200776000Y-103077000D01*
X200788000Y-103087000D01*
X200799000Y-103098000D01*
X200810000Y-103109000D01*
X200820000Y-103121000D01*
X200830000Y-103134000D01*
X200839000Y-103147000D01*
X200847000Y-103160000D01*
X200854000Y-103174000D01*
X200861000Y-103188000D01*
X200867000Y-103202000D01*
X200872000Y-103217000D01*
X200877000Y-103232000D01*
X200880000Y-103248000D01*
X200883000Y-103263000D01*
X200885000Y-103279000D01*
X200887000Y-103294000D01*
X200887000Y-103310000D01*
X200887000Y-106410000D01*
X199087000Y-106410000D01*
X199087000Y-103310000D01*
X199087000Y-103294000D01*
X199089000Y-103279000D01*
X199091000Y-103263000D01*
X199094000Y-103248000D01*
X199097000Y-103232000D01*
X199102000Y-103217000D01*
X199107000Y-103202000D01*
X199113000Y-103188000D01*
X199120000Y-103174000D01*
X199127000Y-103160000D01*
X199135000Y-103147000D01*
X199144000Y-103134000D01*
X199154000Y-103121000D01*
X199164000Y-103109000D01*
X199175000Y-103098000D01*
X199186000Y-103087000D01*
X199198000Y-103077000D01*
X199211000Y-103067000D01*
X199224000Y-103058000D01*
X199237000Y-103050000D01*
X199251000Y-103043000D01*
X199265000Y-103036000D01*
X199279000Y-103030000D01*
X199294000Y-103025000D01*
X199309000Y-103020000D01*
X199325000Y-103017000D01*
X199340000Y-103014000D01*
X199356000Y-103012000D01*
X199371000Y-103010000D01*
X199387000Y-103010000D01*
X200587000Y-103010000D01*
X200603000Y-103010000D01*
X200618000Y-103012000D01*
G37*
X191728000Y-98162000D02*
X191744000Y-98164000D01*
X191759000Y-98167000D01*
X191775000Y-98170000D01*
X191790000Y-98175000D01*
X191805000Y-98180000D01*
X191819000Y-98186000D01*
X191833000Y-98193000D01*
X191847000Y-98200000D01*
X191860000Y-98208000D01*
X191873000Y-98217000D01*
X191886000Y-98227000D01*
X191898000Y-98237000D01*
X191909000Y-98248000D01*
X191920000Y-98259000D01*
X191930000Y-98271000D01*
X191940000Y-98284000D01*
X191949000Y-98297000D01*
X191957000Y-98310000D01*
X191964000Y-98324000D01*
X191971000Y-98338000D01*
X191977000Y-98352000D01*
X191982000Y-98367000D01*
X191987000Y-98382000D01*
X191990000Y-98398000D01*
X191993000Y-98413000D01*
X191995000Y-98429000D01*
X191997000Y-98444000D01*
X191997000Y-98460000D01*
X191997000Y-99660000D01*
X191997000Y-99676000D01*
X191995000Y-99691000D01*
X191993000Y-99707000D01*
X191990000Y-99722000D01*
X191987000Y-99738000D01*
X191982000Y-99753000D01*
X191977000Y-99768000D01*
X191971000Y-99782000D01*
X191964000Y-99796000D01*
X191957000Y-99810000D01*
X191949000Y-99823000D01*
X191940000Y-99836000D01*
X191930000Y-99849000D01*
X191920000Y-99861000D01*
X191909000Y-99872000D01*
X191898000Y-99883000D01*
X191886000Y-99893000D01*
X191873000Y-99903000D01*
X191860000Y-99912000D01*
X191847000Y-99920000D01*
X191833000Y-99927000D01*
X191819000Y-99934000D01*
X191805000Y-99940000D01*
X191790000Y-99945000D01*
X191775000Y-99950000D01*
X191759000Y-99953000D01*
X191744000Y-99956000D01*
X191728000Y-99958000D01*
X191713000Y-99960000D01*
X191697000Y-99960000D01*
X188597000Y-99960000D01*
X188597000Y-98160000D01*
X191697000Y-98160000D01*
X191713000Y-98160000D01*
X191728000Y-98162000D01*
G36*
X191728000Y-98162000D02*
G01*
X191744000Y-98164000D01*
X191759000Y-98167000D01*
X191775000Y-98170000D01*
X191790000Y-98175000D01*
X191805000Y-98180000D01*
X191819000Y-98186000D01*
X191833000Y-98193000D01*
X191847000Y-98200000D01*
X191860000Y-98208000D01*
X191873000Y-98217000D01*
X191886000Y-98227000D01*
X191898000Y-98237000D01*
X191909000Y-98248000D01*
X191920000Y-98259000D01*
X191930000Y-98271000D01*
X191940000Y-98284000D01*
X191949000Y-98297000D01*
X191957000Y-98310000D01*
X191964000Y-98324000D01*
X191971000Y-98338000D01*
X191977000Y-98352000D01*
X191982000Y-98367000D01*
X191987000Y-98382000D01*
X191990000Y-98398000D01*
X191993000Y-98413000D01*
X191995000Y-98429000D01*
X191997000Y-98444000D01*
X191997000Y-98460000D01*
X191997000Y-99660000D01*
X191997000Y-99676000D01*
X191995000Y-99691000D01*
X191993000Y-99707000D01*
X191990000Y-99722000D01*
X191987000Y-99738000D01*
X191982000Y-99753000D01*
X191977000Y-99768000D01*
X191971000Y-99782000D01*
X191964000Y-99796000D01*
X191957000Y-99810000D01*
X191949000Y-99823000D01*
X191940000Y-99836000D01*
X191930000Y-99849000D01*
X191920000Y-99861000D01*
X191909000Y-99872000D01*
X191898000Y-99883000D01*
X191886000Y-99893000D01*
X191873000Y-99903000D01*
X191860000Y-99912000D01*
X191847000Y-99920000D01*
X191833000Y-99927000D01*
X191819000Y-99934000D01*
X191805000Y-99940000D01*
X191790000Y-99945000D01*
X191775000Y-99950000D01*
X191759000Y-99953000D01*
X191744000Y-99956000D01*
X191728000Y-99958000D01*
X191713000Y-99960000D01*
X191697000Y-99960000D01*
X188597000Y-99960000D01*
X188597000Y-98160000D01*
X191697000Y-98160000D01*
X191713000Y-98160000D01*
X191728000Y-98162000D01*
G37*
X191728000Y-85462000D02*
X191744000Y-85464000D01*
X191759000Y-85467000D01*
X191775000Y-85470000D01*
X191790000Y-85475000D01*
X191805000Y-85480000D01*
X191819000Y-85486000D01*
X191833000Y-85493000D01*
X191847000Y-85500000D01*
X191860000Y-85508000D01*
X191873000Y-85517000D01*
X191886000Y-85527000D01*
X191898000Y-85537000D01*
X191909000Y-85548000D01*
X191920000Y-85559000D01*
X191930000Y-85571000D01*
X191940000Y-85584000D01*
X191949000Y-85597000D01*
X191957000Y-85610000D01*
X191964000Y-85624000D01*
X191971000Y-85638000D01*
X191977000Y-85652000D01*
X191982000Y-85667000D01*
X191987000Y-85682000D01*
X191990000Y-85698000D01*
X191993000Y-85713000D01*
X191995000Y-85729000D01*
X191997000Y-85744000D01*
X191997000Y-85760000D01*
X191997000Y-86960000D01*
X191997000Y-86976000D01*
X191995000Y-86991000D01*
X191993000Y-87007000D01*
X191990000Y-87022000D01*
X191987000Y-87038000D01*
X191982000Y-87053000D01*
X191977000Y-87068000D01*
X191971000Y-87082000D01*
X191964000Y-87096000D01*
X191957000Y-87110000D01*
X191949000Y-87123000D01*
X191940000Y-87136000D01*
X191930000Y-87149000D01*
X191920000Y-87161000D01*
X191909000Y-87172000D01*
X191898000Y-87183000D01*
X191886000Y-87193000D01*
X191873000Y-87203000D01*
X191860000Y-87212000D01*
X191847000Y-87220000D01*
X191833000Y-87227000D01*
X191819000Y-87234000D01*
X191805000Y-87240000D01*
X191790000Y-87245000D01*
X191775000Y-87250000D01*
X191759000Y-87253000D01*
X191744000Y-87256000D01*
X191728000Y-87258000D01*
X191713000Y-87260000D01*
X191697000Y-87260000D01*
X188597000Y-87260000D01*
X188597000Y-85460000D01*
X191697000Y-85460000D01*
X191713000Y-85460000D01*
X191728000Y-85462000D01*
G36*
X191728000Y-85462000D02*
G01*
X191744000Y-85464000D01*
X191759000Y-85467000D01*
X191775000Y-85470000D01*
X191790000Y-85475000D01*
X191805000Y-85480000D01*
X191819000Y-85486000D01*
X191833000Y-85493000D01*
X191847000Y-85500000D01*
X191860000Y-85508000D01*
X191873000Y-85517000D01*
X191886000Y-85527000D01*
X191898000Y-85537000D01*
X191909000Y-85548000D01*
X191920000Y-85559000D01*
X191930000Y-85571000D01*
X191940000Y-85584000D01*
X191949000Y-85597000D01*
X191957000Y-85610000D01*
X191964000Y-85624000D01*
X191971000Y-85638000D01*
X191977000Y-85652000D01*
X191982000Y-85667000D01*
X191987000Y-85682000D01*
X191990000Y-85698000D01*
X191993000Y-85713000D01*
X191995000Y-85729000D01*
X191997000Y-85744000D01*
X191997000Y-85760000D01*
X191997000Y-86960000D01*
X191997000Y-86976000D01*
X191995000Y-86991000D01*
X191993000Y-87007000D01*
X191990000Y-87022000D01*
X191987000Y-87038000D01*
X191982000Y-87053000D01*
X191977000Y-87068000D01*
X191971000Y-87082000D01*
X191964000Y-87096000D01*
X191957000Y-87110000D01*
X191949000Y-87123000D01*
X191940000Y-87136000D01*
X191930000Y-87149000D01*
X191920000Y-87161000D01*
X191909000Y-87172000D01*
X191898000Y-87183000D01*
X191886000Y-87193000D01*
X191873000Y-87203000D01*
X191860000Y-87212000D01*
X191847000Y-87220000D01*
X191833000Y-87227000D01*
X191819000Y-87234000D01*
X191805000Y-87240000D01*
X191790000Y-87245000D01*
X191775000Y-87250000D01*
X191759000Y-87253000D01*
X191744000Y-87256000D01*
X191728000Y-87258000D01*
X191713000Y-87260000D01*
X191697000Y-87260000D01*
X188597000Y-87260000D01*
X188597000Y-85460000D01*
X191697000Y-85460000D01*
X191713000Y-85460000D01*
X191728000Y-85462000D01*
G37*
X191728000Y-72762000D02*
X191744000Y-72764000D01*
X191759000Y-72767000D01*
X191775000Y-72770000D01*
X191790000Y-72775000D01*
X191805000Y-72780000D01*
X191819000Y-72786000D01*
X191833000Y-72793000D01*
X191847000Y-72800000D01*
X191860000Y-72808000D01*
X191873000Y-72817000D01*
X191886000Y-72827000D01*
X191898000Y-72837000D01*
X191909000Y-72848000D01*
X191920000Y-72859000D01*
X191930000Y-72871000D01*
X191940000Y-72884000D01*
X191949000Y-72897000D01*
X191957000Y-72910000D01*
X191964000Y-72924000D01*
X191971000Y-72938000D01*
X191977000Y-72952000D01*
X191982000Y-72967000D01*
X191987000Y-72982000D01*
X191990000Y-72998000D01*
X191993000Y-73013000D01*
X191995000Y-73029000D01*
X191997000Y-73044000D01*
X191997000Y-73060000D01*
X191997000Y-74260000D01*
X191997000Y-74276000D01*
X191995000Y-74291000D01*
X191993000Y-74307000D01*
X191990000Y-74322000D01*
X191987000Y-74338000D01*
X191982000Y-74353000D01*
X191977000Y-74368000D01*
X191971000Y-74382000D01*
X191964000Y-74396000D01*
X191957000Y-74410000D01*
X191949000Y-74423000D01*
X191940000Y-74436000D01*
X191930000Y-74449000D01*
X191920000Y-74461000D01*
X191909000Y-74472000D01*
X191898000Y-74483000D01*
X191886000Y-74493000D01*
X191873000Y-74503000D01*
X191860000Y-74512000D01*
X191847000Y-74520000D01*
X191833000Y-74527000D01*
X191819000Y-74534000D01*
X191805000Y-74540000D01*
X191790000Y-74545000D01*
X191775000Y-74550000D01*
X191759000Y-74553000D01*
X191744000Y-74556000D01*
X191728000Y-74558000D01*
X191713000Y-74560000D01*
X191697000Y-74560000D01*
X188597000Y-74560000D01*
X188597000Y-72760000D01*
X191697000Y-72760000D01*
X191713000Y-72760000D01*
X191728000Y-72762000D01*
G36*
X191728000Y-72762000D02*
G01*
X191744000Y-72764000D01*
X191759000Y-72767000D01*
X191775000Y-72770000D01*
X191790000Y-72775000D01*
X191805000Y-72780000D01*
X191819000Y-72786000D01*
X191833000Y-72793000D01*
X191847000Y-72800000D01*
X191860000Y-72808000D01*
X191873000Y-72817000D01*
X191886000Y-72827000D01*
X191898000Y-72837000D01*
X191909000Y-72848000D01*
X191920000Y-72859000D01*
X191930000Y-72871000D01*
X191940000Y-72884000D01*
X191949000Y-72897000D01*
X191957000Y-72910000D01*
X191964000Y-72924000D01*
X191971000Y-72938000D01*
X191977000Y-72952000D01*
X191982000Y-72967000D01*
X191987000Y-72982000D01*
X191990000Y-72998000D01*
X191993000Y-73013000D01*
X191995000Y-73029000D01*
X191997000Y-73044000D01*
X191997000Y-73060000D01*
X191997000Y-74260000D01*
X191997000Y-74276000D01*
X191995000Y-74291000D01*
X191993000Y-74307000D01*
X191990000Y-74322000D01*
X191987000Y-74338000D01*
X191982000Y-74353000D01*
X191977000Y-74368000D01*
X191971000Y-74382000D01*
X191964000Y-74396000D01*
X191957000Y-74410000D01*
X191949000Y-74423000D01*
X191940000Y-74436000D01*
X191930000Y-74449000D01*
X191920000Y-74461000D01*
X191909000Y-74472000D01*
X191898000Y-74483000D01*
X191886000Y-74493000D01*
X191873000Y-74503000D01*
X191860000Y-74512000D01*
X191847000Y-74520000D01*
X191833000Y-74527000D01*
X191819000Y-74534000D01*
X191805000Y-74540000D01*
X191790000Y-74545000D01*
X191775000Y-74550000D01*
X191759000Y-74553000D01*
X191744000Y-74556000D01*
X191728000Y-74558000D01*
X191713000Y-74560000D01*
X191697000Y-74560000D01*
X188597000Y-74560000D01*
X188597000Y-72760000D01*
X191697000Y-72760000D01*
X191713000Y-72760000D01*
X191728000Y-72762000D01*
G37*
X191728000Y-60062000D02*
X191744000Y-60064000D01*
X191759000Y-60067000D01*
X191775000Y-60070000D01*
X191790000Y-60075000D01*
X191805000Y-60080000D01*
X191819000Y-60086000D01*
X191833000Y-60093000D01*
X191847000Y-60100000D01*
X191860000Y-60108000D01*
X191873000Y-60117000D01*
X191886000Y-60127000D01*
X191898000Y-60137000D01*
X191909000Y-60148000D01*
X191920000Y-60159000D01*
X191930000Y-60171000D01*
X191940000Y-60184000D01*
X191949000Y-60197000D01*
X191957000Y-60210000D01*
X191964000Y-60224000D01*
X191971000Y-60238000D01*
X191977000Y-60252000D01*
X191982000Y-60267000D01*
X191987000Y-60282000D01*
X191990000Y-60298000D01*
X191993000Y-60313000D01*
X191995000Y-60329000D01*
X191997000Y-60344000D01*
X191997000Y-60360000D01*
X191997000Y-61560000D01*
X191997000Y-61576000D01*
X191995000Y-61591000D01*
X191993000Y-61607000D01*
X191990000Y-61622000D01*
X191987000Y-61638000D01*
X191982000Y-61653000D01*
X191977000Y-61668000D01*
X191971000Y-61682000D01*
X191964000Y-61696000D01*
X191957000Y-61710000D01*
X191949000Y-61723000D01*
X191940000Y-61736000D01*
X191930000Y-61749000D01*
X191920000Y-61761000D01*
X191909000Y-61772000D01*
X191898000Y-61783000D01*
X191886000Y-61793000D01*
X191873000Y-61803000D01*
X191860000Y-61812000D01*
X191847000Y-61820000D01*
X191833000Y-61827000D01*
X191819000Y-61834000D01*
X191805000Y-61840000D01*
X191790000Y-61845000D01*
X191775000Y-61850000D01*
X191759000Y-61853000D01*
X191744000Y-61856000D01*
X191728000Y-61858000D01*
X191713000Y-61860000D01*
X191697000Y-61860000D01*
X188597000Y-61860000D01*
X188597000Y-60060000D01*
X191697000Y-60060000D01*
X191713000Y-60060000D01*
X191728000Y-60062000D01*
G36*
X191728000Y-60062000D02*
G01*
X191744000Y-60064000D01*
X191759000Y-60067000D01*
X191775000Y-60070000D01*
X191790000Y-60075000D01*
X191805000Y-60080000D01*
X191819000Y-60086000D01*
X191833000Y-60093000D01*
X191847000Y-60100000D01*
X191860000Y-60108000D01*
X191873000Y-60117000D01*
X191886000Y-60127000D01*
X191898000Y-60137000D01*
X191909000Y-60148000D01*
X191920000Y-60159000D01*
X191930000Y-60171000D01*
X191940000Y-60184000D01*
X191949000Y-60197000D01*
X191957000Y-60210000D01*
X191964000Y-60224000D01*
X191971000Y-60238000D01*
X191977000Y-60252000D01*
X191982000Y-60267000D01*
X191987000Y-60282000D01*
X191990000Y-60298000D01*
X191993000Y-60313000D01*
X191995000Y-60329000D01*
X191997000Y-60344000D01*
X191997000Y-60360000D01*
X191997000Y-61560000D01*
X191997000Y-61576000D01*
X191995000Y-61591000D01*
X191993000Y-61607000D01*
X191990000Y-61622000D01*
X191987000Y-61638000D01*
X191982000Y-61653000D01*
X191977000Y-61668000D01*
X191971000Y-61682000D01*
X191964000Y-61696000D01*
X191957000Y-61710000D01*
X191949000Y-61723000D01*
X191940000Y-61736000D01*
X191930000Y-61749000D01*
X191920000Y-61761000D01*
X191909000Y-61772000D01*
X191898000Y-61783000D01*
X191886000Y-61793000D01*
X191873000Y-61803000D01*
X191860000Y-61812000D01*
X191847000Y-61820000D01*
X191833000Y-61827000D01*
X191819000Y-61834000D01*
X191805000Y-61840000D01*
X191790000Y-61845000D01*
X191775000Y-61850000D01*
X191759000Y-61853000D01*
X191744000Y-61856000D01*
X191728000Y-61858000D01*
X191713000Y-61860000D01*
X191697000Y-61860000D01*
X188597000Y-61860000D01*
X188597000Y-60060000D01*
X191697000Y-60060000D01*
X191713000Y-60060000D01*
X191728000Y-60062000D01*
G37*
X211377000Y-105040000D02*
X208877000Y-105040000D01*
X208830000Y-105039000D01*
X208783000Y-105035000D01*
X208736000Y-105029000D01*
X208690000Y-105020000D01*
X208644000Y-105009000D01*
X208599000Y-104996000D01*
X208554000Y-104980000D01*
X208511000Y-104962000D01*
X208468000Y-104942000D01*
X208427000Y-104919000D01*
X208387000Y-104895000D01*
X208348000Y-104868000D01*
X208311000Y-104839000D01*
X208275000Y-104809000D01*
X208241000Y-104776000D01*
X208208000Y-104742000D01*
X208178000Y-104706000D01*
X208149000Y-104669000D01*
X208122000Y-104630000D01*
X208098000Y-104590000D01*
X208075000Y-104549000D01*
X208055000Y-104506000D01*
X208037000Y-104463000D01*
X208021000Y-104418000D01*
X208008000Y-104373000D01*
X207997000Y-104327000D01*
X207988000Y-104281000D01*
X207982000Y-104234000D01*
X207978000Y-104187000D01*
X207977000Y-104140000D01*
X207978000Y-104093000D01*
X207982000Y-104046000D01*
X207988000Y-103999000D01*
X207997000Y-103953000D01*
X208008000Y-103907000D01*
X208021000Y-103862000D01*
X208037000Y-103817000D01*
X208055000Y-103774000D01*
X208075000Y-103731000D01*
X208098000Y-103690000D01*
X208122000Y-103650000D01*
X208149000Y-103611000D01*
X208178000Y-103574000D01*
X208208000Y-103538000D01*
X208241000Y-103504000D01*
X208275000Y-103471000D01*
X208311000Y-103441000D01*
X208348000Y-103412000D01*
X208387000Y-103385000D01*
X208427000Y-103361000D01*
X208468000Y-103338000D01*
X208511000Y-103318000D01*
X208554000Y-103300000D01*
X208599000Y-103284000D01*
X208644000Y-103271000D01*
X208690000Y-103260000D01*
X208736000Y-103251000D01*
X208783000Y-103245000D01*
X208830000Y-103241000D01*
X208877000Y-103240000D01*
X211377000Y-103240000D01*
X211377000Y-105040000D01*
G36*
X211377000Y-105040000D02*
G01*
X208877000Y-105040000D01*
X208830000Y-105039000D01*
X208783000Y-105035000D01*
X208736000Y-105029000D01*
X208690000Y-105020000D01*
X208644000Y-105009000D01*
X208599000Y-104996000D01*
X208554000Y-104980000D01*
X208511000Y-104962000D01*
X208468000Y-104942000D01*
X208427000Y-104919000D01*
X208387000Y-104895000D01*
X208348000Y-104868000D01*
X208311000Y-104839000D01*
X208275000Y-104809000D01*
X208241000Y-104776000D01*
X208208000Y-104742000D01*
X208178000Y-104706000D01*
X208149000Y-104669000D01*
X208122000Y-104630000D01*
X208098000Y-104590000D01*
X208075000Y-104549000D01*
X208055000Y-104506000D01*
X208037000Y-104463000D01*
X208021000Y-104418000D01*
X208008000Y-104373000D01*
X207997000Y-104327000D01*
X207988000Y-104281000D01*
X207982000Y-104234000D01*
X207978000Y-104187000D01*
X207977000Y-104140000D01*
X207978000Y-104093000D01*
X207982000Y-104046000D01*
X207988000Y-103999000D01*
X207997000Y-103953000D01*
X208008000Y-103907000D01*
X208021000Y-103862000D01*
X208037000Y-103817000D01*
X208055000Y-103774000D01*
X208075000Y-103731000D01*
X208098000Y-103690000D01*
X208122000Y-103650000D01*
X208149000Y-103611000D01*
X208178000Y-103574000D01*
X208208000Y-103538000D01*
X208241000Y-103504000D01*
X208275000Y-103471000D01*
X208311000Y-103441000D01*
X208348000Y-103412000D01*
X208387000Y-103385000D01*
X208427000Y-103361000D01*
X208468000Y-103338000D01*
X208511000Y-103318000D01*
X208554000Y-103300000D01*
X208599000Y-103284000D01*
X208644000Y-103271000D01*
X208690000Y-103260000D01*
X208736000Y-103251000D01*
X208783000Y-103245000D01*
X208830000Y-103241000D01*
X208877000Y-103240000D01*
X211377000Y-103240000D01*
X211377000Y-105040000D01*
G37*
X211377000Y-102500000D02*
X208877000Y-102500000D01*
X208830000Y-102499000D01*
X208783000Y-102495000D01*
X208736000Y-102489000D01*
X208690000Y-102480000D01*
X208644000Y-102469000D01*
X208599000Y-102456000D01*
X208554000Y-102440000D01*
X208511000Y-102422000D01*
X208468000Y-102402000D01*
X208427000Y-102379000D01*
X208387000Y-102355000D01*
X208348000Y-102328000D01*
X208311000Y-102299000D01*
X208275000Y-102269000D01*
X208241000Y-102236000D01*
X208208000Y-102202000D01*
X208178000Y-102166000D01*
X208149000Y-102129000D01*
X208122000Y-102090000D01*
X208098000Y-102050000D01*
X208075000Y-102009000D01*
X208055000Y-101966000D01*
X208037000Y-101923000D01*
X208021000Y-101878000D01*
X208008000Y-101833000D01*
X207997000Y-101787000D01*
X207988000Y-101741000D01*
X207982000Y-101694000D01*
X207978000Y-101647000D01*
X207977000Y-101600000D01*
X207978000Y-101553000D01*
X207982000Y-101506000D01*
X207988000Y-101459000D01*
X207997000Y-101413000D01*
X208008000Y-101367000D01*
X208021000Y-101322000D01*
X208037000Y-101277000D01*
X208055000Y-101234000D01*
X208075000Y-101191000D01*
X208098000Y-101150000D01*
X208122000Y-101110000D01*
X208149000Y-101071000D01*
X208178000Y-101034000D01*
X208208000Y-100998000D01*
X208241000Y-100964000D01*
X208275000Y-100931000D01*
X208311000Y-100901000D01*
X208348000Y-100872000D01*
X208387000Y-100845000D01*
X208427000Y-100821000D01*
X208468000Y-100798000D01*
X208511000Y-100778000D01*
X208554000Y-100760000D01*
X208599000Y-100744000D01*
X208644000Y-100731000D01*
X208690000Y-100720000D01*
X208736000Y-100711000D01*
X208783000Y-100705000D01*
X208830000Y-100701000D01*
X208877000Y-100700000D01*
X211377000Y-100700000D01*
X211377000Y-102500000D01*
G36*
X211377000Y-102500000D02*
G01*
X208877000Y-102500000D01*
X208830000Y-102499000D01*
X208783000Y-102495000D01*
X208736000Y-102489000D01*
X208690000Y-102480000D01*
X208644000Y-102469000D01*
X208599000Y-102456000D01*
X208554000Y-102440000D01*
X208511000Y-102422000D01*
X208468000Y-102402000D01*
X208427000Y-102379000D01*
X208387000Y-102355000D01*
X208348000Y-102328000D01*
X208311000Y-102299000D01*
X208275000Y-102269000D01*
X208241000Y-102236000D01*
X208208000Y-102202000D01*
X208178000Y-102166000D01*
X208149000Y-102129000D01*
X208122000Y-102090000D01*
X208098000Y-102050000D01*
X208075000Y-102009000D01*
X208055000Y-101966000D01*
X208037000Y-101923000D01*
X208021000Y-101878000D01*
X208008000Y-101833000D01*
X207997000Y-101787000D01*
X207988000Y-101741000D01*
X207982000Y-101694000D01*
X207978000Y-101647000D01*
X207977000Y-101600000D01*
X207978000Y-101553000D01*
X207982000Y-101506000D01*
X207988000Y-101459000D01*
X207997000Y-101413000D01*
X208008000Y-101367000D01*
X208021000Y-101322000D01*
X208037000Y-101277000D01*
X208055000Y-101234000D01*
X208075000Y-101191000D01*
X208098000Y-101150000D01*
X208122000Y-101110000D01*
X208149000Y-101071000D01*
X208178000Y-101034000D01*
X208208000Y-100998000D01*
X208241000Y-100964000D01*
X208275000Y-100931000D01*
X208311000Y-100901000D01*
X208348000Y-100872000D01*
X208387000Y-100845000D01*
X208427000Y-100821000D01*
X208468000Y-100798000D01*
X208511000Y-100778000D01*
X208554000Y-100760000D01*
X208599000Y-100744000D01*
X208644000Y-100731000D01*
X208690000Y-100720000D01*
X208736000Y-100711000D01*
X208783000Y-100705000D01*
X208830000Y-100701000D01*
X208877000Y-100700000D01*
X211377000Y-100700000D01*
X211377000Y-102500000D01*
G37*
X211377000Y-97420000D02*
X208877000Y-97420000D01*
X208830000Y-97419000D01*
X208783000Y-97415000D01*
X208736000Y-97409000D01*
X208690000Y-97400000D01*
X208644000Y-97389000D01*
X208599000Y-97376000D01*
X208554000Y-97360000D01*
X208511000Y-97342000D01*
X208468000Y-97322000D01*
X208427000Y-97299000D01*
X208387000Y-97275000D01*
X208348000Y-97248000D01*
X208311000Y-97219000D01*
X208275000Y-97189000D01*
X208241000Y-97156000D01*
X208208000Y-97122000D01*
X208178000Y-97086000D01*
X208149000Y-97049000D01*
X208122000Y-97010000D01*
X208098000Y-96970000D01*
X208075000Y-96929000D01*
X208055000Y-96886000D01*
X208037000Y-96843000D01*
X208021000Y-96798000D01*
X208008000Y-96753000D01*
X207997000Y-96707000D01*
X207988000Y-96661000D01*
X207982000Y-96614000D01*
X207978000Y-96567000D01*
X207977000Y-96520000D01*
X207978000Y-96473000D01*
X207982000Y-96426000D01*
X207988000Y-96379000D01*
X207997000Y-96333000D01*
X208008000Y-96287000D01*
X208021000Y-96242000D01*
X208037000Y-96197000D01*
X208055000Y-96154000D01*
X208075000Y-96111000D01*
X208098000Y-96070000D01*
X208122000Y-96030000D01*
X208149000Y-95991000D01*
X208178000Y-95954000D01*
X208208000Y-95918000D01*
X208241000Y-95884000D01*
X208275000Y-95851000D01*
X208311000Y-95821000D01*
X208348000Y-95792000D01*
X208387000Y-95765000D01*
X208427000Y-95741000D01*
X208468000Y-95718000D01*
X208511000Y-95698000D01*
X208554000Y-95680000D01*
X208599000Y-95664000D01*
X208644000Y-95651000D01*
X208690000Y-95640000D01*
X208736000Y-95631000D01*
X208783000Y-95625000D01*
X208830000Y-95621000D01*
X208877000Y-95620000D01*
X211377000Y-95620000D01*
X211377000Y-97420000D01*
G36*
X211377000Y-97420000D02*
G01*
X208877000Y-97420000D01*
X208830000Y-97419000D01*
X208783000Y-97415000D01*
X208736000Y-97409000D01*
X208690000Y-97400000D01*
X208644000Y-97389000D01*
X208599000Y-97376000D01*
X208554000Y-97360000D01*
X208511000Y-97342000D01*
X208468000Y-97322000D01*
X208427000Y-97299000D01*
X208387000Y-97275000D01*
X208348000Y-97248000D01*
X208311000Y-97219000D01*
X208275000Y-97189000D01*
X208241000Y-97156000D01*
X208208000Y-97122000D01*
X208178000Y-97086000D01*
X208149000Y-97049000D01*
X208122000Y-97010000D01*
X208098000Y-96970000D01*
X208075000Y-96929000D01*
X208055000Y-96886000D01*
X208037000Y-96843000D01*
X208021000Y-96798000D01*
X208008000Y-96753000D01*
X207997000Y-96707000D01*
X207988000Y-96661000D01*
X207982000Y-96614000D01*
X207978000Y-96567000D01*
X207977000Y-96520000D01*
X207978000Y-96473000D01*
X207982000Y-96426000D01*
X207988000Y-96379000D01*
X207997000Y-96333000D01*
X208008000Y-96287000D01*
X208021000Y-96242000D01*
X208037000Y-96197000D01*
X208055000Y-96154000D01*
X208075000Y-96111000D01*
X208098000Y-96070000D01*
X208122000Y-96030000D01*
X208149000Y-95991000D01*
X208178000Y-95954000D01*
X208208000Y-95918000D01*
X208241000Y-95884000D01*
X208275000Y-95851000D01*
X208311000Y-95821000D01*
X208348000Y-95792000D01*
X208387000Y-95765000D01*
X208427000Y-95741000D01*
X208468000Y-95718000D01*
X208511000Y-95698000D01*
X208554000Y-95680000D01*
X208599000Y-95664000D01*
X208644000Y-95651000D01*
X208690000Y-95640000D01*
X208736000Y-95631000D01*
X208783000Y-95625000D01*
X208830000Y-95621000D01*
X208877000Y-95620000D01*
X211377000Y-95620000D01*
X211377000Y-97420000D01*
G37*
X211377000Y-94880000D02*
X208877000Y-94880000D01*
X208830000Y-94879000D01*
X208783000Y-94875000D01*
X208736000Y-94869000D01*
X208690000Y-94860000D01*
X208644000Y-94849000D01*
X208599000Y-94836000D01*
X208554000Y-94820000D01*
X208511000Y-94802000D01*
X208468000Y-94782000D01*
X208427000Y-94759000D01*
X208387000Y-94735000D01*
X208348000Y-94708000D01*
X208311000Y-94679000D01*
X208275000Y-94649000D01*
X208241000Y-94616000D01*
X208208000Y-94582000D01*
X208178000Y-94546000D01*
X208149000Y-94509000D01*
X208122000Y-94470000D01*
X208098000Y-94430000D01*
X208075000Y-94389000D01*
X208055000Y-94346000D01*
X208037000Y-94303000D01*
X208021000Y-94258000D01*
X208008000Y-94213000D01*
X207997000Y-94167000D01*
X207988000Y-94121000D01*
X207982000Y-94074000D01*
X207978000Y-94027000D01*
X207977000Y-93980000D01*
X207978000Y-93933000D01*
X207982000Y-93886000D01*
X207988000Y-93839000D01*
X207997000Y-93793000D01*
X208008000Y-93747000D01*
X208021000Y-93702000D01*
X208037000Y-93657000D01*
X208055000Y-93614000D01*
X208075000Y-93571000D01*
X208098000Y-93530000D01*
X208122000Y-93490000D01*
X208149000Y-93451000D01*
X208178000Y-93414000D01*
X208208000Y-93378000D01*
X208241000Y-93344000D01*
X208275000Y-93311000D01*
X208311000Y-93281000D01*
X208348000Y-93252000D01*
X208387000Y-93225000D01*
X208427000Y-93201000D01*
X208468000Y-93178000D01*
X208511000Y-93158000D01*
X208554000Y-93140000D01*
X208599000Y-93124000D01*
X208644000Y-93111000D01*
X208690000Y-93100000D01*
X208736000Y-93091000D01*
X208783000Y-93085000D01*
X208830000Y-93081000D01*
X208877000Y-93080000D01*
X211377000Y-93080000D01*
X211377000Y-94880000D01*
G36*
X211377000Y-94880000D02*
G01*
X208877000Y-94880000D01*
X208830000Y-94879000D01*
X208783000Y-94875000D01*
X208736000Y-94869000D01*
X208690000Y-94860000D01*
X208644000Y-94849000D01*
X208599000Y-94836000D01*
X208554000Y-94820000D01*
X208511000Y-94802000D01*
X208468000Y-94782000D01*
X208427000Y-94759000D01*
X208387000Y-94735000D01*
X208348000Y-94708000D01*
X208311000Y-94679000D01*
X208275000Y-94649000D01*
X208241000Y-94616000D01*
X208208000Y-94582000D01*
X208178000Y-94546000D01*
X208149000Y-94509000D01*
X208122000Y-94470000D01*
X208098000Y-94430000D01*
X208075000Y-94389000D01*
X208055000Y-94346000D01*
X208037000Y-94303000D01*
X208021000Y-94258000D01*
X208008000Y-94213000D01*
X207997000Y-94167000D01*
X207988000Y-94121000D01*
X207982000Y-94074000D01*
X207978000Y-94027000D01*
X207977000Y-93980000D01*
X207978000Y-93933000D01*
X207982000Y-93886000D01*
X207988000Y-93839000D01*
X207997000Y-93793000D01*
X208008000Y-93747000D01*
X208021000Y-93702000D01*
X208037000Y-93657000D01*
X208055000Y-93614000D01*
X208075000Y-93571000D01*
X208098000Y-93530000D01*
X208122000Y-93490000D01*
X208149000Y-93451000D01*
X208178000Y-93414000D01*
X208208000Y-93378000D01*
X208241000Y-93344000D01*
X208275000Y-93311000D01*
X208311000Y-93281000D01*
X208348000Y-93252000D01*
X208387000Y-93225000D01*
X208427000Y-93201000D01*
X208468000Y-93178000D01*
X208511000Y-93158000D01*
X208554000Y-93140000D01*
X208599000Y-93124000D01*
X208644000Y-93111000D01*
X208690000Y-93100000D01*
X208736000Y-93091000D01*
X208783000Y-93085000D01*
X208830000Y-93081000D01*
X208877000Y-93080000D01*
X211377000Y-93080000D01*
X211377000Y-94880000D01*
G37*
X211377000Y-92340000D02*
X208877000Y-92340000D01*
X208830000Y-92339000D01*
X208783000Y-92335000D01*
X208736000Y-92329000D01*
X208690000Y-92320000D01*
X208644000Y-92309000D01*
X208599000Y-92296000D01*
X208554000Y-92280000D01*
X208511000Y-92262000D01*
X208468000Y-92242000D01*
X208427000Y-92219000D01*
X208387000Y-92195000D01*
X208348000Y-92168000D01*
X208311000Y-92139000D01*
X208275000Y-92109000D01*
X208241000Y-92076000D01*
X208208000Y-92042000D01*
X208178000Y-92006000D01*
X208149000Y-91969000D01*
X208122000Y-91930000D01*
X208098000Y-91890000D01*
X208075000Y-91849000D01*
X208055000Y-91806000D01*
X208037000Y-91763000D01*
X208021000Y-91718000D01*
X208008000Y-91673000D01*
X207997000Y-91627000D01*
X207988000Y-91581000D01*
X207982000Y-91534000D01*
X207978000Y-91487000D01*
X207977000Y-91440000D01*
X207978000Y-91393000D01*
X207982000Y-91346000D01*
X207988000Y-91299000D01*
X207997000Y-91253000D01*
X208008000Y-91207000D01*
X208021000Y-91162000D01*
X208037000Y-91117000D01*
X208055000Y-91074000D01*
X208075000Y-91031000D01*
X208098000Y-90990000D01*
X208122000Y-90950000D01*
X208149000Y-90911000D01*
X208178000Y-90874000D01*
X208208000Y-90838000D01*
X208241000Y-90804000D01*
X208275000Y-90771000D01*
X208311000Y-90741000D01*
X208348000Y-90712000D01*
X208387000Y-90685000D01*
X208427000Y-90661000D01*
X208468000Y-90638000D01*
X208511000Y-90618000D01*
X208554000Y-90600000D01*
X208599000Y-90584000D01*
X208644000Y-90571000D01*
X208690000Y-90560000D01*
X208736000Y-90551000D01*
X208783000Y-90545000D01*
X208830000Y-90541000D01*
X208877000Y-90540000D01*
X211377000Y-90540000D01*
X211377000Y-92340000D01*
G36*
X211377000Y-92340000D02*
G01*
X208877000Y-92340000D01*
X208830000Y-92339000D01*
X208783000Y-92335000D01*
X208736000Y-92329000D01*
X208690000Y-92320000D01*
X208644000Y-92309000D01*
X208599000Y-92296000D01*
X208554000Y-92280000D01*
X208511000Y-92262000D01*
X208468000Y-92242000D01*
X208427000Y-92219000D01*
X208387000Y-92195000D01*
X208348000Y-92168000D01*
X208311000Y-92139000D01*
X208275000Y-92109000D01*
X208241000Y-92076000D01*
X208208000Y-92042000D01*
X208178000Y-92006000D01*
X208149000Y-91969000D01*
X208122000Y-91930000D01*
X208098000Y-91890000D01*
X208075000Y-91849000D01*
X208055000Y-91806000D01*
X208037000Y-91763000D01*
X208021000Y-91718000D01*
X208008000Y-91673000D01*
X207997000Y-91627000D01*
X207988000Y-91581000D01*
X207982000Y-91534000D01*
X207978000Y-91487000D01*
X207977000Y-91440000D01*
X207978000Y-91393000D01*
X207982000Y-91346000D01*
X207988000Y-91299000D01*
X207997000Y-91253000D01*
X208008000Y-91207000D01*
X208021000Y-91162000D01*
X208037000Y-91117000D01*
X208055000Y-91074000D01*
X208075000Y-91031000D01*
X208098000Y-90990000D01*
X208122000Y-90950000D01*
X208149000Y-90911000D01*
X208178000Y-90874000D01*
X208208000Y-90838000D01*
X208241000Y-90804000D01*
X208275000Y-90771000D01*
X208311000Y-90741000D01*
X208348000Y-90712000D01*
X208387000Y-90685000D01*
X208427000Y-90661000D01*
X208468000Y-90638000D01*
X208511000Y-90618000D01*
X208554000Y-90600000D01*
X208599000Y-90584000D01*
X208644000Y-90571000D01*
X208690000Y-90560000D01*
X208736000Y-90551000D01*
X208783000Y-90545000D01*
X208830000Y-90541000D01*
X208877000Y-90540000D01*
X211377000Y-90540000D01*
X211377000Y-92340000D01*
G37*
X211377000Y-89800000D02*
X208877000Y-89800000D01*
X208830000Y-89799000D01*
X208783000Y-89795000D01*
X208736000Y-89789000D01*
X208690000Y-89780000D01*
X208644000Y-89769000D01*
X208599000Y-89756000D01*
X208554000Y-89740000D01*
X208511000Y-89722000D01*
X208468000Y-89702000D01*
X208427000Y-89679000D01*
X208387000Y-89655000D01*
X208348000Y-89628000D01*
X208311000Y-89599000D01*
X208275000Y-89569000D01*
X208241000Y-89536000D01*
X208208000Y-89502000D01*
X208178000Y-89466000D01*
X208149000Y-89429000D01*
X208122000Y-89390000D01*
X208098000Y-89350000D01*
X208075000Y-89309000D01*
X208055000Y-89266000D01*
X208037000Y-89223000D01*
X208021000Y-89178000D01*
X208008000Y-89133000D01*
X207997000Y-89087000D01*
X207988000Y-89041000D01*
X207982000Y-88994000D01*
X207978000Y-88947000D01*
X207977000Y-88900000D01*
X207978000Y-88853000D01*
X207982000Y-88806000D01*
X207988000Y-88759000D01*
X207997000Y-88713000D01*
X208008000Y-88667000D01*
X208021000Y-88622000D01*
X208037000Y-88577000D01*
X208055000Y-88534000D01*
X208075000Y-88491000D01*
X208098000Y-88450000D01*
X208122000Y-88410000D01*
X208149000Y-88371000D01*
X208178000Y-88334000D01*
X208208000Y-88298000D01*
X208241000Y-88264000D01*
X208275000Y-88231000D01*
X208311000Y-88201000D01*
X208348000Y-88172000D01*
X208387000Y-88145000D01*
X208427000Y-88121000D01*
X208468000Y-88098000D01*
X208511000Y-88078000D01*
X208554000Y-88060000D01*
X208599000Y-88044000D01*
X208644000Y-88031000D01*
X208690000Y-88020000D01*
X208736000Y-88011000D01*
X208783000Y-88005000D01*
X208830000Y-88001000D01*
X208877000Y-88000000D01*
X211377000Y-88000000D01*
X211377000Y-89800000D01*
G36*
X211377000Y-89800000D02*
G01*
X208877000Y-89800000D01*
X208830000Y-89799000D01*
X208783000Y-89795000D01*
X208736000Y-89789000D01*
X208690000Y-89780000D01*
X208644000Y-89769000D01*
X208599000Y-89756000D01*
X208554000Y-89740000D01*
X208511000Y-89722000D01*
X208468000Y-89702000D01*
X208427000Y-89679000D01*
X208387000Y-89655000D01*
X208348000Y-89628000D01*
X208311000Y-89599000D01*
X208275000Y-89569000D01*
X208241000Y-89536000D01*
X208208000Y-89502000D01*
X208178000Y-89466000D01*
X208149000Y-89429000D01*
X208122000Y-89390000D01*
X208098000Y-89350000D01*
X208075000Y-89309000D01*
X208055000Y-89266000D01*
X208037000Y-89223000D01*
X208021000Y-89178000D01*
X208008000Y-89133000D01*
X207997000Y-89087000D01*
X207988000Y-89041000D01*
X207982000Y-88994000D01*
X207978000Y-88947000D01*
X207977000Y-88900000D01*
X207978000Y-88853000D01*
X207982000Y-88806000D01*
X207988000Y-88759000D01*
X207997000Y-88713000D01*
X208008000Y-88667000D01*
X208021000Y-88622000D01*
X208037000Y-88577000D01*
X208055000Y-88534000D01*
X208075000Y-88491000D01*
X208098000Y-88450000D01*
X208122000Y-88410000D01*
X208149000Y-88371000D01*
X208178000Y-88334000D01*
X208208000Y-88298000D01*
X208241000Y-88264000D01*
X208275000Y-88231000D01*
X208311000Y-88201000D01*
X208348000Y-88172000D01*
X208387000Y-88145000D01*
X208427000Y-88121000D01*
X208468000Y-88098000D01*
X208511000Y-88078000D01*
X208554000Y-88060000D01*
X208599000Y-88044000D01*
X208644000Y-88031000D01*
X208690000Y-88020000D01*
X208736000Y-88011000D01*
X208783000Y-88005000D01*
X208830000Y-88001000D01*
X208877000Y-88000000D01*
X211377000Y-88000000D01*
X211377000Y-89800000D01*
G37*
X211377000Y-84720000D02*
X208877000Y-84720000D01*
X208830000Y-84719000D01*
X208783000Y-84715000D01*
X208736000Y-84709000D01*
X208690000Y-84700000D01*
X208644000Y-84689000D01*
X208599000Y-84676000D01*
X208554000Y-84660000D01*
X208511000Y-84642000D01*
X208468000Y-84622000D01*
X208427000Y-84599000D01*
X208387000Y-84575000D01*
X208348000Y-84548000D01*
X208311000Y-84519000D01*
X208275000Y-84489000D01*
X208241000Y-84456000D01*
X208208000Y-84422000D01*
X208178000Y-84386000D01*
X208149000Y-84349000D01*
X208122000Y-84310000D01*
X208098000Y-84270000D01*
X208075000Y-84229000D01*
X208055000Y-84186000D01*
X208037000Y-84143000D01*
X208021000Y-84098000D01*
X208008000Y-84053000D01*
X207997000Y-84007000D01*
X207988000Y-83961000D01*
X207982000Y-83914000D01*
X207978000Y-83867000D01*
X207977000Y-83820000D01*
X207978000Y-83773000D01*
X207982000Y-83726000D01*
X207988000Y-83679000D01*
X207997000Y-83633000D01*
X208008000Y-83587000D01*
X208021000Y-83542000D01*
X208037000Y-83497000D01*
X208055000Y-83454000D01*
X208075000Y-83411000D01*
X208098000Y-83370000D01*
X208122000Y-83330000D01*
X208149000Y-83291000D01*
X208178000Y-83254000D01*
X208208000Y-83218000D01*
X208241000Y-83184000D01*
X208275000Y-83151000D01*
X208311000Y-83121000D01*
X208348000Y-83092000D01*
X208387000Y-83065000D01*
X208427000Y-83041000D01*
X208468000Y-83018000D01*
X208511000Y-82998000D01*
X208554000Y-82980000D01*
X208599000Y-82964000D01*
X208644000Y-82951000D01*
X208690000Y-82940000D01*
X208736000Y-82931000D01*
X208783000Y-82925000D01*
X208830000Y-82921000D01*
X208877000Y-82920000D01*
X211377000Y-82920000D01*
X211377000Y-84720000D01*
G36*
X211377000Y-84720000D02*
G01*
X208877000Y-84720000D01*
X208830000Y-84719000D01*
X208783000Y-84715000D01*
X208736000Y-84709000D01*
X208690000Y-84700000D01*
X208644000Y-84689000D01*
X208599000Y-84676000D01*
X208554000Y-84660000D01*
X208511000Y-84642000D01*
X208468000Y-84622000D01*
X208427000Y-84599000D01*
X208387000Y-84575000D01*
X208348000Y-84548000D01*
X208311000Y-84519000D01*
X208275000Y-84489000D01*
X208241000Y-84456000D01*
X208208000Y-84422000D01*
X208178000Y-84386000D01*
X208149000Y-84349000D01*
X208122000Y-84310000D01*
X208098000Y-84270000D01*
X208075000Y-84229000D01*
X208055000Y-84186000D01*
X208037000Y-84143000D01*
X208021000Y-84098000D01*
X208008000Y-84053000D01*
X207997000Y-84007000D01*
X207988000Y-83961000D01*
X207982000Y-83914000D01*
X207978000Y-83867000D01*
X207977000Y-83820000D01*
X207978000Y-83773000D01*
X207982000Y-83726000D01*
X207988000Y-83679000D01*
X207997000Y-83633000D01*
X208008000Y-83587000D01*
X208021000Y-83542000D01*
X208037000Y-83497000D01*
X208055000Y-83454000D01*
X208075000Y-83411000D01*
X208098000Y-83370000D01*
X208122000Y-83330000D01*
X208149000Y-83291000D01*
X208178000Y-83254000D01*
X208208000Y-83218000D01*
X208241000Y-83184000D01*
X208275000Y-83151000D01*
X208311000Y-83121000D01*
X208348000Y-83092000D01*
X208387000Y-83065000D01*
X208427000Y-83041000D01*
X208468000Y-83018000D01*
X208511000Y-82998000D01*
X208554000Y-82980000D01*
X208599000Y-82964000D01*
X208644000Y-82951000D01*
X208690000Y-82940000D01*
X208736000Y-82931000D01*
X208783000Y-82925000D01*
X208830000Y-82921000D01*
X208877000Y-82920000D01*
X211377000Y-82920000D01*
X211377000Y-84720000D01*
G37*
X211377000Y-82180000D02*
X208877000Y-82180000D01*
X208830000Y-82179000D01*
X208783000Y-82175000D01*
X208736000Y-82169000D01*
X208690000Y-82160000D01*
X208644000Y-82149000D01*
X208599000Y-82136000D01*
X208554000Y-82120000D01*
X208511000Y-82102000D01*
X208468000Y-82082000D01*
X208427000Y-82059000D01*
X208387000Y-82035000D01*
X208348000Y-82008000D01*
X208311000Y-81979000D01*
X208275000Y-81949000D01*
X208241000Y-81916000D01*
X208208000Y-81882000D01*
X208178000Y-81846000D01*
X208149000Y-81809000D01*
X208122000Y-81770000D01*
X208098000Y-81730000D01*
X208075000Y-81689000D01*
X208055000Y-81646000D01*
X208037000Y-81603000D01*
X208021000Y-81558000D01*
X208008000Y-81513000D01*
X207997000Y-81467000D01*
X207988000Y-81421000D01*
X207982000Y-81374000D01*
X207978000Y-81327000D01*
X207977000Y-81280000D01*
X207978000Y-81233000D01*
X207982000Y-81186000D01*
X207988000Y-81139000D01*
X207997000Y-81093000D01*
X208008000Y-81047000D01*
X208021000Y-81002000D01*
X208037000Y-80957000D01*
X208055000Y-80914000D01*
X208075000Y-80871000D01*
X208098000Y-80830000D01*
X208122000Y-80790000D01*
X208149000Y-80751000D01*
X208178000Y-80714000D01*
X208208000Y-80678000D01*
X208241000Y-80644000D01*
X208275000Y-80611000D01*
X208311000Y-80581000D01*
X208348000Y-80552000D01*
X208387000Y-80525000D01*
X208427000Y-80501000D01*
X208468000Y-80478000D01*
X208511000Y-80458000D01*
X208554000Y-80440000D01*
X208599000Y-80424000D01*
X208644000Y-80411000D01*
X208690000Y-80400000D01*
X208736000Y-80391000D01*
X208783000Y-80385000D01*
X208830000Y-80381000D01*
X208877000Y-80380000D01*
X211377000Y-80380000D01*
X211377000Y-82180000D01*
G36*
X211377000Y-82180000D02*
G01*
X208877000Y-82180000D01*
X208830000Y-82179000D01*
X208783000Y-82175000D01*
X208736000Y-82169000D01*
X208690000Y-82160000D01*
X208644000Y-82149000D01*
X208599000Y-82136000D01*
X208554000Y-82120000D01*
X208511000Y-82102000D01*
X208468000Y-82082000D01*
X208427000Y-82059000D01*
X208387000Y-82035000D01*
X208348000Y-82008000D01*
X208311000Y-81979000D01*
X208275000Y-81949000D01*
X208241000Y-81916000D01*
X208208000Y-81882000D01*
X208178000Y-81846000D01*
X208149000Y-81809000D01*
X208122000Y-81770000D01*
X208098000Y-81730000D01*
X208075000Y-81689000D01*
X208055000Y-81646000D01*
X208037000Y-81603000D01*
X208021000Y-81558000D01*
X208008000Y-81513000D01*
X207997000Y-81467000D01*
X207988000Y-81421000D01*
X207982000Y-81374000D01*
X207978000Y-81327000D01*
X207977000Y-81280000D01*
X207978000Y-81233000D01*
X207982000Y-81186000D01*
X207988000Y-81139000D01*
X207997000Y-81093000D01*
X208008000Y-81047000D01*
X208021000Y-81002000D01*
X208037000Y-80957000D01*
X208055000Y-80914000D01*
X208075000Y-80871000D01*
X208098000Y-80830000D01*
X208122000Y-80790000D01*
X208149000Y-80751000D01*
X208178000Y-80714000D01*
X208208000Y-80678000D01*
X208241000Y-80644000D01*
X208275000Y-80611000D01*
X208311000Y-80581000D01*
X208348000Y-80552000D01*
X208387000Y-80525000D01*
X208427000Y-80501000D01*
X208468000Y-80478000D01*
X208511000Y-80458000D01*
X208554000Y-80440000D01*
X208599000Y-80424000D01*
X208644000Y-80411000D01*
X208690000Y-80400000D01*
X208736000Y-80391000D01*
X208783000Y-80385000D01*
X208830000Y-80381000D01*
X208877000Y-80380000D01*
X211377000Y-80380000D01*
X211377000Y-82180000D01*
G37*
X211377000Y-79640000D02*
X208877000Y-79640000D01*
X208830000Y-79639000D01*
X208783000Y-79635000D01*
X208736000Y-79629000D01*
X208690000Y-79620000D01*
X208644000Y-79609000D01*
X208599000Y-79596000D01*
X208554000Y-79580000D01*
X208511000Y-79562000D01*
X208468000Y-79542000D01*
X208427000Y-79519000D01*
X208387000Y-79495000D01*
X208348000Y-79468000D01*
X208311000Y-79439000D01*
X208275000Y-79409000D01*
X208241000Y-79376000D01*
X208208000Y-79342000D01*
X208178000Y-79306000D01*
X208149000Y-79269000D01*
X208122000Y-79230000D01*
X208098000Y-79190000D01*
X208075000Y-79149000D01*
X208055000Y-79106000D01*
X208037000Y-79063000D01*
X208021000Y-79018000D01*
X208008000Y-78973000D01*
X207997000Y-78927000D01*
X207988000Y-78881000D01*
X207982000Y-78834000D01*
X207978000Y-78787000D01*
X207977000Y-78740000D01*
X207978000Y-78693000D01*
X207982000Y-78646000D01*
X207988000Y-78599000D01*
X207997000Y-78553000D01*
X208008000Y-78507000D01*
X208021000Y-78462000D01*
X208037000Y-78417000D01*
X208055000Y-78374000D01*
X208075000Y-78331000D01*
X208098000Y-78290000D01*
X208122000Y-78250000D01*
X208149000Y-78211000D01*
X208178000Y-78174000D01*
X208208000Y-78138000D01*
X208241000Y-78104000D01*
X208275000Y-78071000D01*
X208311000Y-78041000D01*
X208348000Y-78012000D01*
X208387000Y-77985000D01*
X208427000Y-77961000D01*
X208468000Y-77938000D01*
X208511000Y-77918000D01*
X208554000Y-77900000D01*
X208599000Y-77884000D01*
X208644000Y-77871000D01*
X208690000Y-77860000D01*
X208736000Y-77851000D01*
X208783000Y-77845000D01*
X208830000Y-77841000D01*
X208877000Y-77840000D01*
X211377000Y-77840000D01*
X211377000Y-79640000D01*
G36*
X211377000Y-79640000D02*
G01*
X208877000Y-79640000D01*
X208830000Y-79639000D01*
X208783000Y-79635000D01*
X208736000Y-79629000D01*
X208690000Y-79620000D01*
X208644000Y-79609000D01*
X208599000Y-79596000D01*
X208554000Y-79580000D01*
X208511000Y-79562000D01*
X208468000Y-79542000D01*
X208427000Y-79519000D01*
X208387000Y-79495000D01*
X208348000Y-79468000D01*
X208311000Y-79439000D01*
X208275000Y-79409000D01*
X208241000Y-79376000D01*
X208208000Y-79342000D01*
X208178000Y-79306000D01*
X208149000Y-79269000D01*
X208122000Y-79230000D01*
X208098000Y-79190000D01*
X208075000Y-79149000D01*
X208055000Y-79106000D01*
X208037000Y-79063000D01*
X208021000Y-79018000D01*
X208008000Y-78973000D01*
X207997000Y-78927000D01*
X207988000Y-78881000D01*
X207982000Y-78834000D01*
X207978000Y-78787000D01*
X207977000Y-78740000D01*
X207978000Y-78693000D01*
X207982000Y-78646000D01*
X207988000Y-78599000D01*
X207997000Y-78553000D01*
X208008000Y-78507000D01*
X208021000Y-78462000D01*
X208037000Y-78417000D01*
X208055000Y-78374000D01*
X208075000Y-78331000D01*
X208098000Y-78290000D01*
X208122000Y-78250000D01*
X208149000Y-78211000D01*
X208178000Y-78174000D01*
X208208000Y-78138000D01*
X208241000Y-78104000D01*
X208275000Y-78071000D01*
X208311000Y-78041000D01*
X208348000Y-78012000D01*
X208387000Y-77985000D01*
X208427000Y-77961000D01*
X208468000Y-77938000D01*
X208511000Y-77918000D01*
X208554000Y-77900000D01*
X208599000Y-77884000D01*
X208644000Y-77871000D01*
X208690000Y-77860000D01*
X208736000Y-77851000D01*
X208783000Y-77845000D01*
X208830000Y-77841000D01*
X208877000Y-77840000D01*
X211377000Y-77840000D01*
X211377000Y-79640000D01*
G37*
X211377000Y-77100000D02*
X208877000Y-77100000D01*
X208830000Y-77099000D01*
X208783000Y-77095000D01*
X208736000Y-77089000D01*
X208690000Y-77080000D01*
X208644000Y-77069000D01*
X208599000Y-77056000D01*
X208554000Y-77040000D01*
X208511000Y-77022000D01*
X208468000Y-77002000D01*
X208427000Y-76979000D01*
X208387000Y-76955000D01*
X208348000Y-76928000D01*
X208311000Y-76899000D01*
X208275000Y-76869000D01*
X208241000Y-76836000D01*
X208208000Y-76802000D01*
X208178000Y-76766000D01*
X208149000Y-76729000D01*
X208122000Y-76690000D01*
X208098000Y-76650000D01*
X208075000Y-76609000D01*
X208055000Y-76566000D01*
X208037000Y-76523000D01*
X208021000Y-76478000D01*
X208008000Y-76433000D01*
X207997000Y-76387000D01*
X207988000Y-76341000D01*
X207982000Y-76294000D01*
X207978000Y-76247000D01*
X207977000Y-76200000D01*
X207978000Y-76153000D01*
X207982000Y-76106000D01*
X207988000Y-76059000D01*
X207997000Y-76013000D01*
X208008000Y-75967000D01*
X208021000Y-75922000D01*
X208037000Y-75877000D01*
X208055000Y-75834000D01*
X208075000Y-75791000D01*
X208098000Y-75750000D01*
X208122000Y-75710000D01*
X208149000Y-75671000D01*
X208178000Y-75634000D01*
X208208000Y-75598000D01*
X208241000Y-75564000D01*
X208275000Y-75531000D01*
X208311000Y-75501000D01*
X208348000Y-75472000D01*
X208387000Y-75445000D01*
X208427000Y-75421000D01*
X208468000Y-75398000D01*
X208511000Y-75378000D01*
X208554000Y-75360000D01*
X208599000Y-75344000D01*
X208644000Y-75331000D01*
X208690000Y-75320000D01*
X208736000Y-75311000D01*
X208783000Y-75305000D01*
X208830000Y-75301000D01*
X208877000Y-75300000D01*
X211377000Y-75300000D01*
X211377000Y-77100000D01*
G36*
X211377000Y-77100000D02*
G01*
X208877000Y-77100000D01*
X208830000Y-77099000D01*
X208783000Y-77095000D01*
X208736000Y-77089000D01*
X208690000Y-77080000D01*
X208644000Y-77069000D01*
X208599000Y-77056000D01*
X208554000Y-77040000D01*
X208511000Y-77022000D01*
X208468000Y-77002000D01*
X208427000Y-76979000D01*
X208387000Y-76955000D01*
X208348000Y-76928000D01*
X208311000Y-76899000D01*
X208275000Y-76869000D01*
X208241000Y-76836000D01*
X208208000Y-76802000D01*
X208178000Y-76766000D01*
X208149000Y-76729000D01*
X208122000Y-76690000D01*
X208098000Y-76650000D01*
X208075000Y-76609000D01*
X208055000Y-76566000D01*
X208037000Y-76523000D01*
X208021000Y-76478000D01*
X208008000Y-76433000D01*
X207997000Y-76387000D01*
X207988000Y-76341000D01*
X207982000Y-76294000D01*
X207978000Y-76247000D01*
X207977000Y-76200000D01*
X207978000Y-76153000D01*
X207982000Y-76106000D01*
X207988000Y-76059000D01*
X207997000Y-76013000D01*
X208008000Y-75967000D01*
X208021000Y-75922000D01*
X208037000Y-75877000D01*
X208055000Y-75834000D01*
X208075000Y-75791000D01*
X208098000Y-75750000D01*
X208122000Y-75710000D01*
X208149000Y-75671000D01*
X208178000Y-75634000D01*
X208208000Y-75598000D01*
X208241000Y-75564000D01*
X208275000Y-75531000D01*
X208311000Y-75501000D01*
X208348000Y-75472000D01*
X208387000Y-75445000D01*
X208427000Y-75421000D01*
X208468000Y-75398000D01*
X208511000Y-75378000D01*
X208554000Y-75360000D01*
X208599000Y-75344000D01*
X208644000Y-75331000D01*
X208690000Y-75320000D01*
X208736000Y-75311000D01*
X208783000Y-75305000D01*
X208830000Y-75301000D01*
X208877000Y-75300000D01*
X211377000Y-75300000D01*
X211377000Y-77100000D01*
G37*
X211377000Y-72020000D02*
X208877000Y-72020000D01*
X208830000Y-72019000D01*
X208783000Y-72015000D01*
X208736000Y-72009000D01*
X208690000Y-72000000D01*
X208644000Y-71989000D01*
X208599000Y-71976000D01*
X208554000Y-71960000D01*
X208511000Y-71942000D01*
X208468000Y-71922000D01*
X208427000Y-71899000D01*
X208387000Y-71875000D01*
X208348000Y-71848000D01*
X208311000Y-71819000D01*
X208275000Y-71789000D01*
X208241000Y-71756000D01*
X208208000Y-71722000D01*
X208178000Y-71686000D01*
X208149000Y-71649000D01*
X208122000Y-71610000D01*
X208098000Y-71570000D01*
X208075000Y-71529000D01*
X208055000Y-71486000D01*
X208037000Y-71443000D01*
X208021000Y-71398000D01*
X208008000Y-71353000D01*
X207997000Y-71307000D01*
X207988000Y-71261000D01*
X207982000Y-71214000D01*
X207978000Y-71167000D01*
X207977000Y-71120000D01*
X207978000Y-71073000D01*
X207982000Y-71026000D01*
X207988000Y-70979000D01*
X207997000Y-70933000D01*
X208008000Y-70887000D01*
X208021000Y-70842000D01*
X208037000Y-70797000D01*
X208055000Y-70754000D01*
X208075000Y-70711000D01*
X208098000Y-70670000D01*
X208122000Y-70630000D01*
X208149000Y-70591000D01*
X208178000Y-70554000D01*
X208208000Y-70518000D01*
X208241000Y-70484000D01*
X208275000Y-70451000D01*
X208311000Y-70421000D01*
X208348000Y-70392000D01*
X208387000Y-70365000D01*
X208427000Y-70341000D01*
X208468000Y-70318000D01*
X208511000Y-70298000D01*
X208554000Y-70280000D01*
X208599000Y-70264000D01*
X208644000Y-70251000D01*
X208690000Y-70240000D01*
X208736000Y-70231000D01*
X208783000Y-70225000D01*
X208830000Y-70221000D01*
X208877000Y-70220000D01*
X211377000Y-70220000D01*
X211377000Y-72020000D01*
G36*
X211377000Y-72020000D02*
G01*
X208877000Y-72020000D01*
X208830000Y-72019000D01*
X208783000Y-72015000D01*
X208736000Y-72009000D01*
X208690000Y-72000000D01*
X208644000Y-71989000D01*
X208599000Y-71976000D01*
X208554000Y-71960000D01*
X208511000Y-71942000D01*
X208468000Y-71922000D01*
X208427000Y-71899000D01*
X208387000Y-71875000D01*
X208348000Y-71848000D01*
X208311000Y-71819000D01*
X208275000Y-71789000D01*
X208241000Y-71756000D01*
X208208000Y-71722000D01*
X208178000Y-71686000D01*
X208149000Y-71649000D01*
X208122000Y-71610000D01*
X208098000Y-71570000D01*
X208075000Y-71529000D01*
X208055000Y-71486000D01*
X208037000Y-71443000D01*
X208021000Y-71398000D01*
X208008000Y-71353000D01*
X207997000Y-71307000D01*
X207988000Y-71261000D01*
X207982000Y-71214000D01*
X207978000Y-71167000D01*
X207977000Y-71120000D01*
X207978000Y-71073000D01*
X207982000Y-71026000D01*
X207988000Y-70979000D01*
X207997000Y-70933000D01*
X208008000Y-70887000D01*
X208021000Y-70842000D01*
X208037000Y-70797000D01*
X208055000Y-70754000D01*
X208075000Y-70711000D01*
X208098000Y-70670000D01*
X208122000Y-70630000D01*
X208149000Y-70591000D01*
X208178000Y-70554000D01*
X208208000Y-70518000D01*
X208241000Y-70484000D01*
X208275000Y-70451000D01*
X208311000Y-70421000D01*
X208348000Y-70392000D01*
X208387000Y-70365000D01*
X208427000Y-70341000D01*
X208468000Y-70318000D01*
X208511000Y-70298000D01*
X208554000Y-70280000D01*
X208599000Y-70264000D01*
X208644000Y-70251000D01*
X208690000Y-70240000D01*
X208736000Y-70231000D01*
X208783000Y-70225000D01*
X208830000Y-70221000D01*
X208877000Y-70220000D01*
X211377000Y-70220000D01*
X211377000Y-72020000D01*
G37*
X211377000Y-69480000D02*
X208877000Y-69480000D01*
X208830000Y-69479000D01*
X208783000Y-69475000D01*
X208736000Y-69469000D01*
X208690000Y-69460000D01*
X208644000Y-69449000D01*
X208599000Y-69436000D01*
X208554000Y-69420000D01*
X208511000Y-69402000D01*
X208468000Y-69382000D01*
X208427000Y-69359000D01*
X208387000Y-69335000D01*
X208348000Y-69308000D01*
X208311000Y-69279000D01*
X208275000Y-69249000D01*
X208241000Y-69216000D01*
X208208000Y-69182000D01*
X208178000Y-69146000D01*
X208149000Y-69109000D01*
X208122000Y-69070000D01*
X208098000Y-69030000D01*
X208075000Y-68989000D01*
X208055000Y-68946000D01*
X208037000Y-68903000D01*
X208021000Y-68858000D01*
X208008000Y-68813000D01*
X207997000Y-68767000D01*
X207988000Y-68721000D01*
X207982000Y-68674000D01*
X207978000Y-68627000D01*
X207977000Y-68580000D01*
X207978000Y-68533000D01*
X207982000Y-68486000D01*
X207988000Y-68439000D01*
X207997000Y-68393000D01*
X208008000Y-68347000D01*
X208021000Y-68302000D01*
X208037000Y-68257000D01*
X208055000Y-68214000D01*
X208075000Y-68171000D01*
X208098000Y-68130000D01*
X208122000Y-68090000D01*
X208149000Y-68051000D01*
X208178000Y-68014000D01*
X208208000Y-67978000D01*
X208241000Y-67944000D01*
X208275000Y-67911000D01*
X208311000Y-67881000D01*
X208348000Y-67852000D01*
X208387000Y-67825000D01*
X208427000Y-67801000D01*
X208468000Y-67778000D01*
X208511000Y-67758000D01*
X208554000Y-67740000D01*
X208599000Y-67724000D01*
X208644000Y-67711000D01*
X208690000Y-67700000D01*
X208736000Y-67691000D01*
X208783000Y-67685000D01*
X208830000Y-67681000D01*
X208877000Y-67680000D01*
X211377000Y-67680000D01*
X211377000Y-69480000D01*
G36*
X211377000Y-69480000D02*
G01*
X208877000Y-69480000D01*
X208830000Y-69479000D01*
X208783000Y-69475000D01*
X208736000Y-69469000D01*
X208690000Y-69460000D01*
X208644000Y-69449000D01*
X208599000Y-69436000D01*
X208554000Y-69420000D01*
X208511000Y-69402000D01*
X208468000Y-69382000D01*
X208427000Y-69359000D01*
X208387000Y-69335000D01*
X208348000Y-69308000D01*
X208311000Y-69279000D01*
X208275000Y-69249000D01*
X208241000Y-69216000D01*
X208208000Y-69182000D01*
X208178000Y-69146000D01*
X208149000Y-69109000D01*
X208122000Y-69070000D01*
X208098000Y-69030000D01*
X208075000Y-68989000D01*
X208055000Y-68946000D01*
X208037000Y-68903000D01*
X208021000Y-68858000D01*
X208008000Y-68813000D01*
X207997000Y-68767000D01*
X207988000Y-68721000D01*
X207982000Y-68674000D01*
X207978000Y-68627000D01*
X207977000Y-68580000D01*
X207978000Y-68533000D01*
X207982000Y-68486000D01*
X207988000Y-68439000D01*
X207997000Y-68393000D01*
X208008000Y-68347000D01*
X208021000Y-68302000D01*
X208037000Y-68257000D01*
X208055000Y-68214000D01*
X208075000Y-68171000D01*
X208098000Y-68130000D01*
X208122000Y-68090000D01*
X208149000Y-68051000D01*
X208178000Y-68014000D01*
X208208000Y-67978000D01*
X208241000Y-67944000D01*
X208275000Y-67911000D01*
X208311000Y-67881000D01*
X208348000Y-67852000D01*
X208387000Y-67825000D01*
X208427000Y-67801000D01*
X208468000Y-67778000D01*
X208511000Y-67758000D01*
X208554000Y-67740000D01*
X208599000Y-67724000D01*
X208644000Y-67711000D01*
X208690000Y-67700000D01*
X208736000Y-67691000D01*
X208783000Y-67685000D01*
X208830000Y-67681000D01*
X208877000Y-67680000D01*
X211377000Y-67680000D01*
X211377000Y-69480000D01*
G37*
X211377000Y-66940000D02*
X208877000Y-66940000D01*
X208830000Y-66939000D01*
X208783000Y-66935000D01*
X208736000Y-66929000D01*
X208690000Y-66920000D01*
X208644000Y-66909000D01*
X208599000Y-66896000D01*
X208554000Y-66880000D01*
X208511000Y-66862000D01*
X208468000Y-66842000D01*
X208427000Y-66819000D01*
X208387000Y-66795000D01*
X208348000Y-66768000D01*
X208311000Y-66739000D01*
X208275000Y-66709000D01*
X208241000Y-66676000D01*
X208208000Y-66642000D01*
X208178000Y-66606000D01*
X208149000Y-66569000D01*
X208122000Y-66530000D01*
X208098000Y-66490000D01*
X208075000Y-66449000D01*
X208055000Y-66406000D01*
X208037000Y-66363000D01*
X208021000Y-66318000D01*
X208008000Y-66273000D01*
X207997000Y-66227000D01*
X207988000Y-66181000D01*
X207982000Y-66134000D01*
X207978000Y-66087000D01*
X207977000Y-66040000D01*
X207978000Y-65993000D01*
X207982000Y-65946000D01*
X207988000Y-65899000D01*
X207997000Y-65853000D01*
X208008000Y-65807000D01*
X208021000Y-65762000D01*
X208037000Y-65717000D01*
X208055000Y-65674000D01*
X208075000Y-65631000D01*
X208098000Y-65590000D01*
X208122000Y-65550000D01*
X208149000Y-65511000D01*
X208178000Y-65474000D01*
X208208000Y-65438000D01*
X208241000Y-65404000D01*
X208275000Y-65371000D01*
X208311000Y-65341000D01*
X208348000Y-65312000D01*
X208387000Y-65285000D01*
X208427000Y-65261000D01*
X208468000Y-65238000D01*
X208511000Y-65218000D01*
X208554000Y-65200000D01*
X208599000Y-65184000D01*
X208644000Y-65171000D01*
X208690000Y-65160000D01*
X208736000Y-65151000D01*
X208783000Y-65145000D01*
X208830000Y-65141000D01*
X208877000Y-65140000D01*
X211377000Y-65140000D01*
X211377000Y-66940000D01*
G36*
X211377000Y-66940000D02*
G01*
X208877000Y-66940000D01*
X208830000Y-66939000D01*
X208783000Y-66935000D01*
X208736000Y-66929000D01*
X208690000Y-66920000D01*
X208644000Y-66909000D01*
X208599000Y-66896000D01*
X208554000Y-66880000D01*
X208511000Y-66862000D01*
X208468000Y-66842000D01*
X208427000Y-66819000D01*
X208387000Y-66795000D01*
X208348000Y-66768000D01*
X208311000Y-66739000D01*
X208275000Y-66709000D01*
X208241000Y-66676000D01*
X208208000Y-66642000D01*
X208178000Y-66606000D01*
X208149000Y-66569000D01*
X208122000Y-66530000D01*
X208098000Y-66490000D01*
X208075000Y-66449000D01*
X208055000Y-66406000D01*
X208037000Y-66363000D01*
X208021000Y-66318000D01*
X208008000Y-66273000D01*
X207997000Y-66227000D01*
X207988000Y-66181000D01*
X207982000Y-66134000D01*
X207978000Y-66087000D01*
X207977000Y-66040000D01*
X207978000Y-65993000D01*
X207982000Y-65946000D01*
X207988000Y-65899000D01*
X207997000Y-65853000D01*
X208008000Y-65807000D01*
X208021000Y-65762000D01*
X208037000Y-65717000D01*
X208055000Y-65674000D01*
X208075000Y-65631000D01*
X208098000Y-65590000D01*
X208122000Y-65550000D01*
X208149000Y-65511000D01*
X208178000Y-65474000D01*
X208208000Y-65438000D01*
X208241000Y-65404000D01*
X208275000Y-65371000D01*
X208311000Y-65341000D01*
X208348000Y-65312000D01*
X208387000Y-65285000D01*
X208427000Y-65261000D01*
X208468000Y-65238000D01*
X208511000Y-65218000D01*
X208554000Y-65200000D01*
X208599000Y-65184000D01*
X208644000Y-65171000D01*
X208690000Y-65160000D01*
X208736000Y-65151000D01*
X208783000Y-65145000D01*
X208830000Y-65141000D01*
X208877000Y-65140000D01*
X211377000Y-65140000D01*
X211377000Y-66940000D01*
G37*
X211377000Y-64400000D02*
X208877000Y-64400000D01*
X208830000Y-64399000D01*
X208783000Y-64395000D01*
X208736000Y-64389000D01*
X208690000Y-64380000D01*
X208644000Y-64369000D01*
X208599000Y-64356000D01*
X208554000Y-64340000D01*
X208511000Y-64322000D01*
X208468000Y-64302000D01*
X208427000Y-64279000D01*
X208387000Y-64255000D01*
X208348000Y-64228000D01*
X208311000Y-64199000D01*
X208275000Y-64169000D01*
X208241000Y-64136000D01*
X208208000Y-64102000D01*
X208178000Y-64066000D01*
X208149000Y-64029000D01*
X208122000Y-63990000D01*
X208098000Y-63950000D01*
X208075000Y-63909000D01*
X208055000Y-63866000D01*
X208037000Y-63823000D01*
X208021000Y-63778000D01*
X208008000Y-63733000D01*
X207997000Y-63687000D01*
X207988000Y-63641000D01*
X207982000Y-63594000D01*
X207978000Y-63547000D01*
X207977000Y-63500000D01*
X207978000Y-63453000D01*
X207982000Y-63406000D01*
X207988000Y-63359000D01*
X207997000Y-63313000D01*
X208008000Y-63267000D01*
X208021000Y-63222000D01*
X208037000Y-63177000D01*
X208055000Y-63134000D01*
X208075000Y-63091000D01*
X208098000Y-63050000D01*
X208122000Y-63010000D01*
X208149000Y-62971000D01*
X208178000Y-62934000D01*
X208208000Y-62898000D01*
X208241000Y-62864000D01*
X208275000Y-62831000D01*
X208311000Y-62801000D01*
X208348000Y-62772000D01*
X208387000Y-62745000D01*
X208427000Y-62721000D01*
X208468000Y-62698000D01*
X208511000Y-62678000D01*
X208554000Y-62660000D01*
X208599000Y-62644000D01*
X208644000Y-62631000D01*
X208690000Y-62620000D01*
X208736000Y-62611000D01*
X208783000Y-62605000D01*
X208830000Y-62601000D01*
X208877000Y-62600000D01*
X211377000Y-62600000D01*
X211377000Y-64400000D01*
G36*
X211377000Y-64400000D02*
G01*
X208877000Y-64400000D01*
X208830000Y-64399000D01*
X208783000Y-64395000D01*
X208736000Y-64389000D01*
X208690000Y-64380000D01*
X208644000Y-64369000D01*
X208599000Y-64356000D01*
X208554000Y-64340000D01*
X208511000Y-64322000D01*
X208468000Y-64302000D01*
X208427000Y-64279000D01*
X208387000Y-64255000D01*
X208348000Y-64228000D01*
X208311000Y-64199000D01*
X208275000Y-64169000D01*
X208241000Y-64136000D01*
X208208000Y-64102000D01*
X208178000Y-64066000D01*
X208149000Y-64029000D01*
X208122000Y-63990000D01*
X208098000Y-63950000D01*
X208075000Y-63909000D01*
X208055000Y-63866000D01*
X208037000Y-63823000D01*
X208021000Y-63778000D01*
X208008000Y-63733000D01*
X207997000Y-63687000D01*
X207988000Y-63641000D01*
X207982000Y-63594000D01*
X207978000Y-63547000D01*
X207977000Y-63500000D01*
X207978000Y-63453000D01*
X207982000Y-63406000D01*
X207988000Y-63359000D01*
X207997000Y-63313000D01*
X208008000Y-63267000D01*
X208021000Y-63222000D01*
X208037000Y-63177000D01*
X208055000Y-63134000D01*
X208075000Y-63091000D01*
X208098000Y-63050000D01*
X208122000Y-63010000D01*
X208149000Y-62971000D01*
X208178000Y-62934000D01*
X208208000Y-62898000D01*
X208241000Y-62864000D01*
X208275000Y-62831000D01*
X208311000Y-62801000D01*
X208348000Y-62772000D01*
X208387000Y-62745000D01*
X208427000Y-62721000D01*
X208468000Y-62698000D01*
X208511000Y-62678000D01*
X208554000Y-62660000D01*
X208599000Y-62644000D01*
X208644000Y-62631000D01*
X208690000Y-62620000D01*
X208736000Y-62611000D01*
X208783000Y-62605000D01*
X208830000Y-62601000D01*
X208877000Y-62600000D01*
X211377000Y-62600000D01*
X211377000Y-64400000D01*
G37*
X211377000Y-59320000D02*
X208877000Y-59320000D01*
X208830000Y-59319000D01*
X208783000Y-59315000D01*
X208736000Y-59309000D01*
X208690000Y-59300000D01*
X208644000Y-59289000D01*
X208599000Y-59276000D01*
X208554000Y-59260000D01*
X208511000Y-59242000D01*
X208468000Y-59222000D01*
X208427000Y-59199000D01*
X208387000Y-59175000D01*
X208348000Y-59148000D01*
X208311000Y-59119000D01*
X208275000Y-59089000D01*
X208241000Y-59056000D01*
X208208000Y-59022000D01*
X208178000Y-58986000D01*
X208149000Y-58949000D01*
X208122000Y-58910000D01*
X208098000Y-58870000D01*
X208075000Y-58829000D01*
X208055000Y-58786000D01*
X208037000Y-58743000D01*
X208021000Y-58698000D01*
X208008000Y-58653000D01*
X207997000Y-58607000D01*
X207988000Y-58561000D01*
X207982000Y-58514000D01*
X207978000Y-58467000D01*
X207977000Y-58420000D01*
X207978000Y-58373000D01*
X207982000Y-58326000D01*
X207988000Y-58279000D01*
X207997000Y-58233000D01*
X208008000Y-58187000D01*
X208021000Y-58142000D01*
X208037000Y-58097000D01*
X208055000Y-58054000D01*
X208075000Y-58011000D01*
X208098000Y-57970000D01*
X208122000Y-57930000D01*
X208149000Y-57891000D01*
X208178000Y-57854000D01*
X208208000Y-57818000D01*
X208241000Y-57784000D01*
X208275000Y-57751000D01*
X208311000Y-57721000D01*
X208348000Y-57692000D01*
X208387000Y-57665000D01*
X208427000Y-57641000D01*
X208468000Y-57618000D01*
X208511000Y-57598000D01*
X208554000Y-57580000D01*
X208599000Y-57564000D01*
X208644000Y-57551000D01*
X208690000Y-57540000D01*
X208736000Y-57531000D01*
X208783000Y-57525000D01*
X208830000Y-57521000D01*
X208877000Y-57520000D01*
X211377000Y-57520000D01*
X211377000Y-59320000D01*
G36*
X211377000Y-59320000D02*
G01*
X208877000Y-59320000D01*
X208830000Y-59319000D01*
X208783000Y-59315000D01*
X208736000Y-59309000D01*
X208690000Y-59300000D01*
X208644000Y-59289000D01*
X208599000Y-59276000D01*
X208554000Y-59260000D01*
X208511000Y-59242000D01*
X208468000Y-59222000D01*
X208427000Y-59199000D01*
X208387000Y-59175000D01*
X208348000Y-59148000D01*
X208311000Y-59119000D01*
X208275000Y-59089000D01*
X208241000Y-59056000D01*
X208208000Y-59022000D01*
X208178000Y-58986000D01*
X208149000Y-58949000D01*
X208122000Y-58910000D01*
X208098000Y-58870000D01*
X208075000Y-58829000D01*
X208055000Y-58786000D01*
X208037000Y-58743000D01*
X208021000Y-58698000D01*
X208008000Y-58653000D01*
X207997000Y-58607000D01*
X207988000Y-58561000D01*
X207982000Y-58514000D01*
X207978000Y-58467000D01*
X207977000Y-58420000D01*
X207978000Y-58373000D01*
X207982000Y-58326000D01*
X207988000Y-58279000D01*
X207997000Y-58233000D01*
X208008000Y-58187000D01*
X208021000Y-58142000D01*
X208037000Y-58097000D01*
X208055000Y-58054000D01*
X208075000Y-58011000D01*
X208098000Y-57970000D01*
X208122000Y-57930000D01*
X208149000Y-57891000D01*
X208178000Y-57854000D01*
X208208000Y-57818000D01*
X208241000Y-57784000D01*
X208275000Y-57751000D01*
X208311000Y-57721000D01*
X208348000Y-57692000D01*
X208387000Y-57665000D01*
X208427000Y-57641000D01*
X208468000Y-57618000D01*
X208511000Y-57598000D01*
X208554000Y-57580000D01*
X208599000Y-57564000D01*
X208644000Y-57551000D01*
X208690000Y-57540000D01*
X208736000Y-57531000D01*
X208783000Y-57525000D01*
X208830000Y-57521000D01*
X208877000Y-57520000D01*
X211377000Y-57520000D01*
X211377000Y-59320000D01*
G37*
X211377000Y-56780000D02*
X208877000Y-56780000D01*
X208830000Y-56779000D01*
X208783000Y-56775000D01*
X208736000Y-56769000D01*
X208690000Y-56760000D01*
X208644000Y-56749000D01*
X208599000Y-56736000D01*
X208554000Y-56720000D01*
X208511000Y-56702000D01*
X208468000Y-56682000D01*
X208427000Y-56659000D01*
X208387000Y-56635000D01*
X208348000Y-56608000D01*
X208311000Y-56579000D01*
X208275000Y-56549000D01*
X208241000Y-56516000D01*
X208208000Y-56482000D01*
X208178000Y-56446000D01*
X208149000Y-56409000D01*
X208122000Y-56370000D01*
X208098000Y-56330000D01*
X208075000Y-56289000D01*
X208055000Y-56246000D01*
X208037000Y-56203000D01*
X208021000Y-56158000D01*
X208008000Y-56113000D01*
X207997000Y-56067000D01*
X207988000Y-56021000D01*
X207982000Y-55974000D01*
X207978000Y-55927000D01*
X207977000Y-55880000D01*
X207978000Y-55833000D01*
X207982000Y-55786000D01*
X207988000Y-55739000D01*
X207997000Y-55693000D01*
X208008000Y-55647000D01*
X208021000Y-55602000D01*
X208037000Y-55557000D01*
X208055000Y-55514000D01*
X208075000Y-55471000D01*
X208098000Y-55430000D01*
X208122000Y-55390000D01*
X208149000Y-55351000D01*
X208178000Y-55314000D01*
X208208000Y-55278000D01*
X208241000Y-55244000D01*
X208275000Y-55211000D01*
X208311000Y-55181000D01*
X208348000Y-55152000D01*
X208387000Y-55125000D01*
X208427000Y-55101000D01*
X208468000Y-55078000D01*
X208511000Y-55058000D01*
X208554000Y-55040000D01*
X208599000Y-55024000D01*
X208644000Y-55011000D01*
X208690000Y-55000000D01*
X208736000Y-54991000D01*
X208783000Y-54985000D01*
X208830000Y-54981000D01*
X208877000Y-54980000D01*
X211377000Y-54980000D01*
X211377000Y-56780000D01*
G36*
X211377000Y-56780000D02*
G01*
X208877000Y-56780000D01*
X208830000Y-56779000D01*
X208783000Y-56775000D01*
X208736000Y-56769000D01*
X208690000Y-56760000D01*
X208644000Y-56749000D01*
X208599000Y-56736000D01*
X208554000Y-56720000D01*
X208511000Y-56702000D01*
X208468000Y-56682000D01*
X208427000Y-56659000D01*
X208387000Y-56635000D01*
X208348000Y-56608000D01*
X208311000Y-56579000D01*
X208275000Y-56549000D01*
X208241000Y-56516000D01*
X208208000Y-56482000D01*
X208178000Y-56446000D01*
X208149000Y-56409000D01*
X208122000Y-56370000D01*
X208098000Y-56330000D01*
X208075000Y-56289000D01*
X208055000Y-56246000D01*
X208037000Y-56203000D01*
X208021000Y-56158000D01*
X208008000Y-56113000D01*
X207997000Y-56067000D01*
X207988000Y-56021000D01*
X207982000Y-55974000D01*
X207978000Y-55927000D01*
X207977000Y-55880000D01*
X207978000Y-55833000D01*
X207982000Y-55786000D01*
X207988000Y-55739000D01*
X207997000Y-55693000D01*
X208008000Y-55647000D01*
X208021000Y-55602000D01*
X208037000Y-55557000D01*
X208055000Y-55514000D01*
X208075000Y-55471000D01*
X208098000Y-55430000D01*
X208122000Y-55390000D01*
X208149000Y-55351000D01*
X208178000Y-55314000D01*
X208208000Y-55278000D01*
X208241000Y-55244000D01*
X208275000Y-55211000D01*
X208311000Y-55181000D01*
X208348000Y-55152000D01*
X208387000Y-55125000D01*
X208427000Y-55101000D01*
X208468000Y-55078000D01*
X208511000Y-55058000D01*
X208554000Y-55040000D01*
X208599000Y-55024000D01*
X208644000Y-55011000D01*
X208690000Y-55000000D01*
X208736000Y-54991000D01*
X208783000Y-54985000D01*
X208830000Y-54981000D01*
X208877000Y-54980000D01*
X211377000Y-54980000D01*
X211377000Y-56780000D01*
G37*
X202574000Y-103011000D02*
X202621000Y-103015000D01*
X202668000Y-103021000D01*
X202714000Y-103030000D01*
X202760000Y-103041000D01*
X202805000Y-103054000D01*
X202850000Y-103070000D01*
X202893000Y-103088000D01*
X202936000Y-103108000D01*
X202977000Y-103131000D01*
X203017000Y-103155000D01*
X203056000Y-103182000D01*
X203093000Y-103211000D01*
X203129000Y-103241000D01*
X203163000Y-103274000D01*
X203196000Y-103308000D01*
X203226000Y-103344000D01*
X203255000Y-103381000D01*
X203282000Y-103420000D01*
X203306000Y-103460000D01*
X203329000Y-103501000D01*
X203349000Y-103544000D01*
X203367000Y-103587000D01*
X203383000Y-103632000D01*
X203396000Y-103677000D01*
X203407000Y-103723000D01*
X203416000Y-103769000D01*
X203422000Y-103816000D01*
X203426000Y-103863000D01*
X203427000Y-103910000D01*
X203427000Y-106410000D01*
X201627000Y-106410000D01*
X201627000Y-103910000D01*
X201628000Y-103863000D01*
X201632000Y-103816000D01*
X201638000Y-103769000D01*
X201647000Y-103723000D01*
X201658000Y-103677000D01*
X201671000Y-103632000D01*
X201687000Y-103587000D01*
X201705000Y-103544000D01*
X201725000Y-103501000D01*
X201748000Y-103460000D01*
X201772000Y-103420000D01*
X201799000Y-103381000D01*
X201828000Y-103344000D01*
X201858000Y-103308000D01*
X201891000Y-103274000D01*
X201925000Y-103241000D01*
X201961000Y-103211000D01*
X201998000Y-103182000D01*
X202037000Y-103155000D01*
X202077000Y-103131000D01*
X202118000Y-103108000D01*
X202161000Y-103088000D01*
X202204000Y-103070000D01*
X202249000Y-103054000D01*
X202294000Y-103041000D01*
X202340000Y-103030000D01*
X202386000Y-103021000D01*
X202433000Y-103015000D01*
X202480000Y-103011000D01*
X202527000Y-103010000D01*
X202574000Y-103011000D01*
G36*
X202574000Y-103011000D02*
G01*
X202621000Y-103015000D01*
X202668000Y-103021000D01*
X202714000Y-103030000D01*
X202760000Y-103041000D01*
X202805000Y-103054000D01*
X202850000Y-103070000D01*
X202893000Y-103088000D01*
X202936000Y-103108000D01*
X202977000Y-103131000D01*
X203017000Y-103155000D01*
X203056000Y-103182000D01*
X203093000Y-103211000D01*
X203129000Y-103241000D01*
X203163000Y-103274000D01*
X203196000Y-103308000D01*
X203226000Y-103344000D01*
X203255000Y-103381000D01*
X203282000Y-103420000D01*
X203306000Y-103460000D01*
X203329000Y-103501000D01*
X203349000Y-103544000D01*
X203367000Y-103587000D01*
X203383000Y-103632000D01*
X203396000Y-103677000D01*
X203407000Y-103723000D01*
X203416000Y-103769000D01*
X203422000Y-103816000D01*
X203426000Y-103863000D01*
X203427000Y-103910000D01*
X203427000Y-106410000D01*
X201627000Y-106410000D01*
X201627000Y-103910000D01*
X201628000Y-103863000D01*
X201632000Y-103816000D01*
X201638000Y-103769000D01*
X201647000Y-103723000D01*
X201658000Y-103677000D01*
X201671000Y-103632000D01*
X201687000Y-103587000D01*
X201705000Y-103544000D01*
X201725000Y-103501000D01*
X201748000Y-103460000D01*
X201772000Y-103420000D01*
X201799000Y-103381000D01*
X201828000Y-103344000D01*
X201858000Y-103308000D01*
X201891000Y-103274000D01*
X201925000Y-103241000D01*
X201961000Y-103211000D01*
X201998000Y-103182000D01*
X202037000Y-103155000D01*
X202077000Y-103131000D01*
X202118000Y-103108000D01*
X202161000Y-103088000D01*
X202204000Y-103070000D01*
X202249000Y-103054000D01*
X202294000Y-103041000D01*
X202340000Y-103030000D01*
X202386000Y-103021000D01*
X202433000Y-103015000D01*
X202480000Y-103011000D01*
X202527000Y-103010000D01*
X202574000Y-103011000D01*
G37*
X197494000Y-103011000D02*
X197541000Y-103015000D01*
X197588000Y-103021000D01*
X197634000Y-103030000D01*
X197680000Y-103041000D01*
X197725000Y-103054000D01*
X197770000Y-103070000D01*
X197813000Y-103088000D01*
X197856000Y-103108000D01*
X197897000Y-103131000D01*
X197937000Y-103155000D01*
X197976000Y-103182000D01*
X198013000Y-103211000D01*
X198049000Y-103241000D01*
X198083000Y-103274000D01*
X198116000Y-103308000D01*
X198146000Y-103344000D01*
X198175000Y-103381000D01*
X198202000Y-103420000D01*
X198226000Y-103460000D01*
X198249000Y-103501000D01*
X198269000Y-103544000D01*
X198287000Y-103587000D01*
X198303000Y-103632000D01*
X198316000Y-103677000D01*
X198327000Y-103723000D01*
X198336000Y-103769000D01*
X198342000Y-103816000D01*
X198346000Y-103863000D01*
X198347000Y-103910000D01*
X198347000Y-106410000D01*
X196547000Y-106410000D01*
X196547000Y-103910000D01*
X196548000Y-103863000D01*
X196552000Y-103816000D01*
X196558000Y-103769000D01*
X196567000Y-103723000D01*
X196578000Y-103677000D01*
X196591000Y-103632000D01*
X196607000Y-103587000D01*
X196625000Y-103544000D01*
X196645000Y-103501000D01*
X196668000Y-103460000D01*
X196692000Y-103420000D01*
X196719000Y-103381000D01*
X196748000Y-103344000D01*
X196778000Y-103308000D01*
X196811000Y-103274000D01*
X196845000Y-103241000D01*
X196881000Y-103211000D01*
X196918000Y-103182000D01*
X196957000Y-103155000D01*
X196997000Y-103131000D01*
X197038000Y-103108000D01*
X197081000Y-103088000D01*
X197124000Y-103070000D01*
X197169000Y-103054000D01*
X197214000Y-103041000D01*
X197260000Y-103030000D01*
X197306000Y-103021000D01*
X197353000Y-103015000D01*
X197400000Y-103011000D01*
X197447000Y-103010000D01*
X197494000Y-103011000D01*
G36*
X197494000Y-103011000D02*
G01*
X197541000Y-103015000D01*
X197588000Y-103021000D01*
X197634000Y-103030000D01*
X197680000Y-103041000D01*
X197725000Y-103054000D01*
X197770000Y-103070000D01*
X197813000Y-103088000D01*
X197856000Y-103108000D01*
X197897000Y-103131000D01*
X197937000Y-103155000D01*
X197976000Y-103182000D01*
X198013000Y-103211000D01*
X198049000Y-103241000D01*
X198083000Y-103274000D01*
X198116000Y-103308000D01*
X198146000Y-103344000D01*
X198175000Y-103381000D01*
X198202000Y-103420000D01*
X198226000Y-103460000D01*
X198249000Y-103501000D01*
X198269000Y-103544000D01*
X198287000Y-103587000D01*
X198303000Y-103632000D01*
X198316000Y-103677000D01*
X198327000Y-103723000D01*
X198336000Y-103769000D01*
X198342000Y-103816000D01*
X198346000Y-103863000D01*
X198347000Y-103910000D01*
X198347000Y-106410000D01*
X196547000Y-106410000D01*
X196547000Y-103910000D01*
X196548000Y-103863000D01*
X196552000Y-103816000D01*
X196558000Y-103769000D01*
X196567000Y-103723000D01*
X196578000Y-103677000D01*
X196591000Y-103632000D01*
X196607000Y-103587000D01*
X196625000Y-103544000D01*
X196645000Y-103501000D01*
X196668000Y-103460000D01*
X196692000Y-103420000D01*
X196719000Y-103381000D01*
X196748000Y-103344000D01*
X196778000Y-103308000D01*
X196811000Y-103274000D01*
X196845000Y-103241000D01*
X196881000Y-103211000D01*
X196918000Y-103182000D01*
X196957000Y-103155000D01*
X196997000Y-103131000D01*
X197038000Y-103108000D01*
X197081000Y-103088000D01*
X197124000Y-103070000D01*
X197169000Y-103054000D01*
X197214000Y-103041000D01*
X197260000Y-103030000D01*
X197306000Y-103021000D01*
X197353000Y-103015000D01*
X197400000Y-103011000D01*
X197447000Y-103010000D01*
X197494000Y-103011000D01*
G37*
X191144000Y-103241000D02*
X191191000Y-103245000D01*
X191238000Y-103251000D01*
X191284000Y-103260000D01*
X191330000Y-103271000D01*
X191375000Y-103284000D01*
X191420000Y-103300000D01*
X191463000Y-103318000D01*
X191506000Y-103338000D01*
X191547000Y-103361000D01*
X191587000Y-103385000D01*
X191626000Y-103412000D01*
X191663000Y-103441000D01*
X191699000Y-103471000D01*
X191733000Y-103504000D01*
X191766000Y-103538000D01*
X191796000Y-103574000D01*
X191825000Y-103611000D01*
X191852000Y-103650000D01*
X191876000Y-103690000D01*
X191899000Y-103731000D01*
X191919000Y-103774000D01*
X191937000Y-103817000D01*
X191953000Y-103862000D01*
X191966000Y-103907000D01*
X191977000Y-103953000D01*
X191986000Y-103999000D01*
X191992000Y-104046000D01*
X191996000Y-104093000D01*
X191997000Y-104140000D01*
X191996000Y-104187000D01*
X191992000Y-104234000D01*
X191986000Y-104281000D01*
X191977000Y-104327000D01*
X191966000Y-104373000D01*
X191953000Y-104418000D01*
X191937000Y-104463000D01*
X191919000Y-104506000D01*
X191899000Y-104549000D01*
X191876000Y-104590000D01*
X191852000Y-104630000D01*
X191825000Y-104669000D01*
X191796000Y-104706000D01*
X191766000Y-104742000D01*
X191733000Y-104776000D01*
X191699000Y-104809000D01*
X191663000Y-104839000D01*
X191626000Y-104868000D01*
X191587000Y-104895000D01*
X191547000Y-104919000D01*
X191506000Y-104942000D01*
X191463000Y-104962000D01*
X191420000Y-104980000D01*
X191375000Y-104996000D01*
X191330000Y-105009000D01*
X191284000Y-105020000D01*
X191238000Y-105029000D01*
X191191000Y-105035000D01*
X191144000Y-105039000D01*
X191097000Y-105040000D01*
X188597000Y-105040000D01*
X188597000Y-103240000D01*
X191097000Y-103240000D01*
X191144000Y-103241000D01*
G36*
X191144000Y-103241000D02*
G01*
X191191000Y-103245000D01*
X191238000Y-103251000D01*
X191284000Y-103260000D01*
X191330000Y-103271000D01*
X191375000Y-103284000D01*
X191420000Y-103300000D01*
X191463000Y-103318000D01*
X191506000Y-103338000D01*
X191547000Y-103361000D01*
X191587000Y-103385000D01*
X191626000Y-103412000D01*
X191663000Y-103441000D01*
X191699000Y-103471000D01*
X191733000Y-103504000D01*
X191766000Y-103538000D01*
X191796000Y-103574000D01*
X191825000Y-103611000D01*
X191852000Y-103650000D01*
X191876000Y-103690000D01*
X191899000Y-103731000D01*
X191919000Y-103774000D01*
X191937000Y-103817000D01*
X191953000Y-103862000D01*
X191966000Y-103907000D01*
X191977000Y-103953000D01*
X191986000Y-103999000D01*
X191992000Y-104046000D01*
X191996000Y-104093000D01*
X191997000Y-104140000D01*
X191996000Y-104187000D01*
X191992000Y-104234000D01*
X191986000Y-104281000D01*
X191977000Y-104327000D01*
X191966000Y-104373000D01*
X191953000Y-104418000D01*
X191937000Y-104463000D01*
X191919000Y-104506000D01*
X191899000Y-104549000D01*
X191876000Y-104590000D01*
X191852000Y-104630000D01*
X191825000Y-104669000D01*
X191796000Y-104706000D01*
X191766000Y-104742000D01*
X191733000Y-104776000D01*
X191699000Y-104809000D01*
X191663000Y-104839000D01*
X191626000Y-104868000D01*
X191587000Y-104895000D01*
X191547000Y-104919000D01*
X191506000Y-104942000D01*
X191463000Y-104962000D01*
X191420000Y-104980000D01*
X191375000Y-104996000D01*
X191330000Y-105009000D01*
X191284000Y-105020000D01*
X191238000Y-105029000D01*
X191191000Y-105035000D01*
X191144000Y-105039000D01*
X191097000Y-105040000D01*
X188597000Y-105040000D01*
X188597000Y-103240000D01*
X191097000Y-103240000D01*
X191144000Y-103241000D01*
G37*
X191144000Y-100701000D02*
X191191000Y-100705000D01*
X191238000Y-100711000D01*
X191284000Y-100720000D01*
X191330000Y-100731000D01*
X191375000Y-100744000D01*
X191420000Y-100760000D01*
X191463000Y-100778000D01*
X191506000Y-100798000D01*
X191547000Y-100821000D01*
X191587000Y-100845000D01*
X191626000Y-100872000D01*
X191663000Y-100901000D01*
X191699000Y-100931000D01*
X191733000Y-100964000D01*
X191766000Y-100998000D01*
X191796000Y-101034000D01*
X191825000Y-101071000D01*
X191852000Y-101110000D01*
X191876000Y-101150000D01*
X191899000Y-101191000D01*
X191919000Y-101234000D01*
X191937000Y-101277000D01*
X191953000Y-101322000D01*
X191966000Y-101367000D01*
X191977000Y-101413000D01*
X191986000Y-101459000D01*
X191992000Y-101506000D01*
X191996000Y-101553000D01*
X191997000Y-101600000D01*
X191996000Y-101647000D01*
X191992000Y-101694000D01*
X191986000Y-101741000D01*
X191977000Y-101787000D01*
X191966000Y-101833000D01*
X191953000Y-101878000D01*
X191937000Y-101923000D01*
X191919000Y-101966000D01*
X191899000Y-102009000D01*
X191876000Y-102050000D01*
X191852000Y-102090000D01*
X191825000Y-102129000D01*
X191796000Y-102166000D01*
X191766000Y-102202000D01*
X191733000Y-102236000D01*
X191699000Y-102269000D01*
X191663000Y-102299000D01*
X191626000Y-102328000D01*
X191587000Y-102355000D01*
X191547000Y-102379000D01*
X191506000Y-102402000D01*
X191463000Y-102422000D01*
X191420000Y-102440000D01*
X191375000Y-102456000D01*
X191330000Y-102469000D01*
X191284000Y-102480000D01*
X191238000Y-102489000D01*
X191191000Y-102495000D01*
X191144000Y-102499000D01*
X191097000Y-102500000D01*
X188597000Y-102500000D01*
X188597000Y-100700000D01*
X191097000Y-100700000D01*
X191144000Y-100701000D01*
G36*
X191144000Y-100701000D02*
G01*
X191191000Y-100705000D01*
X191238000Y-100711000D01*
X191284000Y-100720000D01*
X191330000Y-100731000D01*
X191375000Y-100744000D01*
X191420000Y-100760000D01*
X191463000Y-100778000D01*
X191506000Y-100798000D01*
X191547000Y-100821000D01*
X191587000Y-100845000D01*
X191626000Y-100872000D01*
X191663000Y-100901000D01*
X191699000Y-100931000D01*
X191733000Y-100964000D01*
X191766000Y-100998000D01*
X191796000Y-101034000D01*
X191825000Y-101071000D01*
X191852000Y-101110000D01*
X191876000Y-101150000D01*
X191899000Y-101191000D01*
X191919000Y-101234000D01*
X191937000Y-101277000D01*
X191953000Y-101322000D01*
X191966000Y-101367000D01*
X191977000Y-101413000D01*
X191986000Y-101459000D01*
X191992000Y-101506000D01*
X191996000Y-101553000D01*
X191997000Y-101600000D01*
X191996000Y-101647000D01*
X191992000Y-101694000D01*
X191986000Y-101741000D01*
X191977000Y-101787000D01*
X191966000Y-101833000D01*
X191953000Y-101878000D01*
X191937000Y-101923000D01*
X191919000Y-101966000D01*
X191899000Y-102009000D01*
X191876000Y-102050000D01*
X191852000Y-102090000D01*
X191825000Y-102129000D01*
X191796000Y-102166000D01*
X191766000Y-102202000D01*
X191733000Y-102236000D01*
X191699000Y-102269000D01*
X191663000Y-102299000D01*
X191626000Y-102328000D01*
X191587000Y-102355000D01*
X191547000Y-102379000D01*
X191506000Y-102402000D01*
X191463000Y-102422000D01*
X191420000Y-102440000D01*
X191375000Y-102456000D01*
X191330000Y-102469000D01*
X191284000Y-102480000D01*
X191238000Y-102489000D01*
X191191000Y-102495000D01*
X191144000Y-102499000D01*
X191097000Y-102500000D01*
X188597000Y-102500000D01*
X188597000Y-100700000D01*
X191097000Y-100700000D01*
X191144000Y-100701000D01*
G37*
X191144000Y-95621000D02*
X191191000Y-95625000D01*
X191238000Y-95631000D01*
X191284000Y-95640000D01*
X191330000Y-95651000D01*
X191375000Y-95664000D01*
X191420000Y-95680000D01*
X191463000Y-95698000D01*
X191506000Y-95718000D01*
X191547000Y-95741000D01*
X191587000Y-95765000D01*
X191626000Y-95792000D01*
X191663000Y-95821000D01*
X191699000Y-95851000D01*
X191733000Y-95884000D01*
X191766000Y-95918000D01*
X191796000Y-95954000D01*
X191825000Y-95991000D01*
X191852000Y-96030000D01*
X191876000Y-96070000D01*
X191899000Y-96111000D01*
X191919000Y-96154000D01*
X191937000Y-96197000D01*
X191953000Y-96242000D01*
X191966000Y-96287000D01*
X191977000Y-96333000D01*
X191986000Y-96379000D01*
X191992000Y-96426000D01*
X191996000Y-96473000D01*
X191997000Y-96520000D01*
X191996000Y-96567000D01*
X191992000Y-96614000D01*
X191986000Y-96661000D01*
X191977000Y-96707000D01*
X191966000Y-96753000D01*
X191953000Y-96798000D01*
X191937000Y-96843000D01*
X191919000Y-96886000D01*
X191899000Y-96929000D01*
X191876000Y-96970000D01*
X191852000Y-97010000D01*
X191825000Y-97049000D01*
X191796000Y-97086000D01*
X191766000Y-97122000D01*
X191733000Y-97156000D01*
X191699000Y-97189000D01*
X191663000Y-97219000D01*
X191626000Y-97248000D01*
X191587000Y-97275000D01*
X191547000Y-97299000D01*
X191506000Y-97322000D01*
X191463000Y-97342000D01*
X191420000Y-97360000D01*
X191375000Y-97376000D01*
X191330000Y-97389000D01*
X191284000Y-97400000D01*
X191238000Y-97409000D01*
X191191000Y-97415000D01*
X191144000Y-97419000D01*
X191097000Y-97420000D01*
X188597000Y-97420000D01*
X188597000Y-95620000D01*
X191097000Y-95620000D01*
X191144000Y-95621000D01*
G36*
X191144000Y-95621000D02*
G01*
X191191000Y-95625000D01*
X191238000Y-95631000D01*
X191284000Y-95640000D01*
X191330000Y-95651000D01*
X191375000Y-95664000D01*
X191420000Y-95680000D01*
X191463000Y-95698000D01*
X191506000Y-95718000D01*
X191547000Y-95741000D01*
X191587000Y-95765000D01*
X191626000Y-95792000D01*
X191663000Y-95821000D01*
X191699000Y-95851000D01*
X191733000Y-95884000D01*
X191766000Y-95918000D01*
X191796000Y-95954000D01*
X191825000Y-95991000D01*
X191852000Y-96030000D01*
X191876000Y-96070000D01*
X191899000Y-96111000D01*
X191919000Y-96154000D01*
X191937000Y-96197000D01*
X191953000Y-96242000D01*
X191966000Y-96287000D01*
X191977000Y-96333000D01*
X191986000Y-96379000D01*
X191992000Y-96426000D01*
X191996000Y-96473000D01*
X191997000Y-96520000D01*
X191996000Y-96567000D01*
X191992000Y-96614000D01*
X191986000Y-96661000D01*
X191977000Y-96707000D01*
X191966000Y-96753000D01*
X191953000Y-96798000D01*
X191937000Y-96843000D01*
X191919000Y-96886000D01*
X191899000Y-96929000D01*
X191876000Y-96970000D01*
X191852000Y-97010000D01*
X191825000Y-97049000D01*
X191796000Y-97086000D01*
X191766000Y-97122000D01*
X191733000Y-97156000D01*
X191699000Y-97189000D01*
X191663000Y-97219000D01*
X191626000Y-97248000D01*
X191587000Y-97275000D01*
X191547000Y-97299000D01*
X191506000Y-97322000D01*
X191463000Y-97342000D01*
X191420000Y-97360000D01*
X191375000Y-97376000D01*
X191330000Y-97389000D01*
X191284000Y-97400000D01*
X191238000Y-97409000D01*
X191191000Y-97415000D01*
X191144000Y-97419000D01*
X191097000Y-97420000D01*
X188597000Y-97420000D01*
X188597000Y-95620000D01*
X191097000Y-95620000D01*
X191144000Y-95621000D01*
G37*
X191144000Y-93081000D02*
X191191000Y-93085000D01*
X191238000Y-93091000D01*
X191284000Y-93100000D01*
X191330000Y-93111000D01*
X191375000Y-93124000D01*
X191420000Y-93140000D01*
X191463000Y-93158000D01*
X191506000Y-93178000D01*
X191547000Y-93201000D01*
X191587000Y-93225000D01*
X191626000Y-93252000D01*
X191663000Y-93281000D01*
X191699000Y-93311000D01*
X191733000Y-93344000D01*
X191766000Y-93378000D01*
X191796000Y-93414000D01*
X191825000Y-93451000D01*
X191852000Y-93490000D01*
X191876000Y-93530000D01*
X191899000Y-93571000D01*
X191919000Y-93614000D01*
X191937000Y-93657000D01*
X191953000Y-93702000D01*
X191966000Y-93747000D01*
X191977000Y-93793000D01*
X191986000Y-93839000D01*
X191992000Y-93886000D01*
X191996000Y-93933000D01*
X191997000Y-93980000D01*
X191996000Y-94027000D01*
X191992000Y-94074000D01*
X191986000Y-94121000D01*
X191977000Y-94167000D01*
X191966000Y-94213000D01*
X191953000Y-94258000D01*
X191937000Y-94303000D01*
X191919000Y-94346000D01*
X191899000Y-94389000D01*
X191876000Y-94430000D01*
X191852000Y-94470000D01*
X191825000Y-94509000D01*
X191796000Y-94546000D01*
X191766000Y-94582000D01*
X191733000Y-94616000D01*
X191699000Y-94649000D01*
X191663000Y-94679000D01*
X191626000Y-94708000D01*
X191587000Y-94735000D01*
X191547000Y-94759000D01*
X191506000Y-94782000D01*
X191463000Y-94802000D01*
X191420000Y-94820000D01*
X191375000Y-94836000D01*
X191330000Y-94849000D01*
X191284000Y-94860000D01*
X191238000Y-94869000D01*
X191191000Y-94875000D01*
X191144000Y-94879000D01*
X191097000Y-94880000D01*
X188597000Y-94880000D01*
X188597000Y-93080000D01*
X191097000Y-93080000D01*
X191144000Y-93081000D01*
G36*
X191144000Y-93081000D02*
G01*
X191191000Y-93085000D01*
X191238000Y-93091000D01*
X191284000Y-93100000D01*
X191330000Y-93111000D01*
X191375000Y-93124000D01*
X191420000Y-93140000D01*
X191463000Y-93158000D01*
X191506000Y-93178000D01*
X191547000Y-93201000D01*
X191587000Y-93225000D01*
X191626000Y-93252000D01*
X191663000Y-93281000D01*
X191699000Y-93311000D01*
X191733000Y-93344000D01*
X191766000Y-93378000D01*
X191796000Y-93414000D01*
X191825000Y-93451000D01*
X191852000Y-93490000D01*
X191876000Y-93530000D01*
X191899000Y-93571000D01*
X191919000Y-93614000D01*
X191937000Y-93657000D01*
X191953000Y-93702000D01*
X191966000Y-93747000D01*
X191977000Y-93793000D01*
X191986000Y-93839000D01*
X191992000Y-93886000D01*
X191996000Y-93933000D01*
X191997000Y-93980000D01*
X191996000Y-94027000D01*
X191992000Y-94074000D01*
X191986000Y-94121000D01*
X191977000Y-94167000D01*
X191966000Y-94213000D01*
X191953000Y-94258000D01*
X191937000Y-94303000D01*
X191919000Y-94346000D01*
X191899000Y-94389000D01*
X191876000Y-94430000D01*
X191852000Y-94470000D01*
X191825000Y-94509000D01*
X191796000Y-94546000D01*
X191766000Y-94582000D01*
X191733000Y-94616000D01*
X191699000Y-94649000D01*
X191663000Y-94679000D01*
X191626000Y-94708000D01*
X191587000Y-94735000D01*
X191547000Y-94759000D01*
X191506000Y-94782000D01*
X191463000Y-94802000D01*
X191420000Y-94820000D01*
X191375000Y-94836000D01*
X191330000Y-94849000D01*
X191284000Y-94860000D01*
X191238000Y-94869000D01*
X191191000Y-94875000D01*
X191144000Y-94879000D01*
X191097000Y-94880000D01*
X188597000Y-94880000D01*
X188597000Y-93080000D01*
X191097000Y-93080000D01*
X191144000Y-93081000D01*
G37*
X191144000Y-90541000D02*
X191191000Y-90545000D01*
X191238000Y-90551000D01*
X191284000Y-90560000D01*
X191330000Y-90571000D01*
X191375000Y-90584000D01*
X191420000Y-90600000D01*
X191463000Y-90618000D01*
X191506000Y-90638000D01*
X191547000Y-90661000D01*
X191587000Y-90685000D01*
X191626000Y-90712000D01*
X191663000Y-90741000D01*
X191699000Y-90771000D01*
X191733000Y-90804000D01*
X191766000Y-90838000D01*
X191796000Y-90874000D01*
X191825000Y-90911000D01*
X191852000Y-90950000D01*
X191876000Y-90990000D01*
X191899000Y-91031000D01*
X191919000Y-91074000D01*
X191937000Y-91117000D01*
X191953000Y-91162000D01*
X191966000Y-91207000D01*
X191977000Y-91253000D01*
X191986000Y-91299000D01*
X191992000Y-91346000D01*
X191996000Y-91393000D01*
X191997000Y-91440000D01*
X191996000Y-91487000D01*
X191992000Y-91534000D01*
X191986000Y-91581000D01*
X191977000Y-91627000D01*
X191966000Y-91673000D01*
X191953000Y-91718000D01*
X191937000Y-91763000D01*
X191919000Y-91806000D01*
X191899000Y-91849000D01*
X191876000Y-91890000D01*
X191852000Y-91930000D01*
X191825000Y-91969000D01*
X191796000Y-92006000D01*
X191766000Y-92042000D01*
X191733000Y-92076000D01*
X191699000Y-92109000D01*
X191663000Y-92139000D01*
X191626000Y-92168000D01*
X191587000Y-92195000D01*
X191547000Y-92219000D01*
X191506000Y-92242000D01*
X191463000Y-92262000D01*
X191420000Y-92280000D01*
X191375000Y-92296000D01*
X191330000Y-92309000D01*
X191284000Y-92320000D01*
X191238000Y-92329000D01*
X191191000Y-92335000D01*
X191144000Y-92339000D01*
X191097000Y-92340000D01*
X188597000Y-92340000D01*
X188597000Y-90540000D01*
X191097000Y-90540000D01*
X191144000Y-90541000D01*
G36*
X191144000Y-90541000D02*
G01*
X191191000Y-90545000D01*
X191238000Y-90551000D01*
X191284000Y-90560000D01*
X191330000Y-90571000D01*
X191375000Y-90584000D01*
X191420000Y-90600000D01*
X191463000Y-90618000D01*
X191506000Y-90638000D01*
X191547000Y-90661000D01*
X191587000Y-90685000D01*
X191626000Y-90712000D01*
X191663000Y-90741000D01*
X191699000Y-90771000D01*
X191733000Y-90804000D01*
X191766000Y-90838000D01*
X191796000Y-90874000D01*
X191825000Y-90911000D01*
X191852000Y-90950000D01*
X191876000Y-90990000D01*
X191899000Y-91031000D01*
X191919000Y-91074000D01*
X191937000Y-91117000D01*
X191953000Y-91162000D01*
X191966000Y-91207000D01*
X191977000Y-91253000D01*
X191986000Y-91299000D01*
X191992000Y-91346000D01*
X191996000Y-91393000D01*
X191997000Y-91440000D01*
X191996000Y-91487000D01*
X191992000Y-91534000D01*
X191986000Y-91581000D01*
X191977000Y-91627000D01*
X191966000Y-91673000D01*
X191953000Y-91718000D01*
X191937000Y-91763000D01*
X191919000Y-91806000D01*
X191899000Y-91849000D01*
X191876000Y-91890000D01*
X191852000Y-91930000D01*
X191825000Y-91969000D01*
X191796000Y-92006000D01*
X191766000Y-92042000D01*
X191733000Y-92076000D01*
X191699000Y-92109000D01*
X191663000Y-92139000D01*
X191626000Y-92168000D01*
X191587000Y-92195000D01*
X191547000Y-92219000D01*
X191506000Y-92242000D01*
X191463000Y-92262000D01*
X191420000Y-92280000D01*
X191375000Y-92296000D01*
X191330000Y-92309000D01*
X191284000Y-92320000D01*
X191238000Y-92329000D01*
X191191000Y-92335000D01*
X191144000Y-92339000D01*
X191097000Y-92340000D01*
X188597000Y-92340000D01*
X188597000Y-90540000D01*
X191097000Y-90540000D01*
X191144000Y-90541000D01*
G37*
X191144000Y-88001000D02*
X191191000Y-88005000D01*
X191238000Y-88011000D01*
X191284000Y-88020000D01*
X191330000Y-88031000D01*
X191375000Y-88044000D01*
X191420000Y-88060000D01*
X191463000Y-88078000D01*
X191506000Y-88098000D01*
X191547000Y-88121000D01*
X191587000Y-88145000D01*
X191626000Y-88172000D01*
X191663000Y-88201000D01*
X191699000Y-88231000D01*
X191733000Y-88264000D01*
X191766000Y-88298000D01*
X191796000Y-88334000D01*
X191825000Y-88371000D01*
X191852000Y-88410000D01*
X191876000Y-88450000D01*
X191899000Y-88491000D01*
X191919000Y-88534000D01*
X191937000Y-88577000D01*
X191953000Y-88622000D01*
X191966000Y-88667000D01*
X191977000Y-88713000D01*
X191986000Y-88759000D01*
X191992000Y-88806000D01*
X191996000Y-88853000D01*
X191997000Y-88900000D01*
X191996000Y-88947000D01*
X191992000Y-88994000D01*
X191986000Y-89041000D01*
X191977000Y-89087000D01*
X191966000Y-89133000D01*
X191953000Y-89178000D01*
X191937000Y-89223000D01*
X191919000Y-89266000D01*
X191899000Y-89309000D01*
X191876000Y-89350000D01*
X191852000Y-89390000D01*
X191825000Y-89429000D01*
X191796000Y-89466000D01*
X191766000Y-89502000D01*
X191733000Y-89536000D01*
X191699000Y-89569000D01*
X191663000Y-89599000D01*
X191626000Y-89628000D01*
X191587000Y-89655000D01*
X191547000Y-89679000D01*
X191506000Y-89702000D01*
X191463000Y-89722000D01*
X191420000Y-89740000D01*
X191375000Y-89756000D01*
X191330000Y-89769000D01*
X191284000Y-89780000D01*
X191238000Y-89789000D01*
X191191000Y-89795000D01*
X191144000Y-89799000D01*
X191097000Y-89800000D01*
X188597000Y-89800000D01*
X188597000Y-88000000D01*
X191097000Y-88000000D01*
X191144000Y-88001000D01*
G36*
X191144000Y-88001000D02*
G01*
X191191000Y-88005000D01*
X191238000Y-88011000D01*
X191284000Y-88020000D01*
X191330000Y-88031000D01*
X191375000Y-88044000D01*
X191420000Y-88060000D01*
X191463000Y-88078000D01*
X191506000Y-88098000D01*
X191547000Y-88121000D01*
X191587000Y-88145000D01*
X191626000Y-88172000D01*
X191663000Y-88201000D01*
X191699000Y-88231000D01*
X191733000Y-88264000D01*
X191766000Y-88298000D01*
X191796000Y-88334000D01*
X191825000Y-88371000D01*
X191852000Y-88410000D01*
X191876000Y-88450000D01*
X191899000Y-88491000D01*
X191919000Y-88534000D01*
X191937000Y-88577000D01*
X191953000Y-88622000D01*
X191966000Y-88667000D01*
X191977000Y-88713000D01*
X191986000Y-88759000D01*
X191992000Y-88806000D01*
X191996000Y-88853000D01*
X191997000Y-88900000D01*
X191996000Y-88947000D01*
X191992000Y-88994000D01*
X191986000Y-89041000D01*
X191977000Y-89087000D01*
X191966000Y-89133000D01*
X191953000Y-89178000D01*
X191937000Y-89223000D01*
X191919000Y-89266000D01*
X191899000Y-89309000D01*
X191876000Y-89350000D01*
X191852000Y-89390000D01*
X191825000Y-89429000D01*
X191796000Y-89466000D01*
X191766000Y-89502000D01*
X191733000Y-89536000D01*
X191699000Y-89569000D01*
X191663000Y-89599000D01*
X191626000Y-89628000D01*
X191587000Y-89655000D01*
X191547000Y-89679000D01*
X191506000Y-89702000D01*
X191463000Y-89722000D01*
X191420000Y-89740000D01*
X191375000Y-89756000D01*
X191330000Y-89769000D01*
X191284000Y-89780000D01*
X191238000Y-89789000D01*
X191191000Y-89795000D01*
X191144000Y-89799000D01*
X191097000Y-89800000D01*
X188597000Y-89800000D01*
X188597000Y-88000000D01*
X191097000Y-88000000D01*
X191144000Y-88001000D01*
G37*
X191144000Y-82921000D02*
X191191000Y-82925000D01*
X191238000Y-82931000D01*
X191284000Y-82940000D01*
X191330000Y-82951000D01*
X191375000Y-82964000D01*
X191420000Y-82980000D01*
X191463000Y-82998000D01*
X191506000Y-83018000D01*
X191547000Y-83041000D01*
X191587000Y-83065000D01*
X191626000Y-83092000D01*
X191663000Y-83121000D01*
X191699000Y-83151000D01*
X191733000Y-83184000D01*
X191766000Y-83218000D01*
X191796000Y-83254000D01*
X191825000Y-83291000D01*
X191852000Y-83330000D01*
X191876000Y-83370000D01*
X191899000Y-83411000D01*
X191919000Y-83454000D01*
X191937000Y-83497000D01*
X191953000Y-83542000D01*
X191966000Y-83587000D01*
X191977000Y-83633000D01*
X191986000Y-83679000D01*
X191992000Y-83726000D01*
X191996000Y-83773000D01*
X191997000Y-83820000D01*
X191996000Y-83867000D01*
X191992000Y-83914000D01*
X191986000Y-83961000D01*
X191977000Y-84007000D01*
X191966000Y-84053000D01*
X191953000Y-84098000D01*
X191937000Y-84143000D01*
X191919000Y-84186000D01*
X191899000Y-84229000D01*
X191876000Y-84270000D01*
X191852000Y-84310000D01*
X191825000Y-84349000D01*
X191796000Y-84386000D01*
X191766000Y-84422000D01*
X191733000Y-84456000D01*
X191699000Y-84489000D01*
X191663000Y-84519000D01*
X191626000Y-84548000D01*
X191587000Y-84575000D01*
X191547000Y-84599000D01*
X191506000Y-84622000D01*
X191463000Y-84642000D01*
X191420000Y-84660000D01*
X191375000Y-84676000D01*
X191330000Y-84689000D01*
X191284000Y-84700000D01*
X191238000Y-84709000D01*
X191191000Y-84715000D01*
X191144000Y-84719000D01*
X191097000Y-84720000D01*
X188597000Y-84720000D01*
X188597000Y-82920000D01*
X191097000Y-82920000D01*
X191144000Y-82921000D01*
G36*
X191144000Y-82921000D02*
G01*
X191191000Y-82925000D01*
X191238000Y-82931000D01*
X191284000Y-82940000D01*
X191330000Y-82951000D01*
X191375000Y-82964000D01*
X191420000Y-82980000D01*
X191463000Y-82998000D01*
X191506000Y-83018000D01*
X191547000Y-83041000D01*
X191587000Y-83065000D01*
X191626000Y-83092000D01*
X191663000Y-83121000D01*
X191699000Y-83151000D01*
X191733000Y-83184000D01*
X191766000Y-83218000D01*
X191796000Y-83254000D01*
X191825000Y-83291000D01*
X191852000Y-83330000D01*
X191876000Y-83370000D01*
X191899000Y-83411000D01*
X191919000Y-83454000D01*
X191937000Y-83497000D01*
X191953000Y-83542000D01*
X191966000Y-83587000D01*
X191977000Y-83633000D01*
X191986000Y-83679000D01*
X191992000Y-83726000D01*
X191996000Y-83773000D01*
X191997000Y-83820000D01*
X191996000Y-83867000D01*
X191992000Y-83914000D01*
X191986000Y-83961000D01*
X191977000Y-84007000D01*
X191966000Y-84053000D01*
X191953000Y-84098000D01*
X191937000Y-84143000D01*
X191919000Y-84186000D01*
X191899000Y-84229000D01*
X191876000Y-84270000D01*
X191852000Y-84310000D01*
X191825000Y-84349000D01*
X191796000Y-84386000D01*
X191766000Y-84422000D01*
X191733000Y-84456000D01*
X191699000Y-84489000D01*
X191663000Y-84519000D01*
X191626000Y-84548000D01*
X191587000Y-84575000D01*
X191547000Y-84599000D01*
X191506000Y-84622000D01*
X191463000Y-84642000D01*
X191420000Y-84660000D01*
X191375000Y-84676000D01*
X191330000Y-84689000D01*
X191284000Y-84700000D01*
X191238000Y-84709000D01*
X191191000Y-84715000D01*
X191144000Y-84719000D01*
X191097000Y-84720000D01*
X188597000Y-84720000D01*
X188597000Y-82920000D01*
X191097000Y-82920000D01*
X191144000Y-82921000D01*
G37*
X191144000Y-80381000D02*
X191191000Y-80385000D01*
X191238000Y-80391000D01*
X191284000Y-80400000D01*
X191330000Y-80411000D01*
X191375000Y-80424000D01*
X191420000Y-80440000D01*
X191463000Y-80458000D01*
X191506000Y-80478000D01*
X191547000Y-80501000D01*
X191587000Y-80525000D01*
X191626000Y-80552000D01*
X191663000Y-80581000D01*
X191699000Y-80611000D01*
X191733000Y-80644000D01*
X191766000Y-80678000D01*
X191796000Y-80714000D01*
X191825000Y-80751000D01*
X191852000Y-80790000D01*
X191876000Y-80830000D01*
X191899000Y-80871000D01*
X191919000Y-80914000D01*
X191937000Y-80957000D01*
X191953000Y-81002000D01*
X191966000Y-81047000D01*
X191977000Y-81093000D01*
X191986000Y-81139000D01*
X191992000Y-81186000D01*
X191996000Y-81233000D01*
X191997000Y-81280000D01*
X191996000Y-81327000D01*
X191992000Y-81374000D01*
X191986000Y-81421000D01*
X191977000Y-81467000D01*
X191966000Y-81513000D01*
X191953000Y-81558000D01*
X191937000Y-81603000D01*
X191919000Y-81646000D01*
X191899000Y-81689000D01*
X191876000Y-81730000D01*
X191852000Y-81770000D01*
X191825000Y-81809000D01*
X191796000Y-81846000D01*
X191766000Y-81882000D01*
X191733000Y-81916000D01*
X191699000Y-81949000D01*
X191663000Y-81979000D01*
X191626000Y-82008000D01*
X191587000Y-82035000D01*
X191547000Y-82059000D01*
X191506000Y-82082000D01*
X191463000Y-82102000D01*
X191420000Y-82120000D01*
X191375000Y-82136000D01*
X191330000Y-82149000D01*
X191284000Y-82160000D01*
X191238000Y-82169000D01*
X191191000Y-82175000D01*
X191144000Y-82179000D01*
X191097000Y-82180000D01*
X188597000Y-82180000D01*
X188597000Y-80380000D01*
X191097000Y-80380000D01*
X191144000Y-80381000D01*
G36*
X191144000Y-80381000D02*
G01*
X191191000Y-80385000D01*
X191238000Y-80391000D01*
X191284000Y-80400000D01*
X191330000Y-80411000D01*
X191375000Y-80424000D01*
X191420000Y-80440000D01*
X191463000Y-80458000D01*
X191506000Y-80478000D01*
X191547000Y-80501000D01*
X191587000Y-80525000D01*
X191626000Y-80552000D01*
X191663000Y-80581000D01*
X191699000Y-80611000D01*
X191733000Y-80644000D01*
X191766000Y-80678000D01*
X191796000Y-80714000D01*
X191825000Y-80751000D01*
X191852000Y-80790000D01*
X191876000Y-80830000D01*
X191899000Y-80871000D01*
X191919000Y-80914000D01*
X191937000Y-80957000D01*
X191953000Y-81002000D01*
X191966000Y-81047000D01*
X191977000Y-81093000D01*
X191986000Y-81139000D01*
X191992000Y-81186000D01*
X191996000Y-81233000D01*
X191997000Y-81280000D01*
X191996000Y-81327000D01*
X191992000Y-81374000D01*
X191986000Y-81421000D01*
X191977000Y-81467000D01*
X191966000Y-81513000D01*
X191953000Y-81558000D01*
X191937000Y-81603000D01*
X191919000Y-81646000D01*
X191899000Y-81689000D01*
X191876000Y-81730000D01*
X191852000Y-81770000D01*
X191825000Y-81809000D01*
X191796000Y-81846000D01*
X191766000Y-81882000D01*
X191733000Y-81916000D01*
X191699000Y-81949000D01*
X191663000Y-81979000D01*
X191626000Y-82008000D01*
X191587000Y-82035000D01*
X191547000Y-82059000D01*
X191506000Y-82082000D01*
X191463000Y-82102000D01*
X191420000Y-82120000D01*
X191375000Y-82136000D01*
X191330000Y-82149000D01*
X191284000Y-82160000D01*
X191238000Y-82169000D01*
X191191000Y-82175000D01*
X191144000Y-82179000D01*
X191097000Y-82180000D01*
X188597000Y-82180000D01*
X188597000Y-80380000D01*
X191097000Y-80380000D01*
X191144000Y-80381000D01*
G37*
X191144000Y-77841000D02*
X191191000Y-77845000D01*
X191238000Y-77851000D01*
X191284000Y-77860000D01*
X191330000Y-77871000D01*
X191375000Y-77884000D01*
X191420000Y-77900000D01*
X191463000Y-77918000D01*
X191506000Y-77938000D01*
X191547000Y-77961000D01*
X191587000Y-77985000D01*
X191626000Y-78012000D01*
X191663000Y-78041000D01*
X191699000Y-78071000D01*
X191733000Y-78104000D01*
X191766000Y-78138000D01*
X191796000Y-78174000D01*
X191825000Y-78211000D01*
X191852000Y-78250000D01*
X191876000Y-78290000D01*
X191899000Y-78331000D01*
X191919000Y-78374000D01*
X191937000Y-78417000D01*
X191953000Y-78462000D01*
X191966000Y-78507000D01*
X191977000Y-78553000D01*
X191986000Y-78599000D01*
X191992000Y-78646000D01*
X191996000Y-78693000D01*
X191997000Y-78740000D01*
X191996000Y-78787000D01*
X191992000Y-78834000D01*
X191986000Y-78881000D01*
X191977000Y-78927000D01*
X191966000Y-78973000D01*
X191953000Y-79018000D01*
X191937000Y-79063000D01*
X191919000Y-79106000D01*
X191899000Y-79149000D01*
X191876000Y-79190000D01*
X191852000Y-79230000D01*
X191825000Y-79269000D01*
X191796000Y-79306000D01*
X191766000Y-79342000D01*
X191733000Y-79376000D01*
X191699000Y-79409000D01*
X191663000Y-79439000D01*
X191626000Y-79468000D01*
X191587000Y-79495000D01*
X191547000Y-79519000D01*
X191506000Y-79542000D01*
X191463000Y-79562000D01*
X191420000Y-79580000D01*
X191375000Y-79596000D01*
X191330000Y-79609000D01*
X191284000Y-79620000D01*
X191238000Y-79629000D01*
X191191000Y-79635000D01*
X191144000Y-79639000D01*
X191097000Y-79640000D01*
X188597000Y-79640000D01*
X188597000Y-77840000D01*
X191097000Y-77840000D01*
X191144000Y-77841000D01*
G36*
X191144000Y-77841000D02*
G01*
X191191000Y-77845000D01*
X191238000Y-77851000D01*
X191284000Y-77860000D01*
X191330000Y-77871000D01*
X191375000Y-77884000D01*
X191420000Y-77900000D01*
X191463000Y-77918000D01*
X191506000Y-77938000D01*
X191547000Y-77961000D01*
X191587000Y-77985000D01*
X191626000Y-78012000D01*
X191663000Y-78041000D01*
X191699000Y-78071000D01*
X191733000Y-78104000D01*
X191766000Y-78138000D01*
X191796000Y-78174000D01*
X191825000Y-78211000D01*
X191852000Y-78250000D01*
X191876000Y-78290000D01*
X191899000Y-78331000D01*
X191919000Y-78374000D01*
X191937000Y-78417000D01*
X191953000Y-78462000D01*
X191966000Y-78507000D01*
X191977000Y-78553000D01*
X191986000Y-78599000D01*
X191992000Y-78646000D01*
X191996000Y-78693000D01*
X191997000Y-78740000D01*
X191996000Y-78787000D01*
X191992000Y-78834000D01*
X191986000Y-78881000D01*
X191977000Y-78927000D01*
X191966000Y-78973000D01*
X191953000Y-79018000D01*
X191937000Y-79063000D01*
X191919000Y-79106000D01*
X191899000Y-79149000D01*
X191876000Y-79190000D01*
X191852000Y-79230000D01*
X191825000Y-79269000D01*
X191796000Y-79306000D01*
X191766000Y-79342000D01*
X191733000Y-79376000D01*
X191699000Y-79409000D01*
X191663000Y-79439000D01*
X191626000Y-79468000D01*
X191587000Y-79495000D01*
X191547000Y-79519000D01*
X191506000Y-79542000D01*
X191463000Y-79562000D01*
X191420000Y-79580000D01*
X191375000Y-79596000D01*
X191330000Y-79609000D01*
X191284000Y-79620000D01*
X191238000Y-79629000D01*
X191191000Y-79635000D01*
X191144000Y-79639000D01*
X191097000Y-79640000D01*
X188597000Y-79640000D01*
X188597000Y-77840000D01*
X191097000Y-77840000D01*
X191144000Y-77841000D01*
G37*
X191144000Y-75301000D02*
X191191000Y-75305000D01*
X191238000Y-75311000D01*
X191284000Y-75320000D01*
X191330000Y-75331000D01*
X191375000Y-75344000D01*
X191420000Y-75360000D01*
X191463000Y-75378000D01*
X191506000Y-75398000D01*
X191547000Y-75421000D01*
X191587000Y-75445000D01*
X191626000Y-75472000D01*
X191663000Y-75501000D01*
X191699000Y-75531000D01*
X191733000Y-75564000D01*
X191766000Y-75598000D01*
X191796000Y-75634000D01*
X191825000Y-75671000D01*
X191852000Y-75710000D01*
X191876000Y-75750000D01*
X191899000Y-75791000D01*
X191919000Y-75834000D01*
X191937000Y-75877000D01*
X191953000Y-75922000D01*
X191966000Y-75967000D01*
X191977000Y-76013000D01*
X191986000Y-76059000D01*
X191992000Y-76106000D01*
X191996000Y-76153000D01*
X191997000Y-76200000D01*
X191996000Y-76247000D01*
X191992000Y-76294000D01*
X191986000Y-76341000D01*
X191977000Y-76387000D01*
X191966000Y-76433000D01*
X191953000Y-76478000D01*
X191937000Y-76523000D01*
X191919000Y-76566000D01*
X191899000Y-76609000D01*
X191876000Y-76650000D01*
X191852000Y-76690000D01*
X191825000Y-76729000D01*
X191796000Y-76766000D01*
X191766000Y-76802000D01*
X191733000Y-76836000D01*
X191699000Y-76869000D01*
X191663000Y-76899000D01*
X191626000Y-76928000D01*
X191587000Y-76955000D01*
X191547000Y-76979000D01*
X191506000Y-77002000D01*
X191463000Y-77022000D01*
X191420000Y-77040000D01*
X191375000Y-77056000D01*
X191330000Y-77069000D01*
X191284000Y-77080000D01*
X191238000Y-77089000D01*
X191191000Y-77095000D01*
X191144000Y-77099000D01*
X191097000Y-77100000D01*
X188597000Y-77100000D01*
X188597000Y-75300000D01*
X191097000Y-75300000D01*
X191144000Y-75301000D01*
G36*
X191144000Y-75301000D02*
G01*
X191191000Y-75305000D01*
X191238000Y-75311000D01*
X191284000Y-75320000D01*
X191330000Y-75331000D01*
X191375000Y-75344000D01*
X191420000Y-75360000D01*
X191463000Y-75378000D01*
X191506000Y-75398000D01*
X191547000Y-75421000D01*
X191587000Y-75445000D01*
X191626000Y-75472000D01*
X191663000Y-75501000D01*
X191699000Y-75531000D01*
X191733000Y-75564000D01*
X191766000Y-75598000D01*
X191796000Y-75634000D01*
X191825000Y-75671000D01*
X191852000Y-75710000D01*
X191876000Y-75750000D01*
X191899000Y-75791000D01*
X191919000Y-75834000D01*
X191937000Y-75877000D01*
X191953000Y-75922000D01*
X191966000Y-75967000D01*
X191977000Y-76013000D01*
X191986000Y-76059000D01*
X191992000Y-76106000D01*
X191996000Y-76153000D01*
X191997000Y-76200000D01*
X191996000Y-76247000D01*
X191992000Y-76294000D01*
X191986000Y-76341000D01*
X191977000Y-76387000D01*
X191966000Y-76433000D01*
X191953000Y-76478000D01*
X191937000Y-76523000D01*
X191919000Y-76566000D01*
X191899000Y-76609000D01*
X191876000Y-76650000D01*
X191852000Y-76690000D01*
X191825000Y-76729000D01*
X191796000Y-76766000D01*
X191766000Y-76802000D01*
X191733000Y-76836000D01*
X191699000Y-76869000D01*
X191663000Y-76899000D01*
X191626000Y-76928000D01*
X191587000Y-76955000D01*
X191547000Y-76979000D01*
X191506000Y-77002000D01*
X191463000Y-77022000D01*
X191420000Y-77040000D01*
X191375000Y-77056000D01*
X191330000Y-77069000D01*
X191284000Y-77080000D01*
X191238000Y-77089000D01*
X191191000Y-77095000D01*
X191144000Y-77099000D01*
X191097000Y-77100000D01*
X188597000Y-77100000D01*
X188597000Y-75300000D01*
X191097000Y-75300000D01*
X191144000Y-75301000D01*
G37*
X191144000Y-70221000D02*
X191191000Y-70225000D01*
X191238000Y-70231000D01*
X191284000Y-70240000D01*
X191330000Y-70251000D01*
X191375000Y-70264000D01*
X191420000Y-70280000D01*
X191463000Y-70298000D01*
X191506000Y-70318000D01*
X191547000Y-70341000D01*
X191587000Y-70365000D01*
X191626000Y-70392000D01*
X191663000Y-70421000D01*
X191699000Y-70451000D01*
X191733000Y-70484000D01*
X191766000Y-70518000D01*
X191796000Y-70554000D01*
X191825000Y-70591000D01*
X191852000Y-70630000D01*
X191876000Y-70670000D01*
X191899000Y-70711000D01*
X191919000Y-70754000D01*
X191937000Y-70797000D01*
X191953000Y-70842000D01*
X191966000Y-70887000D01*
X191977000Y-70933000D01*
X191986000Y-70979000D01*
X191992000Y-71026000D01*
X191996000Y-71073000D01*
X191997000Y-71120000D01*
X191996000Y-71167000D01*
X191992000Y-71214000D01*
X191986000Y-71261000D01*
X191977000Y-71307000D01*
X191966000Y-71353000D01*
X191953000Y-71398000D01*
X191937000Y-71443000D01*
X191919000Y-71486000D01*
X191899000Y-71529000D01*
X191876000Y-71570000D01*
X191852000Y-71610000D01*
X191825000Y-71649000D01*
X191796000Y-71686000D01*
X191766000Y-71722000D01*
X191733000Y-71756000D01*
X191699000Y-71789000D01*
X191663000Y-71819000D01*
X191626000Y-71848000D01*
X191587000Y-71875000D01*
X191547000Y-71899000D01*
X191506000Y-71922000D01*
X191463000Y-71942000D01*
X191420000Y-71960000D01*
X191375000Y-71976000D01*
X191330000Y-71989000D01*
X191284000Y-72000000D01*
X191238000Y-72009000D01*
X191191000Y-72015000D01*
X191144000Y-72019000D01*
X191097000Y-72020000D01*
X188597000Y-72020000D01*
X188597000Y-70220000D01*
X191097000Y-70220000D01*
X191144000Y-70221000D01*
G36*
X191144000Y-70221000D02*
G01*
X191191000Y-70225000D01*
X191238000Y-70231000D01*
X191284000Y-70240000D01*
X191330000Y-70251000D01*
X191375000Y-70264000D01*
X191420000Y-70280000D01*
X191463000Y-70298000D01*
X191506000Y-70318000D01*
X191547000Y-70341000D01*
X191587000Y-70365000D01*
X191626000Y-70392000D01*
X191663000Y-70421000D01*
X191699000Y-70451000D01*
X191733000Y-70484000D01*
X191766000Y-70518000D01*
X191796000Y-70554000D01*
X191825000Y-70591000D01*
X191852000Y-70630000D01*
X191876000Y-70670000D01*
X191899000Y-70711000D01*
X191919000Y-70754000D01*
X191937000Y-70797000D01*
X191953000Y-70842000D01*
X191966000Y-70887000D01*
X191977000Y-70933000D01*
X191986000Y-70979000D01*
X191992000Y-71026000D01*
X191996000Y-71073000D01*
X191997000Y-71120000D01*
X191996000Y-71167000D01*
X191992000Y-71214000D01*
X191986000Y-71261000D01*
X191977000Y-71307000D01*
X191966000Y-71353000D01*
X191953000Y-71398000D01*
X191937000Y-71443000D01*
X191919000Y-71486000D01*
X191899000Y-71529000D01*
X191876000Y-71570000D01*
X191852000Y-71610000D01*
X191825000Y-71649000D01*
X191796000Y-71686000D01*
X191766000Y-71722000D01*
X191733000Y-71756000D01*
X191699000Y-71789000D01*
X191663000Y-71819000D01*
X191626000Y-71848000D01*
X191587000Y-71875000D01*
X191547000Y-71899000D01*
X191506000Y-71922000D01*
X191463000Y-71942000D01*
X191420000Y-71960000D01*
X191375000Y-71976000D01*
X191330000Y-71989000D01*
X191284000Y-72000000D01*
X191238000Y-72009000D01*
X191191000Y-72015000D01*
X191144000Y-72019000D01*
X191097000Y-72020000D01*
X188597000Y-72020000D01*
X188597000Y-70220000D01*
X191097000Y-70220000D01*
X191144000Y-70221000D01*
G37*
X191144000Y-67681000D02*
X191191000Y-67685000D01*
X191238000Y-67691000D01*
X191284000Y-67700000D01*
X191330000Y-67711000D01*
X191375000Y-67724000D01*
X191420000Y-67740000D01*
X191463000Y-67758000D01*
X191506000Y-67778000D01*
X191547000Y-67801000D01*
X191587000Y-67825000D01*
X191626000Y-67852000D01*
X191663000Y-67881000D01*
X191699000Y-67911000D01*
X191733000Y-67944000D01*
X191766000Y-67978000D01*
X191796000Y-68014000D01*
X191825000Y-68051000D01*
X191852000Y-68090000D01*
X191876000Y-68130000D01*
X191899000Y-68171000D01*
X191919000Y-68214000D01*
X191937000Y-68257000D01*
X191953000Y-68302000D01*
X191966000Y-68347000D01*
X191977000Y-68393000D01*
X191986000Y-68439000D01*
X191992000Y-68486000D01*
X191996000Y-68533000D01*
X191997000Y-68580000D01*
X191996000Y-68627000D01*
X191992000Y-68674000D01*
X191986000Y-68721000D01*
X191977000Y-68767000D01*
X191966000Y-68813000D01*
X191953000Y-68858000D01*
X191937000Y-68903000D01*
X191919000Y-68946000D01*
X191899000Y-68989000D01*
X191876000Y-69030000D01*
X191852000Y-69070000D01*
X191825000Y-69109000D01*
X191796000Y-69146000D01*
X191766000Y-69182000D01*
X191733000Y-69216000D01*
X191699000Y-69249000D01*
X191663000Y-69279000D01*
X191626000Y-69308000D01*
X191587000Y-69335000D01*
X191547000Y-69359000D01*
X191506000Y-69382000D01*
X191463000Y-69402000D01*
X191420000Y-69420000D01*
X191375000Y-69436000D01*
X191330000Y-69449000D01*
X191284000Y-69460000D01*
X191238000Y-69469000D01*
X191191000Y-69475000D01*
X191144000Y-69479000D01*
X191097000Y-69480000D01*
X188597000Y-69480000D01*
X188597000Y-67680000D01*
X191097000Y-67680000D01*
X191144000Y-67681000D01*
G36*
X191144000Y-67681000D02*
G01*
X191191000Y-67685000D01*
X191238000Y-67691000D01*
X191284000Y-67700000D01*
X191330000Y-67711000D01*
X191375000Y-67724000D01*
X191420000Y-67740000D01*
X191463000Y-67758000D01*
X191506000Y-67778000D01*
X191547000Y-67801000D01*
X191587000Y-67825000D01*
X191626000Y-67852000D01*
X191663000Y-67881000D01*
X191699000Y-67911000D01*
X191733000Y-67944000D01*
X191766000Y-67978000D01*
X191796000Y-68014000D01*
X191825000Y-68051000D01*
X191852000Y-68090000D01*
X191876000Y-68130000D01*
X191899000Y-68171000D01*
X191919000Y-68214000D01*
X191937000Y-68257000D01*
X191953000Y-68302000D01*
X191966000Y-68347000D01*
X191977000Y-68393000D01*
X191986000Y-68439000D01*
X191992000Y-68486000D01*
X191996000Y-68533000D01*
X191997000Y-68580000D01*
X191996000Y-68627000D01*
X191992000Y-68674000D01*
X191986000Y-68721000D01*
X191977000Y-68767000D01*
X191966000Y-68813000D01*
X191953000Y-68858000D01*
X191937000Y-68903000D01*
X191919000Y-68946000D01*
X191899000Y-68989000D01*
X191876000Y-69030000D01*
X191852000Y-69070000D01*
X191825000Y-69109000D01*
X191796000Y-69146000D01*
X191766000Y-69182000D01*
X191733000Y-69216000D01*
X191699000Y-69249000D01*
X191663000Y-69279000D01*
X191626000Y-69308000D01*
X191587000Y-69335000D01*
X191547000Y-69359000D01*
X191506000Y-69382000D01*
X191463000Y-69402000D01*
X191420000Y-69420000D01*
X191375000Y-69436000D01*
X191330000Y-69449000D01*
X191284000Y-69460000D01*
X191238000Y-69469000D01*
X191191000Y-69475000D01*
X191144000Y-69479000D01*
X191097000Y-69480000D01*
X188597000Y-69480000D01*
X188597000Y-67680000D01*
X191097000Y-67680000D01*
X191144000Y-67681000D01*
G37*
X191144000Y-65141000D02*
X191191000Y-65145000D01*
X191238000Y-65151000D01*
X191284000Y-65160000D01*
X191330000Y-65171000D01*
X191375000Y-65184000D01*
X191420000Y-65200000D01*
X191463000Y-65218000D01*
X191506000Y-65238000D01*
X191547000Y-65261000D01*
X191587000Y-65285000D01*
X191626000Y-65312000D01*
X191663000Y-65341000D01*
X191699000Y-65371000D01*
X191733000Y-65404000D01*
X191766000Y-65438000D01*
X191796000Y-65474000D01*
X191825000Y-65511000D01*
X191852000Y-65550000D01*
X191876000Y-65590000D01*
X191899000Y-65631000D01*
X191919000Y-65674000D01*
X191937000Y-65717000D01*
X191953000Y-65762000D01*
X191966000Y-65807000D01*
X191977000Y-65853000D01*
X191986000Y-65899000D01*
X191992000Y-65946000D01*
X191996000Y-65993000D01*
X191997000Y-66040000D01*
X191996000Y-66087000D01*
X191992000Y-66134000D01*
X191986000Y-66181000D01*
X191977000Y-66227000D01*
X191966000Y-66273000D01*
X191953000Y-66318000D01*
X191937000Y-66363000D01*
X191919000Y-66406000D01*
X191899000Y-66449000D01*
X191876000Y-66490000D01*
X191852000Y-66530000D01*
X191825000Y-66569000D01*
X191796000Y-66606000D01*
X191766000Y-66642000D01*
X191733000Y-66676000D01*
X191699000Y-66709000D01*
X191663000Y-66739000D01*
X191626000Y-66768000D01*
X191587000Y-66795000D01*
X191547000Y-66819000D01*
X191506000Y-66842000D01*
X191463000Y-66862000D01*
X191420000Y-66880000D01*
X191375000Y-66896000D01*
X191330000Y-66909000D01*
X191284000Y-66920000D01*
X191238000Y-66929000D01*
X191191000Y-66935000D01*
X191144000Y-66939000D01*
X191097000Y-66940000D01*
X188597000Y-66940000D01*
X188597000Y-65140000D01*
X191097000Y-65140000D01*
X191144000Y-65141000D01*
G36*
X191144000Y-65141000D02*
G01*
X191191000Y-65145000D01*
X191238000Y-65151000D01*
X191284000Y-65160000D01*
X191330000Y-65171000D01*
X191375000Y-65184000D01*
X191420000Y-65200000D01*
X191463000Y-65218000D01*
X191506000Y-65238000D01*
X191547000Y-65261000D01*
X191587000Y-65285000D01*
X191626000Y-65312000D01*
X191663000Y-65341000D01*
X191699000Y-65371000D01*
X191733000Y-65404000D01*
X191766000Y-65438000D01*
X191796000Y-65474000D01*
X191825000Y-65511000D01*
X191852000Y-65550000D01*
X191876000Y-65590000D01*
X191899000Y-65631000D01*
X191919000Y-65674000D01*
X191937000Y-65717000D01*
X191953000Y-65762000D01*
X191966000Y-65807000D01*
X191977000Y-65853000D01*
X191986000Y-65899000D01*
X191992000Y-65946000D01*
X191996000Y-65993000D01*
X191997000Y-66040000D01*
X191996000Y-66087000D01*
X191992000Y-66134000D01*
X191986000Y-66181000D01*
X191977000Y-66227000D01*
X191966000Y-66273000D01*
X191953000Y-66318000D01*
X191937000Y-66363000D01*
X191919000Y-66406000D01*
X191899000Y-66449000D01*
X191876000Y-66490000D01*
X191852000Y-66530000D01*
X191825000Y-66569000D01*
X191796000Y-66606000D01*
X191766000Y-66642000D01*
X191733000Y-66676000D01*
X191699000Y-66709000D01*
X191663000Y-66739000D01*
X191626000Y-66768000D01*
X191587000Y-66795000D01*
X191547000Y-66819000D01*
X191506000Y-66842000D01*
X191463000Y-66862000D01*
X191420000Y-66880000D01*
X191375000Y-66896000D01*
X191330000Y-66909000D01*
X191284000Y-66920000D01*
X191238000Y-66929000D01*
X191191000Y-66935000D01*
X191144000Y-66939000D01*
X191097000Y-66940000D01*
X188597000Y-66940000D01*
X188597000Y-65140000D01*
X191097000Y-65140000D01*
X191144000Y-65141000D01*
G37*
X191144000Y-62601000D02*
X191191000Y-62605000D01*
X191238000Y-62611000D01*
X191284000Y-62620000D01*
X191330000Y-62631000D01*
X191375000Y-62644000D01*
X191420000Y-62660000D01*
X191463000Y-62678000D01*
X191506000Y-62698000D01*
X191547000Y-62721000D01*
X191587000Y-62745000D01*
X191626000Y-62772000D01*
X191663000Y-62801000D01*
X191699000Y-62831000D01*
X191733000Y-62864000D01*
X191766000Y-62898000D01*
X191796000Y-62934000D01*
X191825000Y-62971000D01*
X191852000Y-63010000D01*
X191876000Y-63050000D01*
X191899000Y-63091000D01*
X191919000Y-63134000D01*
X191937000Y-63177000D01*
X191953000Y-63222000D01*
X191966000Y-63267000D01*
X191977000Y-63313000D01*
X191986000Y-63359000D01*
X191992000Y-63406000D01*
X191996000Y-63453000D01*
X191997000Y-63500000D01*
X191996000Y-63547000D01*
X191992000Y-63594000D01*
X191986000Y-63641000D01*
X191977000Y-63687000D01*
X191966000Y-63733000D01*
X191953000Y-63778000D01*
X191937000Y-63823000D01*
X191919000Y-63866000D01*
X191899000Y-63909000D01*
X191876000Y-63950000D01*
X191852000Y-63990000D01*
X191825000Y-64029000D01*
X191796000Y-64066000D01*
X191766000Y-64102000D01*
X191733000Y-64136000D01*
X191699000Y-64169000D01*
X191663000Y-64199000D01*
X191626000Y-64228000D01*
X191587000Y-64255000D01*
X191547000Y-64279000D01*
X191506000Y-64302000D01*
X191463000Y-64322000D01*
X191420000Y-64340000D01*
X191375000Y-64356000D01*
X191330000Y-64369000D01*
X191284000Y-64380000D01*
X191238000Y-64389000D01*
X191191000Y-64395000D01*
X191144000Y-64399000D01*
X191097000Y-64400000D01*
X188597000Y-64400000D01*
X188597000Y-62600000D01*
X191097000Y-62600000D01*
X191144000Y-62601000D01*
G36*
X191144000Y-62601000D02*
G01*
X191191000Y-62605000D01*
X191238000Y-62611000D01*
X191284000Y-62620000D01*
X191330000Y-62631000D01*
X191375000Y-62644000D01*
X191420000Y-62660000D01*
X191463000Y-62678000D01*
X191506000Y-62698000D01*
X191547000Y-62721000D01*
X191587000Y-62745000D01*
X191626000Y-62772000D01*
X191663000Y-62801000D01*
X191699000Y-62831000D01*
X191733000Y-62864000D01*
X191766000Y-62898000D01*
X191796000Y-62934000D01*
X191825000Y-62971000D01*
X191852000Y-63010000D01*
X191876000Y-63050000D01*
X191899000Y-63091000D01*
X191919000Y-63134000D01*
X191937000Y-63177000D01*
X191953000Y-63222000D01*
X191966000Y-63267000D01*
X191977000Y-63313000D01*
X191986000Y-63359000D01*
X191992000Y-63406000D01*
X191996000Y-63453000D01*
X191997000Y-63500000D01*
X191996000Y-63547000D01*
X191992000Y-63594000D01*
X191986000Y-63641000D01*
X191977000Y-63687000D01*
X191966000Y-63733000D01*
X191953000Y-63778000D01*
X191937000Y-63823000D01*
X191919000Y-63866000D01*
X191899000Y-63909000D01*
X191876000Y-63950000D01*
X191852000Y-63990000D01*
X191825000Y-64029000D01*
X191796000Y-64066000D01*
X191766000Y-64102000D01*
X191733000Y-64136000D01*
X191699000Y-64169000D01*
X191663000Y-64199000D01*
X191626000Y-64228000D01*
X191587000Y-64255000D01*
X191547000Y-64279000D01*
X191506000Y-64302000D01*
X191463000Y-64322000D01*
X191420000Y-64340000D01*
X191375000Y-64356000D01*
X191330000Y-64369000D01*
X191284000Y-64380000D01*
X191238000Y-64389000D01*
X191191000Y-64395000D01*
X191144000Y-64399000D01*
X191097000Y-64400000D01*
X188597000Y-64400000D01*
X188597000Y-62600000D01*
X191097000Y-62600000D01*
X191144000Y-62601000D01*
G37*
X191144000Y-57521000D02*
X191191000Y-57525000D01*
X191238000Y-57531000D01*
X191284000Y-57540000D01*
X191330000Y-57551000D01*
X191375000Y-57564000D01*
X191420000Y-57580000D01*
X191463000Y-57598000D01*
X191506000Y-57618000D01*
X191547000Y-57641000D01*
X191587000Y-57665000D01*
X191626000Y-57692000D01*
X191663000Y-57721000D01*
X191699000Y-57751000D01*
X191733000Y-57784000D01*
X191766000Y-57818000D01*
X191796000Y-57854000D01*
X191825000Y-57891000D01*
X191852000Y-57930000D01*
X191876000Y-57970000D01*
X191899000Y-58011000D01*
X191919000Y-58054000D01*
X191937000Y-58097000D01*
X191953000Y-58142000D01*
X191966000Y-58187000D01*
X191977000Y-58233000D01*
X191986000Y-58279000D01*
X191992000Y-58326000D01*
X191996000Y-58373000D01*
X191997000Y-58420000D01*
X191996000Y-58467000D01*
X191992000Y-58514000D01*
X191986000Y-58561000D01*
X191977000Y-58607000D01*
X191966000Y-58653000D01*
X191953000Y-58698000D01*
X191937000Y-58743000D01*
X191919000Y-58786000D01*
X191899000Y-58829000D01*
X191876000Y-58870000D01*
X191852000Y-58910000D01*
X191825000Y-58949000D01*
X191796000Y-58986000D01*
X191766000Y-59022000D01*
X191733000Y-59056000D01*
X191699000Y-59089000D01*
X191663000Y-59119000D01*
X191626000Y-59148000D01*
X191587000Y-59175000D01*
X191547000Y-59199000D01*
X191506000Y-59222000D01*
X191463000Y-59242000D01*
X191420000Y-59260000D01*
X191375000Y-59276000D01*
X191330000Y-59289000D01*
X191284000Y-59300000D01*
X191238000Y-59309000D01*
X191191000Y-59315000D01*
X191144000Y-59319000D01*
X191097000Y-59320000D01*
X188597000Y-59320000D01*
X188597000Y-57520000D01*
X191097000Y-57520000D01*
X191144000Y-57521000D01*
G36*
X191144000Y-57521000D02*
G01*
X191191000Y-57525000D01*
X191238000Y-57531000D01*
X191284000Y-57540000D01*
X191330000Y-57551000D01*
X191375000Y-57564000D01*
X191420000Y-57580000D01*
X191463000Y-57598000D01*
X191506000Y-57618000D01*
X191547000Y-57641000D01*
X191587000Y-57665000D01*
X191626000Y-57692000D01*
X191663000Y-57721000D01*
X191699000Y-57751000D01*
X191733000Y-57784000D01*
X191766000Y-57818000D01*
X191796000Y-57854000D01*
X191825000Y-57891000D01*
X191852000Y-57930000D01*
X191876000Y-57970000D01*
X191899000Y-58011000D01*
X191919000Y-58054000D01*
X191937000Y-58097000D01*
X191953000Y-58142000D01*
X191966000Y-58187000D01*
X191977000Y-58233000D01*
X191986000Y-58279000D01*
X191992000Y-58326000D01*
X191996000Y-58373000D01*
X191997000Y-58420000D01*
X191996000Y-58467000D01*
X191992000Y-58514000D01*
X191986000Y-58561000D01*
X191977000Y-58607000D01*
X191966000Y-58653000D01*
X191953000Y-58698000D01*
X191937000Y-58743000D01*
X191919000Y-58786000D01*
X191899000Y-58829000D01*
X191876000Y-58870000D01*
X191852000Y-58910000D01*
X191825000Y-58949000D01*
X191796000Y-58986000D01*
X191766000Y-59022000D01*
X191733000Y-59056000D01*
X191699000Y-59089000D01*
X191663000Y-59119000D01*
X191626000Y-59148000D01*
X191587000Y-59175000D01*
X191547000Y-59199000D01*
X191506000Y-59222000D01*
X191463000Y-59242000D01*
X191420000Y-59260000D01*
X191375000Y-59276000D01*
X191330000Y-59289000D01*
X191284000Y-59300000D01*
X191238000Y-59309000D01*
X191191000Y-59315000D01*
X191144000Y-59319000D01*
X191097000Y-59320000D01*
X188597000Y-59320000D01*
X188597000Y-57520000D01*
X191097000Y-57520000D01*
X191144000Y-57521000D01*
G37*
X191144000Y-54981000D02*
X191191000Y-54985000D01*
X191238000Y-54991000D01*
X191284000Y-55000000D01*
X191330000Y-55011000D01*
X191375000Y-55024000D01*
X191420000Y-55040000D01*
X191463000Y-55058000D01*
X191506000Y-55078000D01*
X191547000Y-55101000D01*
X191587000Y-55125000D01*
X191626000Y-55152000D01*
X191663000Y-55181000D01*
X191699000Y-55211000D01*
X191733000Y-55244000D01*
X191766000Y-55278000D01*
X191796000Y-55314000D01*
X191825000Y-55351000D01*
X191852000Y-55390000D01*
X191876000Y-55430000D01*
X191899000Y-55471000D01*
X191919000Y-55514000D01*
X191937000Y-55557000D01*
X191953000Y-55602000D01*
X191966000Y-55647000D01*
X191977000Y-55693000D01*
X191986000Y-55739000D01*
X191992000Y-55786000D01*
X191996000Y-55833000D01*
X191997000Y-55880000D01*
X191996000Y-55927000D01*
X191992000Y-55974000D01*
X191986000Y-56021000D01*
X191977000Y-56067000D01*
X191966000Y-56113000D01*
X191953000Y-56158000D01*
X191937000Y-56203000D01*
X191919000Y-56246000D01*
X191899000Y-56289000D01*
X191876000Y-56330000D01*
X191852000Y-56370000D01*
X191825000Y-56409000D01*
X191796000Y-56446000D01*
X191766000Y-56482000D01*
X191733000Y-56516000D01*
X191699000Y-56549000D01*
X191663000Y-56579000D01*
X191626000Y-56608000D01*
X191587000Y-56635000D01*
X191547000Y-56659000D01*
X191506000Y-56682000D01*
X191463000Y-56702000D01*
X191420000Y-56720000D01*
X191375000Y-56736000D01*
X191330000Y-56749000D01*
X191284000Y-56760000D01*
X191238000Y-56769000D01*
X191191000Y-56775000D01*
X191144000Y-56779000D01*
X191097000Y-56780000D01*
X188597000Y-56780000D01*
X188597000Y-54980000D01*
X191097000Y-54980000D01*
X191144000Y-54981000D01*
G36*
X191144000Y-54981000D02*
G01*
X191191000Y-54985000D01*
X191238000Y-54991000D01*
X191284000Y-55000000D01*
X191330000Y-55011000D01*
X191375000Y-55024000D01*
X191420000Y-55040000D01*
X191463000Y-55058000D01*
X191506000Y-55078000D01*
X191547000Y-55101000D01*
X191587000Y-55125000D01*
X191626000Y-55152000D01*
X191663000Y-55181000D01*
X191699000Y-55211000D01*
X191733000Y-55244000D01*
X191766000Y-55278000D01*
X191796000Y-55314000D01*
X191825000Y-55351000D01*
X191852000Y-55390000D01*
X191876000Y-55430000D01*
X191899000Y-55471000D01*
X191919000Y-55514000D01*
X191937000Y-55557000D01*
X191953000Y-55602000D01*
X191966000Y-55647000D01*
X191977000Y-55693000D01*
X191986000Y-55739000D01*
X191992000Y-55786000D01*
X191996000Y-55833000D01*
X191997000Y-55880000D01*
X191996000Y-55927000D01*
X191992000Y-55974000D01*
X191986000Y-56021000D01*
X191977000Y-56067000D01*
X191966000Y-56113000D01*
X191953000Y-56158000D01*
X191937000Y-56203000D01*
X191919000Y-56246000D01*
X191899000Y-56289000D01*
X191876000Y-56330000D01*
X191852000Y-56370000D01*
X191825000Y-56409000D01*
X191796000Y-56446000D01*
X191766000Y-56482000D01*
X191733000Y-56516000D01*
X191699000Y-56549000D01*
X191663000Y-56579000D01*
X191626000Y-56608000D01*
X191587000Y-56635000D01*
X191547000Y-56659000D01*
X191506000Y-56682000D01*
X191463000Y-56702000D01*
X191420000Y-56720000D01*
X191375000Y-56736000D01*
X191330000Y-56749000D01*
X191284000Y-56760000D01*
X191238000Y-56769000D01*
X191191000Y-56775000D01*
X191144000Y-56779000D01*
X191097000Y-56780000D01*
X188597000Y-56780000D01*
X188597000Y-54980000D01*
X191097000Y-54980000D01*
X191144000Y-54981000D01*
G37*
D11*
X219861000Y-57729000D03*
D12*
X213360000Y-98321500D03*
X213360000Y-96496500D03*
X213360000Y-106068500D03*
X213360000Y-104243500D03*
D13*
X220821000Y-104140000D03*
D14*
X220821000Y-101600000D03*
X220821000Y-99060000D03*
X220821000Y-96520000D03*
X220821000Y-93980000D03*
X220821000Y-91440000D03*
X220821000Y-88900000D03*
X220821000Y-86360000D03*
X220821000Y-83820000D03*
X220821000Y-81280000D03*
X220821000Y-78740000D03*
X220821000Y-76200000D03*
D15*
X145034000Y-61468000D03*
X145034000Y-58928000D03*
D11*
X155861000Y-68729000D03*
D16*
X197487000Y-67510000D03*
X197487000Y-65010000D03*
X197487000Y-62510000D03*
X198987000Y-55710000D03*
X200987000Y-55710000D03*
X199987000Y-59010000D03*
D17*
X202412000Y-59040000D03*
X197562000Y-59040000D03*
D18*
X202712000Y-56010000D03*
X197262000Y-56010000D03*
D19*
X164238000Y-109628000D03*
X164238000Y-91848000D03*
D20*
X182018000Y-109628000D03*
X182018000Y-107088000D03*
X182018000Y-104548000D03*
X182018000Y-102008000D03*
X182018000Y-99468000D03*
X182018000Y-96928000D03*
X182018000Y-94388000D03*
X182018000Y-91848000D03*
D21*
X165508000Y-103278000D03*
X165508000Y-98198000D03*
D22*
X145034000Y-103886000D03*
X145034000Y-107696000D03*
D23*
X145034000Y-71628000D03*
X145034000Y-66548000D03*
D24*
X157663000Y-82450000D03*
D25*
X157663000Y-79910000D03*
X157663000Y-77370000D03*
D22*
X145034000Y-76200000D03*
X145034000Y-80010000D03*
D26*
X167132000Y-58420000D03*
X163322000Y-58420000D03*
D24*
X157663000Y-105818000D03*
D25*
X157663000Y-103278000D03*
X157663000Y-100738000D03*
D19*
X164138000Y-86160000D03*
X164138000Y-68380000D03*
D20*
X181918000Y-86160000D03*
X181918000Y-83620000D03*
X181918000Y-81080000D03*
X181918000Y-78540000D03*
X181918000Y-76000000D03*
X181918000Y-73460000D03*
X181918000Y-70920000D03*
X181918000Y-68380000D03*
D21*
X165408000Y-79810000D03*
X165408000Y-74730000D03*
D11*
X155861000Y-112729000D03*
D27*
X171704000Y-58420000D03*
X176784000Y-58420000D03*
D11*
X219861000Y-112729000D03*
D15*
X181864000Y-58420000D03*
X184404000Y-58420000D03*
D23*
X145034000Y-99314000D03*
X145034000Y-94234000D03*
D15*
X145034000Y-89154000D03*
X145034000Y-86614000D03*
M02*
