G04 #@! TF.GenerationSoftware,KiCad,Pcbnew,7.0.8*
G04 #@! TF.CreationDate,2023-10-27T17:24:16-04:00*
G04 #@! TF.ProjectId,IPTC Power Distribution and Control,49505443-2050-46f7-9765-722044697374,rev?*
G04 #@! TF.SameCoordinates,Original*
G04 #@! TF.FileFunction,Paste,Top*
G04 #@! TF.FilePolarity,Positive*
%FSLAX46Y46*%
G04 Gerber Fmt 4.6, Leading zero omitted, Abs format (unit mm)*
G04 Created by KiCad (PCBNEW 7.0.8) date 2023-10-27 17:24:16*
%MOMM*%
%LPD*%
G01*
G04 APERTURE LIST*
G04 Aperture macros list*
%AMRoundRect*
0 Rectangle with rounded corners*
0 $1 Rounding radius*
0 $2 $3 $4 $5 $6 $7 $8 $9 X,Y pos of 4 corners*
0 Add a 4 corners polygon primitive as box body*
4,1,4,$2,$3,$4,$5,$6,$7,$8,$9,$2,$3,0*
0 Add four circle primitives for the rounded corners*
1,1,$1+$1,$2,$3*
1,1,$1+$1,$4,$5*
1,1,$1+$1,$6,$7*
1,1,$1+$1,$8,$9*
0 Add four rect primitives between the rounded corners*
20,1,$1+$1,$2,$3,$4,$5,0*
20,1,$1+$1,$4,$5,$6,$7,0*
20,1,$1+$1,$6,$7,$8,$9,0*
20,1,$1+$1,$8,$9,$2,$3,0*%
G04 Aperture macros list end*
%ADD10C,0.010000*%
%ADD11RoundRect,0.237500X0.237500X-0.250000X0.237500X0.250000X-0.237500X0.250000X-0.237500X-0.250000X0*%
%ADD12RoundRect,0.450000X-0.300000X-0.300000X0.300000X-0.300000X0.300000X0.300000X-0.300000X0.300000X0*%
%ADD13O,1.050000X1.450000*%
%ADD14O,1.100000X1.800000*%
%ADD15R,4.000000X2.500000*%
%ADD16R,2.500000X4.000000*%
G04 APERTURE END LIST*
D10*
X211277000Y-99860000D02*
X208277000Y-99860000D01*
X208267000Y-99860000D01*
X208256000Y-99859000D01*
X208246000Y-99858000D01*
X208235000Y-99856000D01*
X208225000Y-99853000D01*
X208215000Y-99850000D01*
X208205000Y-99847000D01*
X208196000Y-99843000D01*
X208186000Y-99838000D01*
X208177000Y-99833000D01*
X208168000Y-99828000D01*
X208159000Y-99822000D01*
X208151000Y-99815000D01*
X208143000Y-99809000D01*
X208136000Y-99801000D01*
X208128000Y-99794000D01*
X208122000Y-99786000D01*
X208115000Y-99778000D01*
X208109000Y-99769000D01*
X208104000Y-99760000D01*
X208099000Y-99751000D01*
X208094000Y-99741000D01*
X208090000Y-99732000D01*
X208087000Y-99722000D01*
X208084000Y-99712000D01*
X208081000Y-99702000D01*
X208079000Y-99691000D01*
X208078000Y-99681000D01*
X208077000Y-99670000D01*
X208077000Y-99660000D01*
X208077000Y-98460000D01*
X208077000Y-98450000D01*
X208078000Y-98439000D01*
X208079000Y-98429000D01*
X208081000Y-98418000D01*
X208084000Y-98408000D01*
X208087000Y-98398000D01*
X208090000Y-98388000D01*
X208094000Y-98379000D01*
X208099000Y-98369000D01*
X208104000Y-98360000D01*
X208109000Y-98351000D01*
X208115000Y-98342000D01*
X208122000Y-98334000D01*
X208128000Y-98326000D01*
X208136000Y-98319000D01*
X208143000Y-98311000D01*
X208151000Y-98305000D01*
X208159000Y-98298000D01*
X208168000Y-98292000D01*
X208177000Y-98287000D01*
X208186000Y-98282000D01*
X208196000Y-98277000D01*
X208205000Y-98273000D01*
X208215000Y-98270000D01*
X208225000Y-98267000D01*
X208235000Y-98264000D01*
X208246000Y-98262000D01*
X208256000Y-98261000D01*
X208267000Y-98260000D01*
X208277000Y-98260000D01*
X211277000Y-98260000D01*
X211277000Y-99860000D01*
G36*
X211277000Y-99860000D02*
G01*
X208277000Y-99860000D01*
X208267000Y-99860000D01*
X208256000Y-99859000D01*
X208246000Y-99858000D01*
X208235000Y-99856000D01*
X208225000Y-99853000D01*
X208215000Y-99850000D01*
X208205000Y-99847000D01*
X208196000Y-99843000D01*
X208186000Y-99838000D01*
X208177000Y-99833000D01*
X208168000Y-99828000D01*
X208159000Y-99822000D01*
X208151000Y-99815000D01*
X208143000Y-99809000D01*
X208136000Y-99801000D01*
X208128000Y-99794000D01*
X208122000Y-99786000D01*
X208115000Y-99778000D01*
X208109000Y-99769000D01*
X208104000Y-99760000D01*
X208099000Y-99751000D01*
X208094000Y-99741000D01*
X208090000Y-99732000D01*
X208087000Y-99722000D01*
X208084000Y-99712000D01*
X208081000Y-99702000D01*
X208079000Y-99691000D01*
X208078000Y-99681000D01*
X208077000Y-99670000D01*
X208077000Y-99660000D01*
X208077000Y-98460000D01*
X208077000Y-98450000D01*
X208078000Y-98439000D01*
X208079000Y-98429000D01*
X208081000Y-98418000D01*
X208084000Y-98408000D01*
X208087000Y-98398000D01*
X208090000Y-98388000D01*
X208094000Y-98379000D01*
X208099000Y-98369000D01*
X208104000Y-98360000D01*
X208109000Y-98351000D01*
X208115000Y-98342000D01*
X208122000Y-98334000D01*
X208128000Y-98326000D01*
X208136000Y-98319000D01*
X208143000Y-98311000D01*
X208151000Y-98305000D01*
X208159000Y-98298000D01*
X208168000Y-98292000D01*
X208177000Y-98287000D01*
X208186000Y-98282000D01*
X208196000Y-98277000D01*
X208205000Y-98273000D01*
X208215000Y-98270000D01*
X208225000Y-98267000D01*
X208235000Y-98264000D01*
X208246000Y-98262000D01*
X208256000Y-98261000D01*
X208267000Y-98260000D01*
X208277000Y-98260000D01*
X211277000Y-98260000D01*
X211277000Y-99860000D01*
G37*
X211277000Y-87160000D02*
X208277000Y-87160000D01*
X208267000Y-87160000D01*
X208256000Y-87159000D01*
X208246000Y-87158000D01*
X208235000Y-87156000D01*
X208225000Y-87153000D01*
X208215000Y-87150000D01*
X208205000Y-87147000D01*
X208196000Y-87143000D01*
X208186000Y-87138000D01*
X208177000Y-87133000D01*
X208168000Y-87128000D01*
X208159000Y-87122000D01*
X208151000Y-87115000D01*
X208143000Y-87109000D01*
X208136000Y-87101000D01*
X208128000Y-87094000D01*
X208122000Y-87086000D01*
X208115000Y-87078000D01*
X208109000Y-87069000D01*
X208104000Y-87060000D01*
X208099000Y-87051000D01*
X208094000Y-87041000D01*
X208090000Y-87032000D01*
X208087000Y-87022000D01*
X208084000Y-87012000D01*
X208081000Y-87002000D01*
X208079000Y-86991000D01*
X208078000Y-86981000D01*
X208077000Y-86970000D01*
X208077000Y-86960000D01*
X208077000Y-85760000D01*
X208077000Y-85750000D01*
X208078000Y-85739000D01*
X208079000Y-85729000D01*
X208081000Y-85718000D01*
X208084000Y-85708000D01*
X208087000Y-85698000D01*
X208090000Y-85688000D01*
X208094000Y-85679000D01*
X208099000Y-85669000D01*
X208104000Y-85660000D01*
X208109000Y-85651000D01*
X208115000Y-85642000D01*
X208122000Y-85634000D01*
X208128000Y-85626000D01*
X208136000Y-85619000D01*
X208143000Y-85611000D01*
X208151000Y-85605000D01*
X208159000Y-85598000D01*
X208168000Y-85592000D01*
X208177000Y-85587000D01*
X208186000Y-85582000D01*
X208196000Y-85577000D01*
X208205000Y-85573000D01*
X208215000Y-85570000D01*
X208225000Y-85567000D01*
X208235000Y-85564000D01*
X208246000Y-85562000D01*
X208256000Y-85561000D01*
X208267000Y-85560000D01*
X208277000Y-85560000D01*
X211277000Y-85560000D01*
X211277000Y-87160000D01*
G36*
X211277000Y-87160000D02*
G01*
X208277000Y-87160000D01*
X208267000Y-87160000D01*
X208256000Y-87159000D01*
X208246000Y-87158000D01*
X208235000Y-87156000D01*
X208225000Y-87153000D01*
X208215000Y-87150000D01*
X208205000Y-87147000D01*
X208196000Y-87143000D01*
X208186000Y-87138000D01*
X208177000Y-87133000D01*
X208168000Y-87128000D01*
X208159000Y-87122000D01*
X208151000Y-87115000D01*
X208143000Y-87109000D01*
X208136000Y-87101000D01*
X208128000Y-87094000D01*
X208122000Y-87086000D01*
X208115000Y-87078000D01*
X208109000Y-87069000D01*
X208104000Y-87060000D01*
X208099000Y-87051000D01*
X208094000Y-87041000D01*
X208090000Y-87032000D01*
X208087000Y-87022000D01*
X208084000Y-87012000D01*
X208081000Y-87002000D01*
X208079000Y-86991000D01*
X208078000Y-86981000D01*
X208077000Y-86970000D01*
X208077000Y-86960000D01*
X208077000Y-85760000D01*
X208077000Y-85750000D01*
X208078000Y-85739000D01*
X208079000Y-85729000D01*
X208081000Y-85718000D01*
X208084000Y-85708000D01*
X208087000Y-85698000D01*
X208090000Y-85688000D01*
X208094000Y-85679000D01*
X208099000Y-85669000D01*
X208104000Y-85660000D01*
X208109000Y-85651000D01*
X208115000Y-85642000D01*
X208122000Y-85634000D01*
X208128000Y-85626000D01*
X208136000Y-85619000D01*
X208143000Y-85611000D01*
X208151000Y-85605000D01*
X208159000Y-85598000D01*
X208168000Y-85592000D01*
X208177000Y-85587000D01*
X208186000Y-85582000D01*
X208196000Y-85577000D01*
X208205000Y-85573000D01*
X208215000Y-85570000D01*
X208225000Y-85567000D01*
X208235000Y-85564000D01*
X208246000Y-85562000D01*
X208256000Y-85561000D01*
X208267000Y-85560000D01*
X208277000Y-85560000D01*
X211277000Y-85560000D01*
X211277000Y-87160000D01*
G37*
X211277000Y-74460000D02*
X208277000Y-74460000D01*
X208267000Y-74460000D01*
X208256000Y-74459000D01*
X208246000Y-74458000D01*
X208235000Y-74456000D01*
X208225000Y-74453000D01*
X208215000Y-74450000D01*
X208205000Y-74447000D01*
X208196000Y-74443000D01*
X208186000Y-74438000D01*
X208177000Y-74433000D01*
X208168000Y-74428000D01*
X208159000Y-74422000D01*
X208151000Y-74415000D01*
X208143000Y-74409000D01*
X208136000Y-74401000D01*
X208128000Y-74394000D01*
X208122000Y-74386000D01*
X208115000Y-74378000D01*
X208109000Y-74369000D01*
X208104000Y-74360000D01*
X208099000Y-74351000D01*
X208094000Y-74341000D01*
X208090000Y-74332000D01*
X208087000Y-74322000D01*
X208084000Y-74312000D01*
X208081000Y-74302000D01*
X208079000Y-74291000D01*
X208078000Y-74281000D01*
X208077000Y-74270000D01*
X208077000Y-74260000D01*
X208077000Y-73060000D01*
X208077000Y-73050000D01*
X208078000Y-73039000D01*
X208079000Y-73029000D01*
X208081000Y-73018000D01*
X208084000Y-73008000D01*
X208087000Y-72998000D01*
X208090000Y-72988000D01*
X208094000Y-72979000D01*
X208099000Y-72969000D01*
X208104000Y-72960000D01*
X208109000Y-72951000D01*
X208115000Y-72942000D01*
X208122000Y-72934000D01*
X208128000Y-72926000D01*
X208136000Y-72919000D01*
X208143000Y-72911000D01*
X208151000Y-72905000D01*
X208159000Y-72898000D01*
X208168000Y-72892000D01*
X208177000Y-72887000D01*
X208186000Y-72882000D01*
X208196000Y-72877000D01*
X208205000Y-72873000D01*
X208215000Y-72870000D01*
X208225000Y-72867000D01*
X208235000Y-72864000D01*
X208246000Y-72862000D01*
X208256000Y-72861000D01*
X208267000Y-72860000D01*
X208277000Y-72860000D01*
X211277000Y-72860000D01*
X211277000Y-74460000D01*
G36*
X211277000Y-74460000D02*
G01*
X208277000Y-74460000D01*
X208267000Y-74460000D01*
X208256000Y-74459000D01*
X208246000Y-74458000D01*
X208235000Y-74456000D01*
X208225000Y-74453000D01*
X208215000Y-74450000D01*
X208205000Y-74447000D01*
X208196000Y-74443000D01*
X208186000Y-74438000D01*
X208177000Y-74433000D01*
X208168000Y-74428000D01*
X208159000Y-74422000D01*
X208151000Y-74415000D01*
X208143000Y-74409000D01*
X208136000Y-74401000D01*
X208128000Y-74394000D01*
X208122000Y-74386000D01*
X208115000Y-74378000D01*
X208109000Y-74369000D01*
X208104000Y-74360000D01*
X208099000Y-74351000D01*
X208094000Y-74341000D01*
X208090000Y-74332000D01*
X208087000Y-74322000D01*
X208084000Y-74312000D01*
X208081000Y-74302000D01*
X208079000Y-74291000D01*
X208078000Y-74281000D01*
X208077000Y-74270000D01*
X208077000Y-74260000D01*
X208077000Y-73060000D01*
X208077000Y-73050000D01*
X208078000Y-73039000D01*
X208079000Y-73029000D01*
X208081000Y-73018000D01*
X208084000Y-73008000D01*
X208087000Y-72998000D01*
X208090000Y-72988000D01*
X208094000Y-72979000D01*
X208099000Y-72969000D01*
X208104000Y-72960000D01*
X208109000Y-72951000D01*
X208115000Y-72942000D01*
X208122000Y-72934000D01*
X208128000Y-72926000D01*
X208136000Y-72919000D01*
X208143000Y-72911000D01*
X208151000Y-72905000D01*
X208159000Y-72898000D01*
X208168000Y-72892000D01*
X208177000Y-72887000D01*
X208186000Y-72882000D01*
X208196000Y-72877000D01*
X208205000Y-72873000D01*
X208215000Y-72870000D01*
X208225000Y-72867000D01*
X208235000Y-72864000D01*
X208246000Y-72862000D01*
X208256000Y-72861000D01*
X208267000Y-72860000D01*
X208277000Y-72860000D01*
X211277000Y-72860000D01*
X211277000Y-74460000D01*
G37*
X211277000Y-61760000D02*
X208277000Y-61760000D01*
X208267000Y-61760000D01*
X208256000Y-61759000D01*
X208246000Y-61758000D01*
X208235000Y-61756000D01*
X208225000Y-61753000D01*
X208215000Y-61750000D01*
X208205000Y-61747000D01*
X208196000Y-61743000D01*
X208186000Y-61738000D01*
X208177000Y-61733000D01*
X208168000Y-61728000D01*
X208159000Y-61722000D01*
X208151000Y-61715000D01*
X208143000Y-61709000D01*
X208136000Y-61701000D01*
X208128000Y-61694000D01*
X208122000Y-61686000D01*
X208115000Y-61678000D01*
X208109000Y-61669000D01*
X208104000Y-61660000D01*
X208099000Y-61651000D01*
X208094000Y-61641000D01*
X208090000Y-61632000D01*
X208087000Y-61622000D01*
X208084000Y-61612000D01*
X208081000Y-61602000D01*
X208079000Y-61591000D01*
X208078000Y-61581000D01*
X208077000Y-61570000D01*
X208077000Y-61560000D01*
X208077000Y-60360000D01*
X208077000Y-60350000D01*
X208078000Y-60339000D01*
X208079000Y-60329000D01*
X208081000Y-60318000D01*
X208084000Y-60308000D01*
X208087000Y-60298000D01*
X208090000Y-60288000D01*
X208094000Y-60279000D01*
X208099000Y-60269000D01*
X208104000Y-60260000D01*
X208109000Y-60251000D01*
X208115000Y-60242000D01*
X208122000Y-60234000D01*
X208128000Y-60226000D01*
X208136000Y-60219000D01*
X208143000Y-60211000D01*
X208151000Y-60205000D01*
X208159000Y-60198000D01*
X208168000Y-60192000D01*
X208177000Y-60187000D01*
X208186000Y-60182000D01*
X208196000Y-60177000D01*
X208205000Y-60173000D01*
X208215000Y-60170000D01*
X208225000Y-60167000D01*
X208235000Y-60164000D01*
X208246000Y-60162000D01*
X208256000Y-60161000D01*
X208267000Y-60160000D01*
X208277000Y-60160000D01*
X211277000Y-60160000D01*
X211277000Y-61760000D01*
G36*
X211277000Y-61760000D02*
G01*
X208277000Y-61760000D01*
X208267000Y-61760000D01*
X208256000Y-61759000D01*
X208246000Y-61758000D01*
X208235000Y-61756000D01*
X208225000Y-61753000D01*
X208215000Y-61750000D01*
X208205000Y-61747000D01*
X208196000Y-61743000D01*
X208186000Y-61738000D01*
X208177000Y-61733000D01*
X208168000Y-61728000D01*
X208159000Y-61722000D01*
X208151000Y-61715000D01*
X208143000Y-61709000D01*
X208136000Y-61701000D01*
X208128000Y-61694000D01*
X208122000Y-61686000D01*
X208115000Y-61678000D01*
X208109000Y-61669000D01*
X208104000Y-61660000D01*
X208099000Y-61651000D01*
X208094000Y-61641000D01*
X208090000Y-61632000D01*
X208087000Y-61622000D01*
X208084000Y-61612000D01*
X208081000Y-61602000D01*
X208079000Y-61591000D01*
X208078000Y-61581000D01*
X208077000Y-61570000D01*
X208077000Y-61560000D01*
X208077000Y-60360000D01*
X208077000Y-60350000D01*
X208078000Y-60339000D01*
X208079000Y-60329000D01*
X208081000Y-60318000D01*
X208084000Y-60308000D01*
X208087000Y-60298000D01*
X208090000Y-60288000D01*
X208094000Y-60279000D01*
X208099000Y-60269000D01*
X208104000Y-60260000D01*
X208109000Y-60251000D01*
X208115000Y-60242000D01*
X208122000Y-60234000D01*
X208128000Y-60226000D01*
X208136000Y-60219000D01*
X208143000Y-60211000D01*
X208151000Y-60205000D01*
X208159000Y-60198000D01*
X208168000Y-60192000D01*
X208177000Y-60187000D01*
X208186000Y-60182000D01*
X208196000Y-60177000D01*
X208205000Y-60173000D01*
X208215000Y-60170000D01*
X208225000Y-60167000D01*
X208235000Y-60164000D01*
X208246000Y-60162000D01*
X208256000Y-60161000D01*
X208267000Y-60160000D01*
X208277000Y-60160000D01*
X211277000Y-60160000D01*
X211277000Y-61760000D01*
G37*
X200608000Y-103111000D02*
X200618000Y-103112000D01*
X200629000Y-103114000D01*
X200639000Y-103117000D01*
X200649000Y-103120000D01*
X200659000Y-103123000D01*
X200668000Y-103127000D01*
X200678000Y-103132000D01*
X200687000Y-103137000D01*
X200696000Y-103142000D01*
X200705000Y-103148000D01*
X200713000Y-103155000D01*
X200721000Y-103161000D01*
X200728000Y-103169000D01*
X200736000Y-103176000D01*
X200742000Y-103184000D01*
X200749000Y-103192000D01*
X200755000Y-103201000D01*
X200760000Y-103210000D01*
X200765000Y-103219000D01*
X200770000Y-103229000D01*
X200774000Y-103238000D01*
X200777000Y-103248000D01*
X200780000Y-103258000D01*
X200783000Y-103268000D01*
X200785000Y-103279000D01*
X200786000Y-103289000D01*
X200787000Y-103300000D01*
X200787000Y-103310000D01*
X200787000Y-106310000D01*
X199187000Y-106310000D01*
X199187000Y-103310000D01*
X199187000Y-103300000D01*
X199188000Y-103289000D01*
X199189000Y-103279000D01*
X199191000Y-103268000D01*
X199194000Y-103258000D01*
X199197000Y-103248000D01*
X199200000Y-103238000D01*
X199204000Y-103229000D01*
X199209000Y-103219000D01*
X199214000Y-103210000D01*
X199219000Y-103201000D01*
X199225000Y-103192000D01*
X199232000Y-103184000D01*
X199238000Y-103176000D01*
X199246000Y-103169000D01*
X199253000Y-103161000D01*
X199261000Y-103155000D01*
X199269000Y-103148000D01*
X199278000Y-103142000D01*
X199287000Y-103137000D01*
X199296000Y-103132000D01*
X199306000Y-103127000D01*
X199315000Y-103123000D01*
X199325000Y-103120000D01*
X199335000Y-103117000D01*
X199345000Y-103114000D01*
X199356000Y-103112000D01*
X199366000Y-103111000D01*
X199377000Y-103110000D01*
X199387000Y-103110000D01*
X200587000Y-103110000D01*
X200597000Y-103110000D01*
X200608000Y-103111000D01*
G36*
X200608000Y-103111000D02*
G01*
X200618000Y-103112000D01*
X200629000Y-103114000D01*
X200639000Y-103117000D01*
X200649000Y-103120000D01*
X200659000Y-103123000D01*
X200668000Y-103127000D01*
X200678000Y-103132000D01*
X200687000Y-103137000D01*
X200696000Y-103142000D01*
X200705000Y-103148000D01*
X200713000Y-103155000D01*
X200721000Y-103161000D01*
X200728000Y-103169000D01*
X200736000Y-103176000D01*
X200742000Y-103184000D01*
X200749000Y-103192000D01*
X200755000Y-103201000D01*
X200760000Y-103210000D01*
X200765000Y-103219000D01*
X200770000Y-103229000D01*
X200774000Y-103238000D01*
X200777000Y-103248000D01*
X200780000Y-103258000D01*
X200783000Y-103268000D01*
X200785000Y-103279000D01*
X200786000Y-103289000D01*
X200787000Y-103300000D01*
X200787000Y-103310000D01*
X200787000Y-106310000D01*
X199187000Y-106310000D01*
X199187000Y-103310000D01*
X199187000Y-103300000D01*
X199188000Y-103289000D01*
X199189000Y-103279000D01*
X199191000Y-103268000D01*
X199194000Y-103258000D01*
X199197000Y-103248000D01*
X199200000Y-103238000D01*
X199204000Y-103229000D01*
X199209000Y-103219000D01*
X199214000Y-103210000D01*
X199219000Y-103201000D01*
X199225000Y-103192000D01*
X199232000Y-103184000D01*
X199238000Y-103176000D01*
X199246000Y-103169000D01*
X199253000Y-103161000D01*
X199261000Y-103155000D01*
X199269000Y-103148000D01*
X199278000Y-103142000D01*
X199287000Y-103137000D01*
X199296000Y-103132000D01*
X199306000Y-103127000D01*
X199315000Y-103123000D01*
X199325000Y-103120000D01*
X199335000Y-103117000D01*
X199345000Y-103114000D01*
X199356000Y-103112000D01*
X199366000Y-103111000D01*
X199377000Y-103110000D01*
X199387000Y-103110000D01*
X200587000Y-103110000D01*
X200597000Y-103110000D01*
X200608000Y-103111000D01*
G37*
X191718000Y-98261000D02*
X191728000Y-98262000D01*
X191739000Y-98264000D01*
X191749000Y-98267000D01*
X191759000Y-98270000D01*
X191769000Y-98273000D01*
X191778000Y-98277000D01*
X191788000Y-98282000D01*
X191797000Y-98287000D01*
X191806000Y-98292000D01*
X191815000Y-98298000D01*
X191823000Y-98305000D01*
X191831000Y-98311000D01*
X191838000Y-98319000D01*
X191846000Y-98326000D01*
X191852000Y-98334000D01*
X191859000Y-98342000D01*
X191865000Y-98351000D01*
X191870000Y-98360000D01*
X191875000Y-98369000D01*
X191880000Y-98379000D01*
X191884000Y-98388000D01*
X191887000Y-98398000D01*
X191890000Y-98408000D01*
X191893000Y-98418000D01*
X191895000Y-98429000D01*
X191896000Y-98439000D01*
X191897000Y-98450000D01*
X191897000Y-98460000D01*
X191897000Y-99660000D01*
X191897000Y-99670000D01*
X191896000Y-99681000D01*
X191895000Y-99691000D01*
X191893000Y-99702000D01*
X191890000Y-99712000D01*
X191887000Y-99722000D01*
X191884000Y-99732000D01*
X191880000Y-99741000D01*
X191875000Y-99751000D01*
X191870000Y-99760000D01*
X191865000Y-99769000D01*
X191859000Y-99778000D01*
X191852000Y-99786000D01*
X191846000Y-99794000D01*
X191838000Y-99801000D01*
X191831000Y-99809000D01*
X191823000Y-99815000D01*
X191815000Y-99822000D01*
X191806000Y-99828000D01*
X191797000Y-99833000D01*
X191788000Y-99838000D01*
X191778000Y-99843000D01*
X191769000Y-99847000D01*
X191759000Y-99850000D01*
X191749000Y-99853000D01*
X191739000Y-99856000D01*
X191728000Y-99858000D01*
X191718000Y-99859000D01*
X191707000Y-99860000D01*
X191697000Y-99860000D01*
X188697000Y-99860000D01*
X188697000Y-98260000D01*
X191697000Y-98260000D01*
X191707000Y-98260000D01*
X191718000Y-98261000D01*
G36*
X191718000Y-98261000D02*
G01*
X191728000Y-98262000D01*
X191739000Y-98264000D01*
X191749000Y-98267000D01*
X191759000Y-98270000D01*
X191769000Y-98273000D01*
X191778000Y-98277000D01*
X191788000Y-98282000D01*
X191797000Y-98287000D01*
X191806000Y-98292000D01*
X191815000Y-98298000D01*
X191823000Y-98305000D01*
X191831000Y-98311000D01*
X191838000Y-98319000D01*
X191846000Y-98326000D01*
X191852000Y-98334000D01*
X191859000Y-98342000D01*
X191865000Y-98351000D01*
X191870000Y-98360000D01*
X191875000Y-98369000D01*
X191880000Y-98379000D01*
X191884000Y-98388000D01*
X191887000Y-98398000D01*
X191890000Y-98408000D01*
X191893000Y-98418000D01*
X191895000Y-98429000D01*
X191896000Y-98439000D01*
X191897000Y-98450000D01*
X191897000Y-98460000D01*
X191897000Y-99660000D01*
X191897000Y-99670000D01*
X191896000Y-99681000D01*
X191895000Y-99691000D01*
X191893000Y-99702000D01*
X191890000Y-99712000D01*
X191887000Y-99722000D01*
X191884000Y-99732000D01*
X191880000Y-99741000D01*
X191875000Y-99751000D01*
X191870000Y-99760000D01*
X191865000Y-99769000D01*
X191859000Y-99778000D01*
X191852000Y-99786000D01*
X191846000Y-99794000D01*
X191838000Y-99801000D01*
X191831000Y-99809000D01*
X191823000Y-99815000D01*
X191815000Y-99822000D01*
X191806000Y-99828000D01*
X191797000Y-99833000D01*
X191788000Y-99838000D01*
X191778000Y-99843000D01*
X191769000Y-99847000D01*
X191759000Y-99850000D01*
X191749000Y-99853000D01*
X191739000Y-99856000D01*
X191728000Y-99858000D01*
X191718000Y-99859000D01*
X191707000Y-99860000D01*
X191697000Y-99860000D01*
X188697000Y-99860000D01*
X188697000Y-98260000D01*
X191697000Y-98260000D01*
X191707000Y-98260000D01*
X191718000Y-98261000D01*
G37*
X191718000Y-85561000D02*
X191728000Y-85562000D01*
X191739000Y-85564000D01*
X191749000Y-85567000D01*
X191759000Y-85570000D01*
X191769000Y-85573000D01*
X191778000Y-85577000D01*
X191788000Y-85582000D01*
X191797000Y-85587000D01*
X191806000Y-85592000D01*
X191815000Y-85598000D01*
X191823000Y-85605000D01*
X191831000Y-85611000D01*
X191838000Y-85619000D01*
X191846000Y-85626000D01*
X191852000Y-85634000D01*
X191859000Y-85642000D01*
X191865000Y-85651000D01*
X191870000Y-85660000D01*
X191875000Y-85669000D01*
X191880000Y-85679000D01*
X191884000Y-85688000D01*
X191887000Y-85698000D01*
X191890000Y-85708000D01*
X191893000Y-85718000D01*
X191895000Y-85729000D01*
X191896000Y-85739000D01*
X191897000Y-85750000D01*
X191897000Y-85760000D01*
X191897000Y-86960000D01*
X191897000Y-86970000D01*
X191896000Y-86981000D01*
X191895000Y-86991000D01*
X191893000Y-87002000D01*
X191890000Y-87012000D01*
X191887000Y-87022000D01*
X191884000Y-87032000D01*
X191880000Y-87041000D01*
X191875000Y-87051000D01*
X191870000Y-87060000D01*
X191865000Y-87069000D01*
X191859000Y-87078000D01*
X191852000Y-87086000D01*
X191846000Y-87094000D01*
X191838000Y-87101000D01*
X191831000Y-87109000D01*
X191823000Y-87115000D01*
X191815000Y-87122000D01*
X191806000Y-87128000D01*
X191797000Y-87133000D01*
X191788000Y-87138000D01*
X191778000Y-87143000D01*
X191769000Y-87147000D01*
X191759000Y-87150000D01*
X191749000Y-87153000D01*
X191739000Y-87156000D01*
X191728000Y-87158000D01*
X191718000Y-87159000D01*
X191707000Y-87160000D01*
X191697000Y-87160000D01*
X188697000Y-87160000D01*
X188697000Y-85560000D01*
X191697000Y-85560000D01*
X191707000Y-85560000D01*
X191718000Y-85561000D01*
G36*
X191718000Y-85561000D02*
G01*
X191728000Y-85562000D01*
X191739000Y-85564000D01*
X191749000Y-85567000D01*
X191759000Y-85570000D01*
X191769000Y-85573000D01*
X191778000Y-85577000D01*
X191788000Y-85582000D01*
X191797000Y-85587000D01*
X191806000Y-85592000D01*
X191815000Y-85598000D01*
X191823000Y-85605000D01*
X191831000Y-85611000D01*
X191838000Y-85619000D01*
X191846000Y-85626000D01*
X191852000Y-85634000D01*
X191859000Y-85642000D01*
X191865000Y-85651000D01*
X191870000Y-85660000D01*
X191875000Y-85669000D01*
X191880000Y-85679000D01*
X191884000Y-85688000D01*
X191887000Y-85698000D01*
X191890000Y-85708000D01*
X191893000Y-85718000D01*
X191895000Y-85729000D01*
X191896000Y-85739000D01*
X191897000Y-85750000D01*
X191897000Y-85760000D01*
X191897000Y-86960000D01*
X191897000Y-86970000D01*
X191896000Y-86981000D01*
X191895000Y-86991000D01*
X191893000Y-87002000D01*
X191890000Y-87012000D01*
X191887000Y-87022000D01*
X191884000Y-87032000D01*
X191880000Y-87041000D01*
X191875000Y-87051000D01*
X191870000Y-87060000D01*
X191865000Y-87069000D01*
X191859000Y-87078000D01*
X191852000Y-87086000D01*
X191846000Y-87094000D01*
X191838000Y-87101000D01*
X191831000Y-87109000D01*
X191823000Y-87115000D01*
X191815000Y-87122000D01*
X191806000Y-87128000D01*
X191797000Y-87133000D01*
X191788000Y-87138000D01*
X191778000Y-87143000D01*
X191769000Y-87147000D01*
X191759000Y-87150000D01*
X191749000Y-87153000D01*
X191739000Y-87156000D01*
X191728000Y-87158000D01*
X191718000Y-87159000D01*
X191707000Y-87160000D01*
X191697000Y-87160000D01*
X188697000Y-87160000D01*
X188697000Y-85560000D01*
X191697000Y-85560000D01*
X191707000Y-85560000D01*
X191718000Y-85561000D01*
G37*
X191718000Y-72861000D02*
X191728000Y-72862000D01*
X191739000Y-72864000D01*
X191749000Y-72867000D01*
X191759000Y-72870000D01*
X191769000Y-72873000D01*
X191778000Y-72877000D01*
X191788000Y-72882000D01*
X191797000Y-72887000D01*
X191806000Y-72892000D01*
X191815000Y-72898000D01*
X191823000Y-72905000D01*
X191831000Y-72911000D01*
X191838000Y-72919000D01*
X191846000Y-72926000D01*
X191852000Y-72934000D01*
X191859000Y-72942000D01*
X191865000Y-72951000D01*
X191870000Y-72960000D01*
X191875000Y-72969000D01*
X191880000Y-72979000D01*
X191884000Y-72988000D01*
X191887000Y-72998000D01*
X191890000Y-73008000D01*
X191893000Y-73018000D01*
X191895000Y-73029000D01*
X191896000Y-73039000D01*
X191897000Y-73050000D01*
X191897000Y-73060000D01*
X191897000Y-74260000D01*
X191897000Y-74270000D01*
X191896000Y-74281000D01*
X191895000Y-74291000D01*
X191893000Y-74302000D01*
X191890000Y-74312000D01*
X191887000Y-74322000D01*
X191884000Y-74332000D01*
X191880000Y-74341000D01*
X191875000Y-74351000D01*
X191870000Y-74360000D01*
X191865000Y-74369000D01*
X191859000Y-74378000D01*
X191852000Y-74386000D01*
X191846000Y-74394000D01*
X191838000Y-74401000D01*
X191831000Y-74409000D01*
X191823000Y-74415000D01*
X191815000Y-74422000D01*
X191806000Y-74428000D01*
X191797000Y-74433000D01*
X191788000Y-74438000D01*
X191778000Y-74443000D01*
X191769000Y-74447000D01*
X191759000Y-74450000D01*
X191749000Y-74453000D01*
X191739000Y-74456000D01*
X191728000Y-74458000D01*
X191718000Y-74459000D01*
X191707000Y-74460000D01*
X191697000Y-74460000D01*
X188697000Y-74460000D01*
X188697000Y-72860000D01*
X191697000Y-72860000D01*
X191707000Y-72860000D01*
X191718000Y-72861000D01*
G36*
X191718000Y-72861000D02*
G01*
X191728000Y-72862000D01*
X191739000Y-72864000D01*
X191749000Y-72867000D01*
X191759000Y-72870000D01*
X191769000Y-72873000D01*
X191778000Y-72877000D01*
X191788000Y-72882000D01*
X191797000Y-72887000D01*
X191806000Y-72892000D01*
X191815000Y-72898000D01*
X191823000Y-72905000D01*
X191831000Y-72911000D01*
X191838000Y-72919000D01*
X191846000Y-72926000D01*
X191852000Y-72934000D01*
X191859000Y-72942000D01*
X191865000Y-72951000D01*
X191870000Y-72960000D01*
X191875000Y-72969000D01*
X191880000Y-72979000D01*
X191884000Y-72988000D01*
X191887000Y-72998000D01*
X191890000Y-73008000D01*
X191893000Y-73018000D01*
X191895000Y-73029000D01*
X191896000Y-73039000D01*
X191897000Y-73050000D01*
X191897000Y-73060000D01*
X191897000Y-74260000D01*
X191897000Y-74270000D01*
X191896000Y-74281000D01*
X191895000Y-74291000D01*
X191893000Y-74302000D01*
X191890000Y-74312000D01*
X191887000Y-74322000D01*
X191884000Y-74332000D01*
X191880000Y-74341000D01*
X191875000Y-74351000D01*
X191870000Y-74360000D01*
X191865000Y-74369000D01*
X191859000Y-74378000D01*
X191852000Y-74386000D01*
X191846000Y-74394000D01*
X191838000Y-74401000D01*
X191831000Y-74409000D01*
X191823000Y-74415000D01*
X191815000Y-74422000D01*
X191806000Y-74428000D01*
X191797000Y-74433000D01*
X191788000Y-74438000D01*
X191778000Y-74443000D01*
X191769000Y-74447000D01*
X191759000Y-74450000D01*
X191749000Y-74453000D01*
X191739000Y-74456000D01*
X191728000Y-74458000D01*
X191718000Y-74459000D01*
X191707000Y-74460000D01*
X191697000Y-74460000D01*
X188697000Y-74460000D01*
X188697000Y-72860000D01*
X191697000Y-72860000D01*
X191707000Y-72860000D01*
X191718000Y-72861000D01*
G37*
X191718000Y-60161000D02*
X191728000Y-60162000D01*
X191739000Y-60164000D01*
X191749000Y-60167000D01*
X191759000Y-60170000D01*
X191769000Y-60173000D01*
X191778000Y-60177000D01*
X191788000Y-60182000D01*
X191797000Y-60187000D01*
X191806000Y-60192000D01*
X191815000Y-60198000D01*
X191823000Y-60205000D01*
X191831000Y-60211000D01*
X191838000Y-60219000D01*
X191846000Y-60226000D01*
X191852000Y-60234000D01*
X191859000Y-60242000D01*
X191865000Y-60251000D01*
X191870000Y-60260000D01*
X191875000Y-60269000D01*
X191880000Y-60279000D01*
X191884000Y-60288000D01*
X191887000Y-60298000D01*
X191890000Y-60308000D01*
X191893000Y-60318000D01*
X191895000Y-60329000D01*
X191896000Y-60339000D01*
X191897000Y-60350000D01*
X191897000Y-60360000D01*
X191897000Y-61560000D01*
X191897000Y-61570000D01*
X191896000Y-61581000D01*
X191895000Y-61591000D01*
X191893000Y-61602000D01*
X191890000Y-61612000D01*
X191887000Y-61622000D01*
X191884000Y-61632000D01*
X191880000Y-61641000D01*
X191875000Y-61651000D01*
X191870000Y-61660000D01*
X191865000Y-61669000D01*
X191859000Y-61678000D01*
X191852000Y-61686000D01*
X191846000Y-61694000D01*
X191838000Y-61701000D01*
X191831000Y-61709000D01*
X191823000Y-61715000D01*
X191815000Y-61722000D01*
X191806000Y-61728000D01*
X191797000Y-61733000D01*
X191788000Y-61738000D01*
X191778000Y-61743000D01*
X191769000Y-61747000D01*
X191759000Y-61750000D01*
X191749000Y-61753000D01*
X191739000Y-61756000D01*
X191728000Y-61758000D01*
X191718000Y-61759000D01*
X191707000Y-61760000D01*
X191697000Y-61760000D01*
X188697000Y-61760000D01*
X188697000Y-60160000D01*
X191697000Y-60160000D01*
X191707000Y-60160000D01*
X191718000Y-60161000D01*
G36*
X191718000Y-60161000D02*
G01*
X191728000Y-60162000D01*
X191739000Y-60164000D01*
X191749000Y-60167000D01*
X191759000Y-60170000D01*
X191769000Y-60173000D01*
X191778000Y-60177000D01*
X191788000Y-60182000D01*
X191797000Y-60187000D01*
X191806000Y-60192000D01*
X191815000Y-60198000D01*
X191823000Y-60205000D01*
X191831000Y-60211000D01*
X191838000Y-60219000D01*
X191846000Y-60226000D01*
X191852000Y-60234000D01*
X191859000Y-60242000D01*
X191865000Y-60251000D01*
X191870000Y-60260000D01*
X191875000Y-60269000D01*
X191880000Y-60279000D01*
X191884000Y-60288000D01*
X191887000Y-60298000D01*
X191890000Y-60308000D01*
X191893000Y-60318000D01*
X191895000Y-60329000D01*
X191896000Y-60339000D01*
X191897000Y-60350000D01*
X191897000Y-60360000D01*
X191897000Y-61560000D01*
X191897000Y-61570000D01*
X191896000Y-61581000D01*
X191895000Y-61591000D01*
X191893000Y-61602000D01*
X191890000Y-61612000D01*
X191887000Y-61622000D01*
X191884000Y-61632000D01*
X191880000Y-61641000D01*
X191875000Y-61651000D01*
X191870000Y-61660000D01*
X191865000Y-61669000D01*
X191859000Y-61678000D01*
X191852000Y-61686000D01*
X191846000Y-61694000D01*
X191838000Y-61701000D01*
X191831000Y-61709000D01*
X191823000Y-61715000D01*
X191815000Y-61722000D01*
X191806000Y-61728000D01*
X191797000Y-61733000D01*
X191788000Y-61738000D01*
X191778000Y-61743000D01*
X191769000Y-61747000D01*
X191759000Y-61750000D01*
X191749000Y-61753000D01*
X191739000Y-61756000D01*
X191728000Y-61758000D01*
X191718000Y-61759000D01*
X191707000Y-61760000D01*
X191697000Y-61760000D01*
X188697000Y-61760000D01*
X188697000Y-60160000D01*
X191697000Y-60160000D01*
X191707000Y-60160000D01*
X191718000Y-60161000D01*
G37*
X211277000Y-104940000D02*
X208877000Y-104940000D01*
X208835000Y-104939000D01*
X208793000Y-104936000D01*
X208752000Y-104930000D01*
X208711000Y-104923000D01*
X208670000Y-104913000D01*
X208630000Y-104901000D01*
X208590000Y-104887000D01*
X208552000Y-104871000D01*
X208514000Y-104853000D01*
X208477000Y-104833000D01*
X208441000Y-104811000D01*
X208407000Y-104787000D01*
X208374000Y-104762000D01*
X208342000Y-104735000D01*
X208311000Y-104706000D01*
X208282000Y-104675000D01*
X208255000Y-104643000D01*
X208230000Y-104610000D01*
X208206000Y-104576000D01*
X208184000Y-104540000D01*
X208164000Y-104503000D01*
X208146000Y-104465000D01*
X208130000Y-104427000D01*
X208116000Y-104387000D01*
X208104000Y-104347000D01*
X208094000Y-104306000D01*
X208087000Y-104265000D01*
X208081000Y-104224000D01*
X208078000Y-104182000D01*
X208077000Y-104140000D01*
X208078000Y-104098000D01*
X208081000Y-104056000D01*
X208087000Y-104015000D01*
X208094000Y-103974000D01*
X208104000Y-103933000D01*
X208116000Y-103893000D01*
X208130000Y-103853000D01*
X208146000Y-103815000D01*
X208164000Y-103777000D01*
X208184000Y-103740000D01*
X208206000Y-103704000D01*
X208230000Y-103670000D01*
X208255000Y-103637000D01*
X208282000Y-103605000D01*
X208311000Y-103574000D01*
X208342000Y-103545000D01*
X208374000Y-103518000D01*
X208407000Y-103493000D01*
X208441000Y-103469000D01*
X208477000Y-103447000D01*
X208514000Y-103427000D01*
X208552000Y-103409000D01*
X208590000Y-103393000D01*
X208630000Y-103379000D01*
X208670000Y-103367000D01*
X208711000Y-103357000D01*
X208752000Y-103350000D01*
X208793000Y-103344000D01*
X208835000Y-103341000D01*
X208877000Y-103340000D01*
X211277000Y-103340000D01*
X211277000Y-104940000D01*
G36*
X211277000Y-104940000D02*
G01*
X208877000Y-104940000D01*
X208835000Y-104939000D01*
X208793000Y-104936000D01*
X208752000Y-104930000D01*
X208711000Y-104923000D01*
X208670000Y-104913000D01*
X208630000Y-104901000D01*
X208590000Y-104887000D01*
X208552000Y-104871000D01*
X208514000Y-104853000D01*
X208477000Y-104833000D01*
X208441000Y-104811000D01*
X208407000Y-104787000D01*
X208374000Y-104762000D01*
X208342000Y-104735000D01*
X208311000Y-104706000D01*
X208282000Y-104675000D01*
X208255000Y-104643000D01*
X208230000Y-104610000D01*
X208206000Y-104576000D01*
X208184000Y-104540000D01*
X208164000Y-104503000D01*
X208146000Y-104465000D01*
X208130000Y-104427000D01*
X208116000Y-104387000D01*
X208104000Y-104347000D01*
X208094000Y-104306000D01*
X208087000Y-104265000D01*
X208081000Y-104224000D01*
X208078000Y-104182000D01*
X208077000Y-104140000D01*
X208078000Y-104098000D01*
X208081000Y-104056000D01*
X208087000Y-104015000D01*
X208094000Y-103974000D01*
X208104000Y-103933000D01*
X208116000Y-103893000D01*
X208130000Y-103853000D01*
X208146000Y-103815000D01*
X208164000Y-103777000D01*
X208184000Y-103740000D01*
X208206000Y-103704000D01*
X208230000Y-103670000D01*
X208255000Y-103637000D01*
X208282000Y-103605000D01*
X208311000Y-103574000D01*
X208342000Y-103545000D01*
X208374000Y-103518000D01*
X208407000Y-103493000D01*
X208441000Y-103469000D01*
X208477000Y-103447000D01*
X208514000Y-103427000D01*
X208552000Y-103409000D01*
X208590000Y-103393000D01*
X208630000Y-103379000D01*
X208670000Y-103367000D01*
X208711000Y-103357000D01*
X208752000Y-103350000D01*
X208793000Y-103344000D01*
X208835000Y-103341000D01*
X208877000Y-103340000D01*
X211277000Y-103340000D01*
X211277000Y-104940000D01*
G37*
X211277000Y-102400000D02*
X208877000Y-102400000D01*
X208835000Y-102399000D01*
X208793000Y-102396000D01*
X208752000Y-102390000D01*
X208711000Y-102383000D01*
X208670000Y-102373000D01*
X208630000Y-102361000D01*
X208590000Y-102347000D01*
X208552000Y-102331000D01*
X208514000Y-102313000D01*
X208477000Y-102293000D01*
X208441000Y-102271000D01*
X208407000Y-102247000D01*
X208374000Y-102222000D01*
X208342000Y-102195000D01*
X208311000Y-102166000D01*
X208282000Y-102135000D01*
X208255000Y-102103000D01*
X208230000Y-102070000D01*
X208206000Y-102036000D01*
X208184000Y-102000000D01*
X208164000Y-101963000D01*
X208146000Y-101925000D01*
X208130000Y-101887000D01*
X208116000Y-101847000D01*
X208104000Y-101807000D01*
X208094000Y-101766000D01*
X208087000Y-101725000D01*
X208081000Y-101684000D01*
X208078000Y-101642000D01*
X208077000Y-101600000D01*
X208078000Y-101558000D01*
X208081000Y-101516000D01*
X208087000Y-101475000D01*
X208094000Y-101434000D01*
X208104000Y-101393000D01*
X208116000Y-101353000D01*
X208130000Y-101313000D01*
X208146000Y-101275000D01*
X208164000Y-101237000D01*
X208184000Y-101200000D01*
X208206000Y-101164000D01*
X208230000Y-101130000D01*
X208255000Y-101097000D01*
X208282000Y-101065000D01*
X208311000Y-101034000D01*
X208342000Y-101005000D01*
X208374000Y-100978000D01*
X208407000Y-100953000D01*
X208441000Y-100929000D01*
X208477000Y-100907000D01*
X208514000Y-100887000D01*
X208552000Y-100869000D01*
X208590000Y-100853000D01*
X208630000Y-100839000D01*
X208670000Y-100827000D01*
X208711000Y-100817000D01*
X208752000Y-100810000D01*
X208793000Y-100804000D01*
X208835000Y-100801000D01*
X208877000Y-100800000D01*
X211277000Y-100800000D01*
X211277000Y-102400000D01*
G36*
X211277000Y-102400000D02*
G01*
X208877000Y-102400000D01*
X208835000Y-102399000D01*
X208793000Y-102396000D01*
X208752000Y-102390000D01*
X208711000Y-102383000D01*
X208670000Y-102373000D01*
X208630000Y-102361000D01*
X208590000Y-102347000D01*
X208552000Y-102331000D01*
X208514000Y-102313000D01*
X208477000Y-102293000D01*
X208441000Y-102271000D01*
X208407000Y-102247000D01*
X208374000Y-102222000D01*
X208342000Y-102195000D01*
X208311000Y-102166000D01*
X208282000Y-102135000D01*
X208255000Y-102103000D01*
X208230000Y-102070000D01*
X208206000Y-102036000D01*
X208184000Y-102000000D01*
X208164000Y-101963000D01*
X208146000Y-101925000D01*
X208130000Y-101887000D01*
X208116000Y-101847000D01*
X208104000Y-101807000D01*
X208094000Y-101766000D01*
X208087000Y-101725000D01*
X208081000Y-101684000D01*
X208078000Y-101642000D01*
X208077000Y-101600000D01*
X208078000Y-101558000D01*
X208081000Y-101516000D01*
X208087000Y-101475000D01*
X208094000Y-101434000D01*
X208104000Y-101393000D01*
X208116000Y-101353000D01*
X208130000Y-101313000D01*
X208146000Y-101275000D01*
X208164000Y-101237000D01*
X208184000Y-101200000D01*
X208206000Y-101164000D01*
X208230000Y-101130000D01*
X208255000Y-101097000D01*
X208282000Y-101065000D01*
X208311000Y-101034000D01*
X208342000Y-101005000D01*
X208374000Y-100978000D01*
X208407000Y-100953000D01*
X208441000Y-100929000D01*
X208477000Y-100907000D01*
X208514000Y-100887000D01*
X208552000Y-100869000D01*
X208590000Y-100853000D01*
X208630000Y-100839000D01*
X208670000Y-100827000D01*
X208711000Y-100817000D01*
X208752000Y-100810000D01*
X208793000Y-100804000D01*
X208835000Y-100801000D01*
X208877000Y-100800000D01*
X211277000Y-100800000D01*
X211277000Y-102400000D01*
G37*
X211277000Y-97320000D02*
X208877000Y-97320000D01*
X208835000Y-97319000D01*
X208793000Y-97316000D01*
X208752000Y-97310000D01*
X208711000Y-97303000D01*
X208670000Y-97293000D01*
X208630000Y-97281000D01*
X208590000Y-97267000D01*
X208552000Y-97251000D01*
X208514000Y-97233000D01*
X208477000Y-97213000D01*
X208441000Y-97191000D01*
X208407000Y-97167000D01*
X208374000Y-97142000D01*
X208342000Y-97115000D01*
X208311000Y-97086000D01*
X208282000Y-97055000D01*
X208255000Y-97023000D01*
X208230000Y-96990000D01*
X208206000Y-96956000D01*
X208184000Y-96920000D01*
X208164000Y-96883000D01*
X208146000Y-96845000D01*
X208130000Y-96807000D01*
X208116000Y-96767000D01*
X208104000Y-96727000D01*
X208094000Y-96686000D01*
X208087000Y-96645000D01*
X208081000Y-96604000D01*
X208078000Y-96562000D01*
X208077000Y-96520000D01*
X208078000Y-96478000D01*
X208081000Y-96436000D01*
X208087000Y-96395000D01*
X208094000Y-96354000D01*
X208104000Y-96313000D01*
X208116000Y-96273000D01*
X208130000Y-96233000D01*
X208146000Y-96195000D01*
X208164000Y-96157000D01*
X208184000Y-96120000D01*
X208206000Y-96084000D01*
X208230000Y-96050000D01*
X208255000Y-96017000D01*
X208282000Y-95985000D01*
X208311000Y-95954000D01*
X208342000Y-95925000D01*
X208374000Y-95898000D01*
X208407000Y-95873000D01*
X208441000Y-95849000D01*
X208477000Y-95827000D01*
X208514000Y-95807000D01*
X208552000Y-95789000D01*
X208590000Y-95773000D01*
X208630000Y-95759000D01*
X208670000Y-95747000D01*
X208711000Y-95737000D01*
X208752000Y-95730000D01*
X208793000Y-95724000D01*
X208835000Y-95721000D01*
X208877000Y-95720000D01*
X211277000Y-95720000D01*
X211277000Y-97320000D01*
G36*
X211277000Y-97320000D02*
G01*
X208877000Y-97320000D01*
X208835000Y-97319000D01*
X208793000Y-97316000D01*
X208752000Y-97310000D01*
X208711000Y-97303000D01*
X208670000Y-97293000D01*
X208630000Y-97281000D01*
X208590000Y-97267000D01*
X208552000Y-97251000D01*
X208514000Y-97233000D01*
X208477000Y-97213000D01*
X208441000Y-97191000D01*
X208407000Y-97167000D01*
X208374000Y-97142000D01*
X208342000Y-97115000D01*
X208311000Y-97086000D01*
X208282000Y-97055000D01*
X208255000Y-97023000D01*
X208230000Y-96990000D01*
X208206000Y-96956000D01*
X208184000Y-96920000D01*
X208164000Y-96883000D01*
X208146000Y-96845000D01*
X208130000Y-96807000D01*
X208116000Y-96767000D01*
X208104000Y-96727000D01*
X208094000Y-96686000D01*
X208087000Y-96645000D01*
X208081000Y-96604000D01*
X208078000Y-96562000D01*
X208077000Y-96520000D01*
X208078000Y-96478000D01*
X208081000Y-96436000D01*
X208087000Y-96395000D01*
X208094000Y-96354000D01*
X208104000Y-96313000D01*
X208116000Y-96273000D01*
X208130000Y-96233000D01*
X208146000Y-96195000D01*
X208164000Y-96157000D01*
X208184000Y-96120000D01*
X208206000Y-96084000D01*
X208230000Y-96050000D01*
X208255000Y-96017000D01*
X208282000Y-95985000D01*
X208311000Y-95954000D01*
X208342000Y-95925000D01*
X208374000Y-95898000D01*
X208407000Y-95873000D01*
X208441000Y-95849000D01*
X208477000Y-95827000D01*
X208514000Y-95807000D01*
X208552000Y-95789000D01*
X208590000Y-95773000D01*
X208630000Y-95759000D01*
X208670000Y-95747000D01*
X208711000Y-95737000D01*
X208752000Y-95730000D01*
X208793000Y-95724000D01*
X208835000Y-95721000D01*
X208877000Y-95720000D01*
X211277000Y-95720000D01*
X211277000Y-97320000D01*
G37*
X211277000Y-94780000D02*
X208877000Y-94780000D01*
X208835000Y-94779000D01*
X208793000Y-94776000D01*
X208752000Y-94770000D01*
X208711000Y-94763000D01*
X208670000Y-94753000D01*
X208630000Y-94741000D01*
X208590000Y-94727000D01*
X208552000Y-94711000D01*
X208514000Y-94693000D01*
X208477000Y-94673000D01*
X208441000Y-94651000D01*
X208407000Y-94627000D01*
X208374000Y-94602000D01*
X208342000Y-94575000D01*
X208311000Y-94546000D01*
X208282000Y-94515000D01*
X208255000Y-94483000D01*
X208230000Y-94450000D01*
X208206000Y-94416000D01*
X208184000Y-94380000D01*
X208164000Y-94343000D01*
X208146000Y-94305000D01*
X208130000Y-94267000D01*
X208116000Y-94227000D01*
X208104000Y-94187000D01*
X208094000Y-94146000D01*
X208087000Y-94105000D01*
X208081000Y-94064000D01*
X208078000Y-94022000D01*
X208077000Y-93980000D01*
X208078000Y-93938000D01*
X208081000Y-93896000D01*
X208087000Y-93855000D01*
X208094000Y-93814000D01*
X208104000Y-93773000D01*
X208116000Y-93733000D01*
X208130000Y-93693000D01*
X208146000Y-93655000D01*
X208164000Y-93617000D01*
X208184000Y-93580000D01*
X208206000Y-93544000D01*
X208230000Y-93510000D01*
X208255000Y-93477000D01*
X208282000Y-93445000D01*
X208311000Y-93414000D01*
X208342000Y-93385000D01*
X208374000Y-93358000D01*
X208407000Y-93333000D01*
X208441000Y-93309000D01*
X208477000Y-93287000D01*
X208514000Y-93267000D01*
X208552000Y-93249000D01*
X208590000Y-93233000D01*
X208630000Y-93219000D01*
X208670000Y-93207000D01*
X208711000Y-93197000D01*
X208752000Y-93190000D01*
X208793000Y-93184000D01*
X208835000Y-93181000D01*
X208877000Y-93180000D01*
X211277000Y-93180000D01*
X211277000Y-94780000D01*
G36*
X211277000Y-94780000D02*
G01*
X208877000Y-94780000D01*
X208835000Y-94779000D01*
X208793000Y-94776000D01*
X208752000Y-94770000D01*
X208711000Y-94763000D01*
X208670000Y-94753000D01*
X208630000Y-94741000D01*
X208590000Y-94727000D01*
X208552000Y-94711000D01*
X208514000Y-94693000D01*
X208477000Y-94673000D01*
X208441000Y-94651000D01*
X208407000Y-94627000D01*
X208374000Y-94602000D01*
X208342000Y-94575000D01*
X208311000Y-94546000D01*
X208282000Y-94515000D01*
X208255000Y-94483000D01*
X208230000Y-94450000D01*
X208206000Y-94416000D01*
X208184000Y-94380000D01*
X208164000Y-94343000D01*
X208146000Y-94305000D01*
X208130000Y-94267000D01*
X208116000Y-94227000D01*
X208104000Y-94187000D01*
X208094000Y-94146000D01*
X208087000Y-94105000D01*
X208081000Y-94064000D01*
X208078000Y-94022000D01*
X208077000Y-93980000D01*
X208078000Y-93938000D01*
X208081000Y-93896000D01*
X208087000Y-93855000D01*
X208094000Y-93814000D01*
X208104000Y-93773000D01*
X208116000Y-93733000D01*
X208130000Y-93693000D01*
X208146000Y-93655000D01*
X208164000Y-93617000D01*
X208184000Y-93580000D01*
X208206000Y-93544000D01*
X208230000Y-93510000D01*
X208255000Y-93477000D01*
X208282000Y-93445000D01*
X208311000Y-93414000D01*
X208342000Y-93385000D01*
X208374000Y-93358000D01*
X208407000Y-93333000D01*
X208441000Y-93309000D01*
X208477000Y-93287000D01*
X208514000Y-93267000D01*
X208552000Y-93249000D01*
X208590000Y-93233000D01*
X208630000Y-93219000D01*
X208670000Y-93207000D01*
X208711000Y-93197000D01*
X208752000Y-93190000D01*
X208793000Y-93184000D01*
X208835000Y-93181000D01*
X208877000Y-93180000D01*
X211277000Y-93180000D01*
X211277000Y-94780000D01*
G37*
X211277000Y-92240000D02*
X208877000Y-92240000D01*
X208835000Y-92239000D01*
X208793000Y-92236000D01*
X208752000Y-92230000D01*
X208711000Y-92223000D01*
X208670000Y-92213000D01*
X208630000Y-92201000D01*
X208590000Y-92187000D01*
X208552000Y-92171000D01*
X208514000Y-92153000D01*
X208477000Y-92133000D01*
X208441000Y-92111000D01*
X208407000Y-92087000D01*
X208374000Y-92062000D01*
X208342000Y-92035000D01*
X208311000Y-92006000D01*
X208282000Y-91975000D01*
X208255000Y-91943000D01*
X208230000Y-91910000D01*
X208206000Y-91876000D01*
X208184000Y-91840000D01*
X208164000Y-91803000D01*
X208146000Y-91765000D01*
X208130000Y-91727000D01*
X208116000Y-91687000D01*
X208104000Y-91647000D01*
X208094000Y-91606000D01*
X208087000Y-91565000D01*
X208081000Y-91524000D01*
X208078000Y-91482000D01*
X208077000Y-91440000D01*
X208078000Y-91398000D01*
X208081000Y-91356000D01*
X208087000Y-91315000D01*
X208094000Y-91274000D01*
X208104000Y-91233000D01*
X208116000Y-91193000D01*
X208130000Y-91153000D01*
X208146000Y-91115000D01*
X208164000Y-91077000D01*
X208184000Y-91040000D01*
X208206000Y-91004000D01*
X208230000Y-90970000D01*
X208255000Y-90937000D01*
X208282000Y-90905000D01*
X208311000Y-90874000D01*
X208342000Y-90845000D01*
X208374000Y-90818000D01*
X208407000Y-90793000D01*
X208441000Y-90769000D01*
X208477000Y-90747000D01*
X208514000Y-90727000D01*
X208552000Y-90709000D01*
X208590000Y-90693000D01*
X208630000Y-90679000D01*
X208670000Y-90667000D01*
X208711000Y-90657000D01*
X208752000Y-90650000D01*
X208793000Y-90644000D01*
X208835000Y-90641000D01*
X208877000Y-90640000D01*
X211277000Y-90640000D01*
X211277000Y-92240000D01*
G36*
X211277000Y-92240000D02*
G01*
X208877000Y-92240000D01*
X208835000Y-92239000D01*
X208793000Y-92236000D01*
X208752000Y-92230000D01*
X208711000Y-92223000D01*
X208670000Y-92213000D01*
X208630000Y-92201000D01*
X208590000Y-92187000D01*
X208552000Y-92171000D01*
X208514000Y-92153000D01*
X208477000Y-92133000D01*
X208441000Y-92111000D01*
X208407000Y-92087000D01*
X208374000Y-92062000D01*
X208342000Y-92035000D01*
X208311000Y-92006000D01*
X208282000Y-91975000D01*
X208255000Y-91943000D01*
X208230000Y-91910000D01*
X208206000Y-91876000D01*
X208184000Y-91840000D01*
X208164000Y-91803000D01*
X208146000Y-91765000D01*
X208130000Y-91727000D01*
X208116000Y-91687000D01*
X208104000Y-91647000D01*
X208094000Y-91606000D01*
X208087000Y-91565000D01*
X208081000Y-91524000D01*
X208078000Y-91482000D01*
X208077000Y-91440000D01*
X208078000Y-91398000D01*
X208081000Y-91356000D01*
X208087000Y-91315000D01*
X208094000Y-91274000D01*
X208104000Y-91233000D01*
X208116000Y-91193000D01*
X208130000Y-91153000D01*
X208146000Y-91115000D01*
X208164000Y-91077000D01*
X208184000Y-91040000D01*
X208206000Y-91004000D01*
X208230000Y-90970000D01*
X208255000Y-90937000D01*
X208282000Y-90905000D01*
X208311000Y-90874000D01*
X208342000Y-90845000D01*
X208374000Y-90818000D01*
X208407000Y-90793000D01*
X208441000Y-90769000D01*
X208477000Y-90747000D01*
X208514000Y-90727000D01*
X208552000Y-90709000D01*
X208590000Y-90693000D01*
X208630000Y-90679000D01*
X208670000Y-90667000D01*
X208711000Y-90657000D01*
X208752000Y-90650000D01*
X208793000Y-90644000D01*
X208835000Y-90641000D01*
X208877000Y-90640000D01*
X211277000Y-90640000D01*
X211277000Y-92240000D01*
G37*
X211277000Y-89700000D02*
X208877000Y-89700000D01*
X208835000Y-89699000D01*
X208793000Y-89696000D01*
X208752000Y-89690000D01*
X208711000Y-89683000D01*
X208670000Y-89673000D01*
X208630000Y-89661000D01*
X208590000Y-89647000D01*
X208552000Y-89631000D01*
X208514000Y-89613000D01*
X208477000Y-89593000D01*
X208441000Y-89571000D01*
X208407000Y-89547000D01*
X208374000Y-89522000D01*
X208342000Y-89495000D01*
X208311000Y-89466000D01*
X208282000Y-89435000D01*
X208255000Y-89403000D01*
X208230000Y-89370000D01*
X208206000Y-89336000D01*
X208184000Y-89300000D01*
X208164000Y-89263000D01*
X208146000Y-89225000D01*
X208130000Y-89187000D01*
X208116000Y-89147000D01*
X208104000Y-89107000D01*
X208094000Y-89066000D01*
X208087000Y-89025000D01*
X208081000Y-88984000D01*
X208078000Y-88942000D01*
X208077000Y-88900000D01*
X208078000Y-88858000D01*
X208081000Y-88816000D01*
X208087000Y-88775000D01*
X208094000Y-88734000D01*
X208104000Y-88693000D01*
X208116000Y-88653000D01*
X208130000Y-88613000D01*
X208146000Y-88575000D01*
X208164000Y-88537000D01*
X208184000Y-88500000D01*
X208206000Y-88464000D01*
X208230000Y-88430000D01*
X208255000Y-88397000D01*
X208282000Y-88365000D01*
X208311000Y-88334000D01*
X208342000Y-88305000D01*
X208374000Y-88278000D01*
X208407000Y-88253000D01*
X208441000Y-88229000D01*
X208477000Y-88207000D01*
X208514000Y-88187000D01*
X208552000Y-88169000D01*
X208590000Y-88153000D01*
X208630000Y-88139000D01*
X208670000Y-88127000D01*
X208711000Y-88117000D01*
X208752000Y-88110000D01*
X208793000Y-88104000D01*
X208835000Y-88101000D01*
X208877000Y-88100000D01*
X211277000Y-88100000D01*
X211277000Y-89700000D01*
G36*
X211277000Y-89700000D02*
G01*
X208877000Y-89700000D01*
X208835000Y-89699000D01*
X208793000Y-89696000D01*
X208752000Y-89690000D01*
X208711000Y-89683000D01*
X208670000Y-89673000D01*
X208630000Y-89661000D01*
X208590000Y-89647000D01*
X208552000Y-89631000D01*
X208514000Y-89613000D01*
X208477000Y-89593000D01*
X208441000Y-89571000D01*
X208407000Y-89547000D01*
X208374000Y-89522000D01*
X208342000Y-89495000D01*
X208311000Y-89466000D01*
X208282000Y-89435000D01*
X208255000Y-89403000D01*
X208230000Y-89370000D01*
X208206000Y-89336000D01*
X208184000Y-89300000D01*
X208164000Y-89263000D01*
X208146000Y-89225000D01*
X208130000Y-89187000D01*
X208116000Y-89147000D01*
X208104000Y-89107000D01*
X208094000Y-89066000D01*
X208087000Y-89025000D01*
X208081000Y-88984000D01*
X208078000Y-88942000D01*
X208077000Y-88900000D01*
X208078000Y-88858000D01*
X208081000Y-88816000D01*
X208087000Y-88775000D01*
X208094000Y-88734000D01*
X208104000Y-88693000D01*
X208116000Y-88653000D01*
X208130000Y-88613000D01*
X208146000Y-88575000D01*
X208164000Y-88537000D01*
X208184000Y-88500000D01*
X208206000Y-88464000D01*
X208230000Y-88430000D01*
X208255000Y-88397000D01*
X208282000Y-88365000D01*
X208311000Y-88334000D01*
X208342000Y-88305000D01*
X208374000Y-88278000D01*
X208407000Y-88253000D01*
X208441000Y-88229000D01*
X208477000Y-88207000D01*
X208514000Y-88187000D01*
X208552000Y-88169000D01*
X208590000Y-88153000D01*
X208630000Y-88139000D01*
X208670000Y-88127000D01*
X208711000Y-88117000D01*
X208752000Y-88110000D01*
X208793000Y-88104000D01*
X208835000Y-88101000D01*
X208877000Y-88100000D01*
X211277000Y-88100000D01*
X211277000Y-89700000D01*
G37*
X211277000Y-84620000D02*
X208877000Y-84620000D01*
X208835000Y-84619000D01*
X208793000Y-84616000D01*
X208752000Y-84610000D01*
X208711000Y-84603000D01*
X208670000Y-84593000D01*
X208630000Y-84581000D01*
X208590000Y-84567000D01*
X208552000Y-84551000D01*
X208514000Y-84533000D01*
X208477000Y-84513000D01*
X208441000Y-84491000D01*
X208407000Y-84467000D01*
X208374000Y-84442000D01*
X208342000Y-84415000D01*
X208311000Y-84386000D01*
X208282000Y-84355000D01*
X208255000Y-84323000D01*
X208230000Y-84290000D01*
X208206000Y-84256000D01*
X208184000Y-84220000D01*
X208164000Y-84183000D01*
X208146000Y-84145000D01*
X208130000Y-84107000D01*
X208116000Y-84067000D01*
X208104000Y-84027000D01*
X208094000Y-83986000D01*
X208087000Y-83945000D01*
X208081000Y-83904000D01*
X208078000Y-83862000D01*
X208077000Y-83820000D01*
X208078000Y-83778000D01*
X208081000Y-83736000D01*
X208087000Y-83695000D01*
X208094000Y-83654000D01*
X208104000Y-83613000D01*
X208116000Y-83573000D01*
X208130000Y-83533000D01*
X208146000Y-83495000D01*
X208164000Y-83457000D01*
X208184000Y-83420000D01*
X208206000Y-83384000D01*
X208230000Y-83350000D01*
X208255000Y-83317000D01*
X208282000Y-83285000D01*
X208311000Y-83254000D01*
X208342000Y-83225000D01*
X208374000Y-83198000D01*
X208407000Y-83173000D01*
X208441000Y-83149000D01*
X208477000Y-83127000D01*
X208514000Y-83107000D01*
X208552000Y-83089000D01*
X208590000Y-83073000D01*
X208630000Y-83059000D01*
X208670000Y-83047000D01*
X208711000Y-83037000D01*
X208752000Y-83030000D01*
X208793000Y-83024000D01*
X208835000Y-83021000D01*
X208877000Y-83020000D01*
X211277000Y-83020000D01*
X211277000Y-84620000D01*
G36*
X211277000Y-84620000D02*
G01*
X208877000Y-84620000D01*
X208835000Y-84619000D01*
X208793000Y-84616000D01*
X208752000Y-84610000D01*
X208711000Y-84603000D01*
X208670000Y-84593000D01*
X208630000Y-84581000D01*
X208590000Y-84567000D01*
X208552000Y-84551000D01*
X208514000Y-84533000D01*
X208477000Y-84513000D01*
X208441000Y-84491000D01*
X208407000Y-84467000D01*
X208374000Y-84442000D01*
X208342000Y-84415000D01*
X208311000Y-84386000D01*
X208282000Y-84355000D01*
X208255000Y-84323000D01*
X208230000Y-84290000D01*
X208206000Y-84256000D01*
X208184000Y-84220000D01*
X208164000Y-84183000D01*
X208146000Y-84145000D01*
X208130000Y-84107000D01*
X208116000Y-84067000D01*
X208104000Y-84027000D01*
X208094000Y-83986000D01*
X208087000Y-83945000D01*
X208081000Y-83904000D01*
X208078000Y-83862000D01*
X208077000Y-83820000D01*
X208078000Y-83778000D01*
X208081000Y-83736000D01*
X208087000Y-83695000D01*
X208094000Y-83654000D01*
X208104000Y-83613000D01*
X208116000Y-83573000D01*
X208130000Y-83533000D01*
X208146000Y-83495000D01*
X208164000Y-83457000D01*
X208184000Y-83420000D01*
X208206000Y-83384000D01*
X208230000Y-83350000D01*
X208255000Y-83317000D01*
X208282000Y-83285000D01*
X208311000Y-83254000D01*
X208342000Y-83225000D01*
X208374000Y-83198000D01*
X208407000Y-83173000D01*
X208441000Y-83149000D01*
X208477000Y-83127000D01*
X208514000Y-83107000D01*
X208552000Y-83089000D01*
X208590000Y-83073000D01*
X208630000Y-83059000D01*
X208670000Y-83047000D01*
X208711000Y-83037000D01*
X208752000Y-83030000D01*
X208793000Y-83024000D01*
X208835000Y-83021000D01*
X208877000Y-83020000D01*
X211277000Y-83020000D01*
X211277000Y-84620000D01*
G37*
X211277000Y-82080000D02*
X208877000Y-82080000D01*
X208835000Y-82079000D01*
X208793000Y-82076000D01*
X208752000Y-82070000D01*
X208711000Y-82063000D01*
X208670000Y-82053000D01*
X208630000Y-82041000D01*
X208590000Y-82027000D01*
X208552000Y-82011000D01*
X208514000Y-81993000D01*
X208477000Y-81973000D01*
X208441000Y-81951000D01*
X208407000Y-81927000D01*
X208374000Y-81902000D01*
X208342000Y-81875000D01*
X208311000Y-81846000D01*
X208282000Y-81815000D01*
X208255000Y-81783000D01*
X208230000Y-81750000D01*
X208206000Y-81716000D01*
X208184000Y-81680000D01*
X208164000Y-81643000D01*
X208146000Y-81605000D01*
X208130000Y-81567000D01*
X208116000Y-81527000D01*
X208104000Y-81487000D01*
X208094000Y-81446000D01*
X208087000Y-81405000D01*
X208081000Y-81364000D01*
X208078000Y-81322000D01*
X208077000Y-81280000D01*
X208078000Y-81238000D01*
X208081000Y-81196000D01*
X208087000Y-81155000D01*
X208094000Y-81114000D01*
X208104000Y-81073000D01*
X208116000Y-81033000D01*
X208130000Y-80993000D01*
X208146000Y-80955000D01*
X208164000Y-80917000D01*
X208184000Y-80880000D01*
X208206000Y-80844000D01*
X208230000Y-80810000D01*
X208255000Y-80777000D01*
X208282000Y-80745000D01*
X208311000Y-80714000D01*
X208342000Y-80685000D01*
X208374000Y-80658000D01*
X208407000Y-80633000D01*
X208441000Y-80609000D01*
X208477000Y-80587000D01*
X208514000Y-80567000D01*
X208552000Y-80549000D01*
X208590000Y-80533000D01*
X208630000Y-80519000D01*
X208670000Y-80507000D01*
X208711000Y-80497000D01*
X208752000Y-80490000D01*
X208793000Y-80484000D01*
X208835000Y-80481000D01*
X208877000Y-80480000D01*
X211277000Y-80480000D01*
X211277000Y-82080000D01*
G36*
X211277000Y-82080000D02*
G01*
X208877000Y-82080000D01*
X208835000Y-82079000D01*
X208793000Y-82076000D01*
X208752000Y-82070000D01*
X208711000Y-82063000D01*
X208670000Y-82053000D01*
X208630000Y-82041000D01*
X208590000Y-82027000D01*
X208552000Y-82011000D01*
X208514000Y-81993000D01*
X208477000Y-81973000D01*
X208441000Y-81951000D01*
X208407000Y-81927000D01*
X208374000Y-81902000D01*
X208342000Y-81875000D01*
X208311000Y-81846000D01*
X208282000Y-81815000D01*
X208255000Y-81783000D01*
X208230000Y-81750000D01*
X208206000Y-81716000D01*
X208184000Y-81680000D01*
X208164000Y-81643000D01*
X208146000Y-81605000D01*
X208130000Y-81567000D01*
X208116000Y-81527000D01*
X208104000Y-81487000D01*
X208094000Y-81446000D01*
X208087000Y-81405000D01*
X208081000Y-81364000D01*
X208078000Y-81322000D01*
X208077000Y-81280000D01*
X208078000Y-81238000D01*
X208081000Y-81196000D01*
X208087000Y-81155000D01*
X208094000Y-81114000D01*
X208104000Y-81073000D01*
X208116000Y-81033000D01*
X208130000Y-80993000D01*
X208146000Y-80955000D01*
X208164000Y-80917000D01*
X208184000Y-80880000D01*
X208206000Y-80844000D01*
X208230000Y-80810000D01*
X208255000Y-80777000D01*
X208282000Y-80745000D01*
X208311000Y-80714000D01*
X208342000Y-80685000D01*
X208374000Y-80658000D01*
X208407000Y-80633000D01*
X208441000Y-80609000D01*
X208477000Y-80587000D01*
X208514000Y-80567000D01*
X208552000Y-80549000D01*
X208590000Y-80533000D01*
X208630000Y-80519000D01*
X208670000Y-80507000D01*
X208711000Y-80497000D01*
X208752000Y-80490000D01*
X208793000Y-80484000D01*
X208835000Y-80481000D01*
X208877000Y-80480000D01*
X211277000Y-80480000D01*
X211277000Y-82080000D01*
G37*
X211277000Y-79540000D02*
X208877000Y-79540000D01*
X208835000Y-79539000D01*
X208793000Y-79536000D01*
X208752000Y-79530000D01*
X208711000Y-79523000D01*
X208670000Y-79513000D01*
X208630000Y-79501000D01*
X208590000Y-79487000D01*
X208552000Y-79471000D01*
X208514000Y-79453000D01*
X208477000Y-79433000D01*
X208441000Y-79411000D01*
X208407000Y-79387000D01*
X208374000Y-79362000D01*
X208342000Y-79335000D01*
X208311000Y-79306000D01*
X208282000Y-79275000D01*
X208255000Y-79243000D01*
X208230000Y-79210000D01*
X208206000Y-79176000D01*
X208184000Y-79140000D01*
X208164000Y-79103000D01*
X208146000Y-79065000D01*
X208130000Y-79027000D01*
X208116000Y-78987000D01*
X208104000Y-78947000D01*
X208094000Y-78906000D01*
X208087000Y-78865000D01*
X208081000Y-78824000D01*
X208078000Y-78782000D01*
X208077000Y-78740000D01*
X208078000Y-78698000D01*
X208081000Y-78656000D01*
X208087000Y-78615000D01*
X208094000Y-78574000D01*
X208104000Y-78533000D01*
X208116000Y-78493000D01*
X208130000Y-78453000D01*
X208146000Y-78415000D01*
X208164000Y-78377000D01*
X208184000Y-78340000D01*
X208206000Y-78304000D01*
X208230000Y-78270000D01*
X208255000Y-78237000D01*
X208282000Y-78205000D01*
X208311000Y-78174000D01*
X208342000Y-78145000D01*
X208374000Y-78118000D01*
X208407000Y-78093000D01*
X208441000Y-78069000D01*
X208477000Y-78047000D01*
X208514000Y-78027000D01*
X208552000Y-78009000D01*
X208590000Y-77993000D01*
X208630000Y-77979000D01*
X208670000Y-77967000D01*
X208711000Y-77957000D01*
X208752000Y-77950000D01*
X208793000Y-77944000D01*
X208835000Y-77941000D01*
X208877000Y-77940000D01*
X211277000Y-77940000D01*
X211277000Y-79540000D01*
G36*
X211277000Y-79540000D02*
G01*
X208877000Y-79540000D01*
X208835000Y-79539000D01*
X208793000Y-79536000D01*
X208752000Y-79530000D01*
X208711000Y-79523000D01*
X208670000Y-79513000D01*
X208630000Y-79501000D01*
X208590000Y-79487000D01*
X208552000Y-79471000D01*
X208514000Y-79453000D01*
X208477000Y-79433000D01*
X208441000Y-79411000D01*
X208407000Y-79387000D01*
X208374000Y-79362000D01*
X208342000Y-79335000D01*
X208311000Y-79306000D01*
X208282000Y-79275000D01*
X208255000Y-79243000D01*
X208230000Y-79210000D01*
X208206000Y-79176000D01*
X208184000Y-79140000D01*
X208164000Y-79103000D01*
X208146000Y-79065000D01*
X208130000Y-79027000D01*
X208116000Y-78987000D01*
X208104000Y-78947000D01*
X208094000Y-78906000D01*
X208087000Y-78865000D01*
X208081000Y-78824000D01*
X208078000Y-78782000D01*
X208077000Y-78740000D01*
X208078000Y-78698000D01*
X208081000Y-78656000D01*
X208087000Y-78615000D01*
X208094000Y-78574000D01*
X208104000Y-78533000D01*
X208116000Y-78493000D01*
X208130000Y-78453000D01*
X208146000Y-78415000D01*
X208164000Y-78377000D01*
X208184000Y-78340000D01*
X208206000Y-78304000D01*
X208230000Y-78270000D01*
X208255000Y-78237000D01*
X208282000Y-78205000D01*
X208311000Y-78174000D01*
X208342000Y-78145000D01*
X208374000Y-78118000D01*
X208407000Y-78093000D01*
X208441000Y-78069000D01*
X208477000Y-78047000D01*
X208514000Y-78027000D01*
X208552000Y-78009000D01*
X208590000Y-77993000D01*
X208630000Y-77979000D01*
X208670000Y-77967000D01*
X208711000Y-77957000D01*
X208752000Y-77950000D01*
X208793000Y-77944000D01*
X208835000Y-77941000D01*
X208877000Y-77940000D01*
X211277000Y-77940000D01*
X211277000Y-79540000D01*
G37*
X211277000Y-77000000D02*
X208877000Y-77000000D01*
X208835000Y-76999000D01*
X208793000Y-76996000D01*
X208752000Y-76990000D01*
X208711000Y-76983000D01*
X208670000Y-76973000D01*
X208630000Y-76961000D01*
X208590000Y-76947000D01*
X208552000Y-76931000D01*
X208514000Y-76913000D01*
X208477000Y-76893000D01*
X208441000Y-76871000D01*
X208407000Y-76847000D01*
X208374000Y-76822000D01*
X208342000Y-76795000D01*
X208311000Y-76766000D01*
X208282000Y-76735000D01*
X208255000Y-76703000D01*
X208230000Y-76670000D01*
X208206000Y-76636000D01*
X208184000Y-76600000D01*
X208164000Y-76563000D01*
X208146000Y-76525000D01*
X208130000Y-76487000D01*
X208116000Y-76447000D01*
X208104000Y-76407000D01*
X208094000Y-76366000D01*
X208087000Y-76325000D01*
X208081000Y-76284000D01*
X208078000Y-76242000D01*
X208077000Y-76200000D01*
X208078000Y-76158000D01*
X208081000Y-76116000D01*
X208087000Y-76075000D01*
X208094000Y-76034000D01*
X208104000Y-75993000D01*
X208116000Y-75953000D01*
X208130000Y-75913000D01*
X208146000Y-75875000D01*
X208164000Y-75837000D01*
X208184000Y-75800000D01*
X208206000Y-75764000D01*
X208230000Y-75730000D01*
X208255000Y-75697000D01*
X208282000Y-75665000D01*
X208311000Y-75634000D01*
X208342000Y-75605000D01*
X208374000Y-75578000D01*
X208407000Y-75553000D01*
X208441000Y-75529000D01*
X208477000Y-75507000D01*
X208514000Y-75487000D01*
X208552000Y-75469000D01*
X208590000Y-75453000D01*
X208630000Y-75439000D01*
X208670000Y-75427000D01*
X208711000Y-75417000D01*
X208752000Y-75410000D01*
X208793000Y-75404000D01*
X208835000Y-75401000D01*
X208877000Y-75400000D01*
X211277000Y-75400000D01*
X211277000Y-77000000D01*
G36*
X211277000Y-77000000D02*
G01*
X208877000Y-77000000D01*
X208835000Y-76999000D01*
X208793000Y-76996000D01*
X208752000Y-76990000D01*
X208711000Y-76983000D01*
X208670000Y-76973000D01*
X208630000Y-76961000D01*
X208590000Y-76947000D01*
X208552000Y-76931000D01*
X208514000Y-76913000D01*
X208477000Y-76893000D01*
X208441000Y-76871000D01*
X208407000Y-76847000D01*
X208374000Y-76822000D01*
X208342000Y-76795000D01*
X208311000Y-76766000D01*
X208282000Y-76735000D01*
X208255000Y-76703000D01*
X208230000Y-76670000D01*
X208206000Y-76636000D01*
X208184000Y-76600000D01*
X208164000Y-76563000D01*
X208146000Y-76525000D01*
X208130000Y-76487000D01*
X208116000Y-76447000D01*
X208104000Y-76407000D01*
X208094000Y-76366000D01*
X208087000Y-76325000D01*
X208081000Y-76284000D01*
X208078000Y-76242000D01*
X208077000Y-76200000D01*
X208078000Y-76158000D01*
X208081000Y-76116000D01*
X208087000Y-76075000D01*
X208094000Y-76034000D01*
X208104000Y-75993000D01*
X208116000Y-75953000D01*
X208130000Y-75913000D01*
X208146000Y-75875000D01*
X208164000Y-75837000D01*
X208184000Y-75800000D01*
X208206000Y-75764000D01*
X208230000Y-75730000D01*
X208255000Y-75697000D01*
X208282000Y-75665000D01*
X208311000Y-75634000D01*
X208342000Y-75605000D01*
X208374000Y-75578000D01*
X208407000Y-75553000D01*
X208441000Y-75529000D01*
X208477000Y-75507000D01*
X208514000Y-75487000D01*
X208552000Y-75469000D01*
X208590000Y-75453000D01*
X208630000Y-75439000D01*
X208670000Y-75427000D01*
X208711000Y-75417000D01*
X208752000Y-75410000D01*
X208793000Y-75404000D01*
X208835000Y-75401000D01*
X208877000Y-75400000D01*
X211277000Y-75400000D01*
X211277000Y-77000000D01*
G37*
X211277000Y-71920000D02*
X208877000Y-71920000D01*
X208835000Y-71919000D01*
X208793000Y-71916000D01*
X208752000Y-71910000D01*
X208711000Y-71903000D01*
X208670000Y-71893000D01*
X208630000Y-71881000D01*
X208590000Y-71867000D01*
X208552000Y-71851000D01*
X208514000Y-71833000D01*
X208477000Y-71813000D01*
X208441000Y-71791000D01*
X208407000Y-71767000D01*
X208374000Y-71742000D01*
X208342000Y-71715000D01*
X208311000Y-71686000D01*
X208282000Y-71655000D01*
X208255000Y-71623000D01*
X208230000Y-71590000D01*
X208206000Y-71556000D01*
X208184000Y-71520000D01*
X208164000Y-71483000D01*
X208146000Y-71445000D01*
X208130000Y-71407000D01*
X208116000Y-71367000D01*
X208104000Y-71327000D01*
X208094000Y-71286000D01*
X208087000Y-71245000D01*
X208081000Y-71204000D01*
X208078000Y-71162000D01*
X208077000Y-71120000D01*
X208078000Y-71078000D01*
X208081000Y-71036000D01*
X208087000Y-70995000D01*
X208094000Y-70954000D01*
X208104000Y-70913000D01*
X208116000Y-70873000D01*
X208130000Y-70833000D01*
X208146000Y-70795000D01*
X208164000Y-70757000D01*
X208184000Y-70720000D01*
X208206000Y-70684000D01*
X208230000Y-70650000D01*
X208255000Y-70617000D01*
X208282000Y-70585000D01*
X208311000Y-70554000D01*
X208342000Y-70525000D01*
X208374000Y-70498000D01*
X208407000Y-70473000D01*
X208441000Y-70449000D01*
X208477000Y-70427000D01*
X208514000Y-70407000D01*
X208552000Y-70389000D01*
X208590000Y-70373000D01*
X208630000Y-70359000D01*
X208670000Y-70347000D01*
X208711000Y-70337000D01*
X208752000Y-70330000D01*
X208793000Y-70324000D01*
X208835000Y-70321000D01*
X208877000Y-70320000D01*
X211277000Y-70320000D01*
X211277000Y-71920000D01*
G36*
X211277000Y-71920000D02*
G01*
X208877000Y-71920000D01*
X208835000Y-71919000D01*
X208793000Y-71916000D01*
X208752000Y-71910000D01*
X208711000Y-71903000D01*
X208670000Y-71893000D01*
X208630000Y-71881000D01*
X208590000Y-71867000D01*
X208552000Y-71851000D01*
X208514000Y-71833000D01*
X208477000Y-71813000D01*
X208441000Y-71791000D01*
X208407000Y-71767000D01*
X208374000Y-71742000D01*
X208342000Y-71715000D01*
X208311000Y-71686000D01*
X208282000Y-71655000D01*
X208255000Y-71623000D01*
X208230000Y-71590000D01*
X208206000Y-71556000D01*
X208184000Y-71520000D01*
X208164000Y-71483000D01*
X208146000Y-71445000D01*
X208130000Y-71407000D01*
X208116000Y-71367000D01*
X208104000Y-71327000D01*
X208094000Y-71286000D01*
X208087000Y-71245000D01*
X208081000Y-71204000D01*
X208078000Y-71162000D01*
X208077000Y-71120000D01*
X208078000Y-71078000D01*
X208081000Y-71036000D01*
X208087000Y-70995000D01*
X208094000Y-70954000D01*
X208104000Y-70913000D01*
X208116000Y-70873000D01*
X208130000Y-70833000D01*
X208146000Y-70795000D01*
X208164000Y-70757000D01*
X208184000Y-70720000D01*
X208206000Y-70684000D01*
X208230000Y-70650000D01*
X208255000Y-70617000D01*
X208282000Y-70585000D01*
X208311000Y-70554000D01*
X208342000Y-70525000D01*
X208374000Y-70498000D01*
X208407000Y-70473000D01*
X208441000Y-70449000D01*
X208477000Y-70427000D01*
X208514000Y-70407000D01*
X208552000Y-70389000D01*
X208590000Y-70373000D01*
X208630000Y-70359000D01*
X208670000Y-70347000D01*
X208711000Y-70337000D01*
X208752000Y-70330000D01*
X208793000Y-70324000D01*
X208835000Y-70321000D01*
X208877000Y-70320000D01*
X211277000Y-70320000D01*
X211277000Y-71920000D01*
G37*
X211277000Y-69380000D02*
X208877000Y-69380000D01*
X208835000Y-69379000D01*
X208793000Y-69376000D01*
X208752000Y-69370000D01*
X208711000Y-69363000D01*
X208670000Y-69353000D01*
X208630000Y-69341000D01*
X208590000Y-69327000D01*
X208552000Y-69311000D01*
X208514000Y-69293000D01*
X208477000Y-69273000D01*
X208441000Y-69251000D01*
X208407000Y-69227000D01*
X208374000Y-69202000D01*
X208342000Y-69175000D01*
X208311000Y-69146000D01*
X208282000Y-69115000D01*
X208255000Y-69083000D01*
X208230000Y-69050000D01*
X208206000Y-69016000D01*
X208184000Y-68980000D01*
X208164000Y-68943000D01*
X208146000Y-68905000D01*
X208130000Y-68867000D01*
X208116000Y-68827000D01*
X208104000Y-68787000D01*
X208094000Y-68746000D01*
X208087000Y-68705000D01*
X208081000Y-68664000D01*
X208078000Y-68622000D01*
X208077000Y-68580000D01*
X208078000Y-68538000D01*
X208081000Y-68496000D01*
X208087000Y-68455000D01*
X208094000Y-68414000D01*
X208104000Y-68373000D01*
X208116000Y-68333000D01*
X208130000Y-68293000D01*
X208146000Y-68255000D01*
X208164000Y-68217000D01*
X208184000Y-68180000D01*
X208206000Y-68144000D01*
X208230000Y-68110000D01*
X208255000Y-68077000D01*
X208282000Y-68045000D01*
X208311000Y-68014000D01*
X208342000Y-67985000D01*
X208374000Y-67958000D01*
X208407000Y-67933000D01*
X208441000Y-67909000D01*
X208477000Y-67887000D01*
X208514000Y-67867000D01*
X208552000Y-67849000D01*
X208590000Y-67833000D01*
X208630000Y-67819000D01*
X208670000Y-67807000D01*
X208711000Y-67797000D01*
X208752000Y-67790000D01*
X208793000Y-67784000D01*
X208835000Y-67781000D01*
X208877000Y-67780000D01*
X211277000Y-67780000D01*
X211277000Y-69380000D01*
G36*
X211277000Y-69380000D02*
G01*
X208877000Y-69380000D01*
X208835000Y-69379000D01*
X208793000Y-69376000D01*
X208752000Y-69370000D01*
X208711000Y-69363000D01*
X208670000Y-69353000D01*
X208630000Y-69341000D01*
X208590000Y-69327000D01*
X208552000Y-69311000D01*
X208514000Y-69293000D01*
X208477000Y-69273000D01*
X208441000Y-69251000D01*
X208407000Y-69227000D01*
X208374000Y-69202000D01*
X208342000Y-69175000D01*
X208311000Y-69146000D01*
X208282000Y-69115000D01*
X208255000Y-69083000D01*
X208230000Y-69050000D01*
X208206000Y-69016000D01*
X208184000Y-68980000D01*
X208164000Y-68943000D01*
X208146000Y-68905000D01*
X208130000Y-68867000D01*
X208116000Y-68827000D01*
X208104000Y-68787000D01*
X208094000Y-68746000D01*
X208087000Y-68705000D01*
X208081000Y-68664000D01*
X208078000Y-68622000D01*
X208077000Y-68580000D01*
X208078000Y-68538000D01*
X208081000Y-68496000D01*
X208087000Y-68455000D01*
X208094000Y-68414000D01*
X208104000Y-68373000D01*
X208116000Y-68333000D01*
X208130000Y-68293000D01*
X208146000Y-68255000D01*
X208164000Y-68217000D01*
X208184000Y-68180000D01*
X208206000Y-68144000D01*
X208230000Y-68110000D01*
X208255000Y-68077000D01*
X208282000Y-68045000D01*
X208311000Y-68014000D01*
X208342000Y-67985000D01*
X208374000Y-67958000D01*
X208407000Y-67933000D01*
X208441000Y-67909000D01*
X208477000Y-67887000D01*
X208514000Y-67867000D01*
X208552000Y-67849000D01*
X208590000Y-67833000D01*
X208630000Y-67819000D01*
X208670000Y-67807000D01*
X208711000Y-67797000D01*
X208752000Y-67790000D01*
X208793000Y-67784000D01*
X208835000Y-67781000D01*
X208877000Y-67780000D01*
X211277000Y-67780000D01*
X211277000Y-69380000D01*
G37*
X211277000Y-66840000D02*
X208877000Y-66840000D01*
X208835000Y-66839000D01*
X208793000Y-66836000D01*
X208752000Y-66830000D01*
X208711000Y-66823000D01*
X208670000Y-66813000D01*
X208630000Y-66801000D01*
X208590000Y-66787000D01*
X208552000Y-66771000D01*
X208514000Y-66753000D01*
X208477000Y-66733000D01*
X208441000Y-66711000D01*
X208407000Y-66687000D01*
X208374000Y-66662000D01*
X208342000Y-66635000D01*
X208311000Y-66606000D01*
X208282000Y-66575000D01*
X208255000Y-66543000D01*
X208230000Y-66510000D01*
X208206000Y-66476000D01*
X208184000Y-66440000D01*
X208164000Y-66403000D01*
X208146000Y-66365000D01*
X208130000Y-66327000D01*
X208116000Y-66287000D01*
X208104000Y-66247000D01*
X208094000Y-66206000D01*
X208087000Y-66165000D01*
X208081000Y-66124000D01*
X208078000Y-66082000D01*
X208077000Y-66040000D01*
X208078000Y-65998000D01*
X208081000Y-65956000D01*
X208087000Y-65915000D01*
X208094000Y-65874000D01*
X208104000Y-65833000D01*
X208116000Y-65793000D01*
X208130000Y-65753000D01*
X208146000Y-65715000D01*
X208164000Y-65677000D01*
X208184000Y-65640000D01*
X208206000Y-65604000D01*
X208230000Y-65570000D01*
X208255000Y-65537000D01*
X208282000Y-65505000D01*
X208311000Y-65474000D01*
X208342000Y-65445000D01*
X208374000Y-65418000D01*
X208407000Y-65393000D01*
X208441000Y-65369000D01*
X208477000Y-65347000D01*
X208514000Y-65327000D01*
X208552000Y-65309000D01*
X208590000Y-65293000D01*
X208630000Y-65279000D01*
X208670000Y-65267000D01*
X208711000Y-65257000D01*
X208752000Y-65250000D01*
X208793000Y-65244000D01*
X208835000Y-65241000D01*
X208877000Y-65240000D01*
X211277000Y-65240000D01*
X211277000Y-66840000D01*
G36*
X211277000Y-66840000D02*
G01*
X208877000Y-66840000D01*
X208835000Y-66839000D01*
X208793000Y-66836000D01*
X208752000Y-66830000D01*
X208711000Y-66823000D01*
X208670000Y-66813000D01*
X208630000Y-66801000D01*
X208590000Y-66787000D01*
X208552000Y-66771000D01*
X208514000Y-66753000D01*
X208477000Y-66733000D01*
X208441000Y-66711000D01*
X208407000Y-66687000D01*
X208374000Y-66662000D01*
X208342000Y-66635000D01*
X208311000Y-66606000D01*
X208282000Y-66575000D01*
X208255000Y-66543000D01*
X208230000Y-66510000D01*
X208206000Y-66476000D01*
X208184000Y-66440000D01*
X208164000Y-66403000D01*
X208146000Y-66365000D01*
X208130000Y-66327000D01*
X208116000Y-66287000D01*
X208104000Y-66247000D01*
X208094000Y-66206000D01*
X208087000Y-66165000D01*
X208081000Y-66124000D01*
X208078000Y-66082000D01*
X208077000Y-66040000D01*
X208078000Y-65998000D01*
X208081000Y-65956000D01*
X208087000Y-65915000D01*
X208094000Y-65874000D01*
X208104000Y-65833000D01*
X208116000Y-65793000D01*
X208130000Y-65753000D01*
X208146000Y-65715000D01*
X208164000Y-65677000D01*
X208184000Y-65640000D01*
X208206000Y-65604000D01*
X208230000Y-65570000D01*
X208255000Y-65537000D01*
X208282000Y-65505000D01*
X208311000Y-65474000D01*
X208342000Y-65445000D01*
X208374000Y-65418000D01*
X208407000Y-65393000D01*
X208441000Y-65369000D01*
X208477000Y-65347000D01*
X208514000Y-65327000D01*
X208552000Y-65309000D01*
X208590000Y-65293000D01*
X208630000Y-65279000D01*
X208670000Y-65267000D01*
X208711000Y-65257000D01*
X208752000Y-65250000D01*
X208793000Y-65244000D01*
X208835000Y-65241000D01*
X208877000Y-65240000D01*
X211277000Y-65240000D01*
X211277000Y-66840000D01*
G37*
X211277000Y-64300000D02*
X208877000Y-64300000D01*
X208835000Y-64299000D01*
X208793000Y-64296000D01*
X208752000Y-64290000D01*
X208711000Y-64283000D01*
X208670000Y-64273000D01*
X208630000Y-64261000D01*
X208590000Y-64247000D01*
X208552000Y-64231000D01*
X208514000Y-64213000D01*
X208477000Y-64193000D01*
X208441000Y-64171000D01*
X208407000Y-64147000D01*
X208374000Y-64122000D01*
X208342000Y-64095000D01*
X208311000Y-64066000D01*
X208282000Y-64035000D01*
X208255000Y-64003000D01*
X208230000Y-63970000D01*
X208206000Y-63936000D01*
X208184000Y-63900000D01*
X208164000Y-63863000D01*
X208146000Y-63825000D01*
X208130000Y-63787000D01*
X208116000Y-63747000D01*
X208104000Y-63707000D01*
X208094000Y-63666000D01*
X208087000Y-63625000D01*
X208081000Y-63584000D01*
X208078000Y-63542000D01*
X208077000Y-63500000D01*
X208078000Y-63458000D01*
X208081000Y-63416000D01*
X208087000Y-63375000D01*
X208094000Y-63334000D01*
X208104000Y-63293000D01*
X208116000Y-63253000D01*
X208130000Y-63213000D01*
X208146000Y-63175000D01*
X208164000Y-63137000D01*
X208184000Y-63100000D01*
X208206000Y-63064000D01*
X208230000Y-63030000D01*
X208255000Y-62997000D01*
X208282000Y-62965000D01*
X208311000Y-62934000D01*
X208342000Y-62905000D01*
X208374000Y-62878000D01*
X208407000Y-62853000D01*
X208441000Y-62829000D01*
X208477000Y-62807000D01*
X208514000Y-62787000D01*
X208552000Y-62769000D01*
X208590000Y-62753000D01*
X208630000Y-62739000D01*
X208670000Y-62727000D01*
X208711000Y-62717000D01*
X208752000Y-62710000D01*
X208793000Y-62704000D01*
X208835000Y-62701000D01*
X208877000Y-62700000D01*
X211277000Y-62700000D01*
X211277000Y-64300000D01*
G36*
X211277000Y-64300000D02*
G01*
X208877000Y-64300000D01*
X208835000Y-64299000D01*
X208793000Y-64296000D01*
X208752000Y-64290000D01*
X208711000Y-64283000D01*
X208670000Y-64273000D01*
X208630000Y-64261000D01*
X208590000Y-64247000D01*
X208552000Y-64231000D01*
X208514000Y-64213000D01*
X208477000Y-64193000D01*
X208441000Y-64171000D01*
X208407000Y-64147000D01*
X208374000Y-64122000D01*
X208342000Y-64095000D01*
X208311000Y-64066000D01*
X208282000Y-64035000D01*
X208255000Y-64003000D01*
X208230000Y-63970000D01*
X208206000Y-63936000D01*
X208184000Y-63900000D01*
X208164000Y-63863000D01*
X208146000Y-63825000D01*
X208130000Y-63787000D01*
X208116000Y-63747000D01*
X208104000Y-63707000D01*
X208094000Y-63666000D01*
X208087000Y-63625000D01*
X208081000Y-63584000D01*
X208078000Y-63542000D01*
X208077000Y-63500000D01*
X208078000Y-63458000D01*
X208081000Y-63416000D01*
X208087000Y-63375000D01*
X208094000Y-63334000D01*
X208104000Y-63293000D01*
X208116000Y-63253000D01*
X208130000Y-63213000D01*
X208146000Y-63175000D01*
X208164000Y-63137000D01*
X208184000Y-63100000D01*
X208206000Y-63064000D01*
X208230000Y-63030000D01*
X208255000Y-62997000D01*
X208282000Y-62965000D01*
X208311000Y-62934000D01*
X208342000Y-62905000D01*
X208374000Y-62878000D01*
X208407000Y-62853000D01*
X208441000Y-62829000D01*
X208477000Y-62807000D01*
X208514000Y-62787000D01*
X208552000Y-62769000D01*
X208590000Y-62753000D01*
X208630000Y-62739000D01*
X208670000Y-62727000D01*
X208711000Y-62717000D01*
X208752000Y-62710000D01*
X208793000Y-62704000D01*
X208835000Y-62701000D01*
X208877000Y-62700000D01*
X211277000Y-62700000D01*
X211277000Y-64300000D01*
G37*
X211277000Y-59220000D02*
X208877000Y-59220000D01*
X208835000Y-59219000D01*
X208793000Y-59216000D01*
X208752000Y-59210000D01*
X208711000Y-59203000D01*
X208670000Y-59193000D01*
X208630000Y-59181000D01*
X208590000Y-59167000D01*
X208552000Y-59151000D01*
X208514000Y-59133000D01*
X208477000Y-59113000D01*
X208441000Y-59091000D01*
X208407000Y-59067000D01*
X208374000Y-59042000D01*
X208342000Y-59015000D01*
X208311000Y-58986000D01*
X208282000Y-58955000D01*
X208255000Y-58923000D01*
X208230000Y-58890000D01*
X208206000Y-58856000D01*
X208184000Y-58820000D01*
X208164000Y-58783000D01*
X208146000Y-58745000D01*
X208130000Y-58707000D01*
X208116000Y-58667000D01*
X208104000Y-58627000D01*
X208094000Y-58586000D01*
X208087000Y-58545000D01*
X208081000Y-58504000D01*
X208078000Y-58462000D01*
X208077000Y-58420000D01*
X208078000Y-58378000D01*
X208081000Y-58336000D01*
X208087000Y-58295000D01*
X208094000Y-58254000D01*
X208104000Y-58213000D01*
X208116000Y-58173000D01*
X208130000Y-58133000D01*
X208146000Y-58095000D01*
X208164000Y-58057000D01*
X208184000Y-58020000D01*
X208206000Y-57984000D01*
X208230000Y-57950000D01*
X208255000Y-57917000D01*
X208282000Y-57885000D01*
X208311000Y-57854000D01*
X208342000Y-57825000D01*
X208374000Y-57798000D01*
X208407000Y-57773000D01*
X208441000Y-57749000D01*
X208477000Y-57727000D01*
X208514000Y-57707000D01*
X208552000Y-57689000D01*
X208590000Y-57673000D01*
X208630000Y-57659000D01*
X208670000Y-57647000D01*
X208711000Y-57637000D01*
X208752000Y-57630000D01*
X208793000Y-57624000D01*
X208835000Y-57621000D01*
X208877000Y-57620000D01*
X211277000Y-57620000D01*
X211277000Y-59220000D01*
G36*
X211277000Y-59220000D02*
G01*
X208877000Y-59220000D01*
X208835000Y-59219000D01*
X208793000Y-59216000D01*
X208752000Y-59210000D01*
X208711000Y-59203000D01*
X208670000Y-59193000D01*
X208630000Y-59181000D01*
X208590000Y-59167000D01*
X208552000Y-59151000D01*
X208514000Y-59133000D01*
X208477000Y-59113000D01*
X208441000Y-59091000D01*
X208407000Y-59067000D01*
X208374000Y-59042000D01*
X208342000Y-59015000D01*
X208311000Y-58986000D01*
X208282000Y-58955000D01*
X208255000Y-58923000D01*
X208230000Y-58890000D01*
X208206000Y-58856000D01*
X208184000Y-58820000D01*
X208164000Y-58783000D01*
X208146000Y-58745000D01*
X208130000Y-58707000D01*
X208116000Y-58667000D01*
X208104000Y-58627000D01*
X208094000Y-58586000D01*
X208087000Y-58545000D01*
X208081000Y-58504000D01*
X208078000Y-58462000D01*
X208077000Y-58420000D01*
X208078000Y-58378000D01*
X208081000Y-58336000D01*
X208087000Y-58295000D01*
X208094000Y-58254000D01*
X208104000Y-58213000D01*
X208116000Y-58173000D01*
X208130000Y-58133000D01*
X208146000Y-58095000D01*
X208164000Y-58057000D01*
X208184000Y-58020000D01*
X208206000Y-57984000D01*
X208230000Y-57950000D01*
X208255000Y-57917000D01*
X208282000Y-57885000D01*
X208311000Y-57854000D01*
X208342000Y-57825000D01*
X208374000Y-57798000D01*
X208407000Y-57773000D01*
X208441000Y-57749000D01*
X208477000Y-57727000D01*
X208514000Y-57707000D01*
X208552000Y-57689000D01*
X208590000Y-57673000D01*
X208630000Y-57659000D01*
X208670000Y-57647000D01*
X208711000Y-57637000D01*
X208752000Y-57630000D01*
X208793000Y-57624000D01*
X208835000Y-57621000D01*
X208877000Y-57620000D01*
X211277000Y-57620000D01*
X211277000Y-59220000D01*
G37*
X211277000Y-56680000D02*
X208877000Y-56680000D01*
X208835000Y-56679000D01*
X208793000Y-56676000D01*
X208752000Y-56670000D01*
X208711000Y-56663000D01*
X208670000Y-56653000D01*
X208630000Y-56641000D01*
X208590000Y-56627000D01*
X208552000Y-56611000D01*
X208514000Y-56593000D01*
X208477000Y-56573000D01*
X208441000Y-56551000D01*
X208407000Y-56527000D01*
X208374000Y-56502000D01*
X208342000Y-56475000D01*
X208311000Y-56446000D01*
X208282000Y-56415000D01*
X208255000Y-56383000D01*
X208230000Y-56350000D01*
X208206000Y-56316000D01*
X208184000Y-56280000D01*
X208164000Y-56243000D01*
X208146000Y-56205000D01*
X208130000Y-56167000D01*
X208116000Y-56127000D01*
X208104000Y-56087000D01*
X208094000Y-56046000D01*
X208087000Y-56005000D01*
X208081000Y-55964000D01*
X208078000Y-55922000D01*
X208077000Y-55880000D01*
X208078000Y-55838000D01*
X208081000Y-55796000D01*
X208087000Y-55755000D01*
X208094000Y-55714000D01*
X208104000Y-55673000D01*
X208116000Y-55633000D01*
X208130000Y-55593000D01*
X208146000Y-55555000D01*
X208164000Y-55517000D01*
X208184000Y-55480000D01*
X208206000Y-55444000D01*
X208230000Y-55410000D01*
X208255000Y-55377000D01*
X208282000Y-55345000D01*
X208311000Y-55314000D01*
X208342000Y-55285000D01*
X208374000Y-55258000D01*
X208407000Y-55233000D01*
X208441000Y-55209000D01*
X208477000Y-55187000D01*
X208514000Y-55167000D01*
X208552000Y-55149000D01*
X208590000Y-55133000D01*
X208630000Y-55119000D01*
X208670000Y-55107000D01*
X208711000Y-55097000D01*
X208752000Y-55090000D01*
X208793000Y-55084000D01*
X208835000Y-55081000D01*
X208877000Y-55080000D01*
X211277000Y-55080000D01*
X211277000Y-56680000D01*
G36*
X211277000Y-56680000D02*
G01*
X208877000Y-56680000D01*
X208835000Y-56679000D01*
X208793000Y-56676000D01*
X208752000Y-56670000D01*
X208711000Y-56663000D01*
X208670000Y-56653000D01*
X208630000Y-56641000D01*
X208590000Y-56627000D01*
X208552000Y-56611000D01*
X208514000Y-56593000D01*
X208477000Y-56573000D01*
X208441000Y-56551000D01*
X208407000Y-56527000D01*
X208374000Y-56502000D01*
X208342000Y-56475000D01*
X208311000Y-56446000D01*
X208282000Y-56415000D01*
X208255000Y-56383000D01*
X208230000Y-56350000D01*
X208206000Y-56316000D01*
X208184000Y-56280000D01*
X208164000Y-56243000D01*
X208146000Y-56205000D01*
X208130000Y-56167000D01*
X208116000Y-56127000D01*
X208104000Y-56087000D01*
X208094000Y-56046000D01*
X208087000Y-56005000D01*
X208081000Y-55964000D01*
X208078000Y-55922000D01*
X208077000Y-55880000D01*
X208078000Y-55838000D01*
X208081000Y-55796000D01*
X208087000Y-55755000D01*
X208094000Y-55714000D01*
X208104000Y-55673000D01*
X208116000Y-55633000D01*
X208130000Y-55593000D01*
X208146000Y-55555000D01*
X208164000Y-55517000D01*
X208184000Y-55480000D01*
X208206000Y-55444000D01*
X208230000Y-55410000D01*
X208255000Y-55377000D01*
X208282000Y-55345000D01*
X208311000Y-55314000D01*
X208342000Y-55285000D01*
X208374000Y-55258000D01*
X208407000Y-55233000D01*
X208441000Y-55209000D01*
X208477000Y-55187000D01*
X208514000Y-55167000D01*
X208552000Y-55149000D01*
X208590000Y-55133000D01*
X208630000Y-55119000D01*
X208670000Y-55107000D01*
X208711000Y-55097000D01*
X208752000Y-55090000D01*
X208793000Y-55084000D01*
X208835000Y-55081000D01*
X208877000Y-55080000D01*
X211277000Y-55080000D01*
X211277000Y-56680000D01*
G37*
X202569000Y-103111000D02*
X202611000Y-103114000D01*
X202652000Y-103120000D01*
X202693000Y-103127000D01*
X202734000Y-103137000D01*
X202774000Y-103149000D01*
X202814000Y-103163000D01*
X202852000Y-103179000D01*
X202890000Y-103197000D01*
X202927000Y-103217000D01*
X202963000Y-103239000D01*
X202997000Y-103263000D01*
X203030000Y-103288000D01*
X203062000Y-103315000D01*
X203093000Y-103344000D01*
X203122000Y-103375000D01*
X203149000Y-103407000D01*
X203174000Y-103440000D01*
X203198000Y-103474000D01*
X203220000Y-103510000D01*
X203240000Y-103547000D01*
X203258000Y-103585000D01*
X203274000Y-103623000D01*
X203288000Y-103663000D01*
X203300000Y-103703000D01*
X203310000Y-103744000D01*
X203317000Y-103785000D01*
X203323000Y-103826000D01*
X203326000Y-103868000D01*
X203327000Y-103910000D01*
X203327000Y-106310000D01*
X201727000Y-106310000D01*
X201727000Y-103910000D01*
X201728000Y-103868000D01*
X201731000Y-103826000D01*
X201737000Y-103785000D01*
X201744000Y-103744000D01*
X201754000Y-103703000D01*
X201766000Y-103663000D01*
X201780000Y-103623000D01*
X201796000Y-103585000D01*
X201814000Y-103547000D01*
X201834000Y-103510000D01*
X201856000Y-103474000D01*
X201880000Y-103440000D01*
X201905000Y-103407000D01*
X201932000Y-103375000D01*
X201961000Y-103344000D01*
X201992000Y-103315000D01*
X202024000Y-103288000D01*
X202057000Y-103263000D01*
X202091000Y-103239000D01*
X202127000Y-103217000D01*
X202164000Y-103197000D01*
X202202000Y-103179000D01*
X202240000Y-103163000D01*
X202280000Y-103149000D01*
X202320000Y-103137000D01*
X202361000Y-103127000D01*
X202402000Y-103120000D01*
X202443000Y-103114000D01*
X202485000Y-103111000D01*
X202527000Y-103110000D01*
X202569000Y-103111000D01*
G36*
X202569000Y-103111000D02*
G01*
X202611000Y-103114000D01*
X202652000Y-103120000D01*
X202693000Y-103127000D01*
X202734000Y-103137000D01*
X202774000Y-103149000D01*
X202814000Y-103163000D01*
X202852000Y-103179000D01*
X202890000Y-103197000D01*
X202927000Y-103217000D01*
X202963000Y-103239000D01*
X202997000Y-103263000D01*
X203030000Y-103288000D01*
X203062000Y-103315000D01*
X203093000Y-103344000D01*
X203122000Y-103375000D01*
X203149000Y-103407000D01*
X203174000Y-103440000D01*
X203198000Y-103474000D01*
X203220000Y-103510000D01*
X203240000Y-103547000D01*
X203258000Y-103585000D01*
X203274000Y-103623000D01*
X203288000Y-103663000D01*
X203300000Y-103703000D01*
X203310000Y-103744000D01*
X203317000Y-103785000D01*
X203323000Y-103826000D01*
X203326000Y-103868000D01*
X203327000Y-103910000D01*
X203327000Y-106310000D01*
X201727000Y-106310000D01*
X201727000Y-103910000D01*
X201728000Y-103868000D01*
X201731000Y-103826000D01*
X201737000Y-103785000D01*
X201744000Y-103744000D01*
X201754000Y-103703000D01*
X201766000Y-103663000D01*
X201780000Y-103623000D01*
X201796000Y-103585000D01*
X201814000Y-103547000D01*
X201834000Y-103510000D01*
X201856000Y-103474000D01*
X201880000Y-103440000D01*
X201905000Y-103407000D01*
X201932000Y-103375000D01*
X201961000Y-103344000D01*
X201992000Y-103315000D01*
X202024000Y-103288000D01*
X202057000Y-103263000D01*
X202091000Y-103239000D01*
X202127000Y-103217000D01*
X202164000Y-103197000D01*
X202202000Y-103179000D01*
X202240000Y-103163000D01*
X202280000Y-103149000D01*
X202320000Y-103137000D01*
X202361000Y-103127000D01*
X202402000Y-103120000D01*
X202443000Y-103114000D01*
X202485000Y-103111000D01*
X202527000Y-103110000D01*
X202569000Y-103111000D01*
G37*
X197489000Y-103111000D02*
X197531000Y-103114000D01*
X197572000Y-103120000D01*
X197613000Y-103127000D01*
X197654000Y-103137000D01*
X197694000Y-103149000D01*
X197734000Y-103163000D01*
X197772000Y-103179000D01*
X197810000Y-103197000D01*
X197847000Y-103217000D01*
X197883000Y-103239000D01*
X197917000Y-103263000D01*
X197950000Y-103288000D01*
X197982000Y-103315000D01*
X198013000Y-103344000D01*
X198042000Y-103375000D01*
X198069000Y-103407000D01*
X198094000Y-103440000D01*
X198118000Y-103474000D01*
X198140000Y-103510000D01*
X198160000Y-103547000D01*
X198178000Y-103585000D01*
X198194000Y-103623000D01*
X198208000Y-103663000D01*
X198220000Y-103703000D01*
X198230000Y-103744000D01*
X198237000Y-103785000D01*
X198243000Y-103826000D01*
X198246000Y-103868000D01*
X198247000Y-103910000D01*
X198247000Y-106310000D01*
X196647000Y-106310000D01*
X196647000Y-103910000D01*
X196648000Y-103868000D01*
X196651000Y-103826000D01*
X196657000Y-103785000D01*
X196664000Y-103744000D01*
X196674000Y-103703000D01*
X196686000Y-103663000D01*
X196700000Y-103623000D01*
X196716000Y-103585000D01*
X196734000Y-103547000D01*
X196754000Y-103510000D01*
X196776000Y-103474000D01*
X196800000Y-103440000D01*
X196825000Y-103407000D01*
X196852000Y-103375000D01*
X196881000Y-103344000D01*
X196912000Y-103315000D01*
X196944000Y-103288000D01*
X196977000Y-103263000D01*
X197011000Y-103239000D01*
X197047000Y-103217000D01*
X197084000Y-103197000D01*
X197122000Y-103179000D01*
X197160000Y-103163000D01*
X197200000Y-103149000D01*
X197240000Y-103137000D01*
X197281000Y-103127000D01*
X197322000Y-103120000D01*
X197363000Y-103114000D01*
X197405000Y-103111000D01*
X197447000Y-103110000D01*
X197489000Y-103111000D01*
G36*
X197489000Y-103111000D02*
G01*
X197531000Y-103114000D01*
X197572000Y-103120000D01*
X197613000Y-103127000D01*
X197654000Y-103137000D01*
X197694000Y-103149000D01*
X197734000Y-103163000D01*
X197772000Y-103179000D01*
X197810000Y-103197000D01*
X197847000Y-103217000D01*
X197883000Y-103239000D01*
X197917000Y-103263000D01*
X197950000Y-103288000D01*
X197982000Y-103315000D01*
X198013000Y-103344000D01*
X198042000Y-103375000D01*
X198069000Y-103407000D01*
X198094000Y-103440000D01*
X198118000Y-103474000D01*
X198140000Y-103510000D01*
X198160000Y-103547000D01*
X198178000Y-103585000D01*
X198194000Y-103623000D01*
X198208000Y-103663000D01*
X198220000Y-103703000D01*
X198230000Y-103744000D01*
X198237000Y-103785000D01*
X198243000Y-103826000D01*
X198246000Y-103868000D01*
X198247000Y-103910000D01*
X198247000Y-106310000D01*
X196647000Y-106310000D01*
X196647000Y-103910000D01*
X196648000Y-103868000D01*
X196651000Y-103826000D01*
X196657000Y-103785000D01*
X196664000Y-103744000D01*
X196674000Y-103703000D01*
X196686000Y-103663000D01*
X196700000Y-103623000D01*
X196716000Y-103585000D01*
X196734000Y-103547000D01*
X196754000Y-103510000D01*
X196776000Y-103474000D01*
X196800000Y-103440000D01*
X196825000Y-103407000D01*
X196852000Y-103375000D01*
X196881000Y-103344000D01*
X196912000Y-103315000D01*
X196944000Y-103288000D01*
X196977000Y-103263000D01*
X197011000Y-103239000D01*
X197047000Y-103217000D01*
X197084000Y-103197000D01*
X197122000Y-103179000D01*
X197160000Y-103163000D01*
X197200000Y-103149000D01*
X197240000Y-103137000D01*
X197281000Y-103127000D01*
X197322000Y-103120000D01*
X197363000Y-103114000D01*
X197405000Y-103111000D01*
X197447000Y-103110000D01*
X197489000Y-103111000D01*
G37*
X191139000Y-103341000D02*
X191181000Y-103344000D01*
X191222000Y-103350000D01*
X191263000Y-103357000D01*
X191304000Y-103367000D01*
X191344000Y-103379000D01*
X191384000Y-103393000D01*
X191422000Y-103409000D01*
X191460000Y-103427000D01*
X191497000Y-103447000D01*
X191533000Y-103469000D01*
X191567000Y-103493000D01*
X191600000Y-103518000D01*
X191632000Y-103545000D01*
X191663000Y-103574000D01*
X191692000Y-103605000D01*
X191719000Y-103637000D01*
X191744000Y-103670000D01*
X191768000Y-103704000D01*
X191790000Y-103740000D01*
X191810000Y-103777000D01*
X191828000Y-103815000D01*
X191844000Y-103853000D01*
X191858000Y-103893000D01*
X191870000Y-103933000D01*
X191880000Y-103974000D01*
X191887000Y-104015000D01*
X191893000Y-104056000D01*
X191896000Y-104098000D01*
X191897000Y-104140000D01*
X191896000Y-104182000D01*
X191893000Y-104224000D01*
X191887000Y-104265000D01*
X191880000Y-104306000D01*
X191870000Y-104347000D01*
X191858000Y-104387000D01*
X191844000Y-104427000D01*
X191828000Y-104465000D01*
X191810000Y-104503000D01*
X191790000Y-104540000D01*
X191768000Y-104576000D01*
X191744000Y-104610000D01*
X191719000Y-104643000D01*
X191692000Y-104675000D01*
X191663000Y-104706000D01*
X191632000Y-104735000D01*
X191600000Y-104762000D01*
X191567000Y-104787000D01*
X191533000Y-104811000D01*
X191497000Y-104833000D01*
X191460000Y-104853000D01*
X191422000Y-104871000D01*
X191384000Y-104887000D01*
X191344000Y-104901000D01*
X191304000Y-104913000D01*
X191263000Y-104923000D01*
X191222000Y-104930000D01*
X191181000Y-104936000D01*
X191139000Y-104939000D01*
X191097000Y-104940000D01*
X188697000Y-104940000D01*
X188697000Y-103340000D01*
X191097000Y-103340000D01*
X191139000Y-103341000D01*
G36*
X191139000Y-103341000D02*
G01*
X191181000Y-103344000D01*
X191222000Y-103350000D01*
X191263000Y-103357000D01*
X191304000Y-103367000D01*
X191344000Y-103379000D01*
X191384000Y-103393000D01*
X191422000Y-103409000D01*
X191460000Y-103427000D01*
X191497000Y-103447000D01*
X191533000Y-103469000D01*
X191567000Y-103493000D01*
X191600000Y-103518000D01*
X191632000Y-103545000D01*
X191663000Y-103574000D01*
X191692000Y-103605000D01*
X191719000Y-103637000D01*
X191744000Y-103670000D01*
X191768000Y-103704000D01*
X191790000Y-103740000D01*
X191810000Y-103777000D01*
X191828000Y-103815000D01*
X191844000Y-103853000D01*
X191858000Y-103893000D01*
X191870000Y-103933000D01*
X191880000Y-103974000D01*
X191887000Y-104015000D01*
X191893000Y-104056000D01*
X191896000Y-104098000D01*
X191897000Y-104140000D01*
X191896000Y-104182000D01*
X191893000Y-104224000D01*
X191887000Y-104265000D01*
X191880000Y-104306000D01*
X191870000Y-104347000D01*
X191858000Y-104387000D01*
X191844000Y-104427000D01*
X191828000Y-104465000D01*
X191810000Y-104503000D01*
X191790000Y-104540000D01*
X191768000Y-104576000D01*
X191744000Y-104610000D01*
X191719000Y-104643000D01*
X191692000Y-104675000D01*
X191663000Y-104706000D01*
X191632000Y-104735000D01*
X191600000Y-104762000D01*
X191567000Y-104787000D01*
X191533000Y-104811000D01*
X191497000Y-104833000D01*
X191460000Y-104853000D01*
X191422000Y-104871000D01*
X191384000Y-104887000D01*
X191344000Y-104901000D01*
X191304000Y-104913000D01*
X191263000Y-104923000D01*
X191222000Y-104930000D01*
X191181000Y-104936000D01*
X191139000Y-104939000D01*
X191097000Y-104940000D01*
X188697000Y-104940000D01*
X188697000Y-103340000D01*
X191097000Y-103340000D01*
X191139000Y-103341000D01*
G37*
X191139000Y-100801000D02*
X191181000Y-100804000D01*
X191222000Y-100810000D01*
X191263000Y-100817000D01*
X191304000Y-100827000D01*
X191344000Y-100839000D01*
X191384000Y-100853000D01*
X191422000Y-100869000D01*
X191460000Y-100887000D01*
X191497000Y-100907000D01*
X191533000Y-100929000D01*
X191567000Y-100953000D01*
X191600000Y-100978000D01*
X191632000Y-101005000D01*
X191663000Y-101034000D01*
X191692000Y-101065000D01*
X191719000Y-101097000D01*
X191744000Y-101130000D01*
X191768000Y-101164000D01*
X191790000Y-101200000D01*
X191810000Y-101237000D01*
X191828000Y-101275000D01*
X191844000Y-101313000D01*
X191858000Y-101353000D01*
X191870000Y-101393000D01*
X191880000Y-101434000D01*
X191887000Y-101475000D01*
X191893000Y-101516000D01*
X191896000Y-101558000D01*
X191897000Y-101600000D01*
X191896000Y-101642000D01*
X191893000Y-101684000D01*
X191887000Y-101725000D01*
X191880000Y-101766000D01*
X191870000Y-101807000D01*
X191858000Y-101847000D01*
X191844000Y-101887000D01*
X191828000Y-101925000D01*
X191810000Y-101963000D01*
X191790000Y-102000000D01*
X191768000Y-102036000D01*
X191744000Y-102070000D01*
X191719000Y-102103000D01*
X191692000Y-102135000D01*
X191663000Y-102166000D01*
X191632000Y-102195000D01*
X191600000Y-102222000D01*
X191567000Y-102247000D01*
X191533000Y-102271000D01*
X191497000Y-102293000D01*
X191460000Y-102313000D01*
X191422000Y-102331000D01*
X191384000Y-102347000D01*
X191344000Y-102361000D01*
X191304000Y-102373000D01*
X191263000Y-102383000D01*
X191222000Y-102390000D01*
X191181000Y-102396000D01*
X191139000Y-102399000D01*
X191097000Y-102400000D01*
X188697000Y-102400000D01*
X188697000Y-100800000D01*
X191097000Y-100800000D01*
X191139000Y-100801000D01*
G36*
X191139000Y-100801000D02*
G01*
X191181000Y-100804000D01*
X191222000Y-100810000D01*
X191263000Y-100817000D01*
X191304000Y-100827000D01*
X191344000Y-100839000D01*
X191384000Y-100853000D01*
X191422000Y-100869000D01*
X191460000Y-100887000D01*
X191497000Y-100907000D01*
X191533000Y-100929000D01*
X191567000Y-100953000D01*
X191600000Y-100978000D01*
X191632000Y-101005000D01*
X191663000Y-101034000D01*
X191692000Y-101065000D01*
X191719000Y-101097000D01*
X191744000Y-101130000D01*
X191768000Y-101164000D01*
X191790000Y-101200000D01*
X191810000Y-101237000D01*
X191828000Y-101275000D01*
X191844000Y-101313000D01*
X191858000Y-101353000D01*
X191870000Y-101393000D01*
X191880000Y-101434000D01*
X191887000Y-101475000D01*
X191893000Y-101516000D01*
X191896000Y-101558000D01*
X191897000Y-101600000D01*
X191896000Y-101642000D01*
X191893000Y-101684000D01*
X191887000Y-101725000D01*
X191880000Y-101766000D01*
X191870000Y-101807000D01*
X191858000Y-101847000D01*
X191844000Y-101887000D01*
X191828000Y-101925000D01*
X191810000Y-101963000D01*
X191790000Y-102000000D01*
X191768000Y-102036000D01*
X191744000Y-102070000D01*
X191719000Y-102103000D01*
X191692000Y-102135000D01*
X191663000Y-102166000D01*
X191632000Y-102195000D01*
X191600000Y-102222000D01*
X191567000Y-102247000D01*
X191533000Y-102271000D01*
X191497000Y-102293000D01*
X191460000Y-102313000D01*
X191422000Y-102331000D01*
X191384000Y-102347000D01*
X191344000Y-102361000D01*
X191304000Y-102373000D01*
X191263000Y-102383000D01*
X191222000Y-102390000D01*
X191181000Y-102396000D01*
X191139000Y-102399000D01*
X191097000Y-102400000D01*
X188697000Y-102400000D01*
X188697000Y-100800000D01*
X191097000Y-100800000D01*
X191139000Y-100801000D01*
G37*
X191139000Y-95721000D02*
X191181000Y-95724000D01*
X191222000Y-95730000D01*
X191263000Y-95737000D01*
X191304000Y-95747000D01*
X191344000Y-95759000D01*
X191384000Y-95773000D01*
X191422000Y-95789000D01*
X191460000Y-95807000D01*
X191497000Y-95827000D01*
X191533000Y-95849000D01*
X191567000Y-95873000D01*
X191600000Y-95898000D01*
X191632000Y-95925000D01*
X191663000Y-95954000D01*
X191692000Y-95985000D01*
X191719000Y-96017000D01*
X191744000Y-96050000D01*
X191768000Y-96084000D01*
X191790000Y-96120000D01*
X191810000Y-96157000D01*
X191828000Y-96195000D01*
X191844000Y-96233000D01*
X191858000Y-96273000D01*
X191870000Y-96313000D01*
X191880000Y-96354000D01*
X191887000Y-96395000D01*
X191893000Y-96436000D01*
X191896000Y-96478000D01*
X191897000Y-96520000D01*
X191896000Y-96562000D01*
X191893000Y-96604000D01*
X191887000Y-96645000D01*
X191880000Y-96686000D01*
X191870000Y-96727000D01*
X191858000Y-96767000D01*
X191844000Y-96807000D01*
X191828000Y-96845000D01*
X191810000Y-96883000D01*
X191790000Y-96920000D01*
X191768000Y-96956000D01*
X191744000Y-96990000D01*
X191719000Y-97023000D01*
X191692000Y-97055000D01*
X191663000Y-97086000D01*
X191632000Y-97115000D01*
X191600000Y-97142000D01*
X191567000Y-97167000D01*
X191533000Y-97191000D01*
X191497000Y-97213000D01*
X191460000Y-97233000D01*
X191422000Y-97251000D01*
X191384000Y-97267000D01*
X191344000Y-97281000D01*
X191304000Y-97293000D01*
X191263000Y-97303000D01*
X191222000Y-97310000D01*
X191181000Y-97316000D01*
X191139000Y-97319000D01*
X191097000Y-97320000D01*
X188697000Y-97320000D01*
X188697000Y-95720000D01*
X191097000Y-95720000D01*
X191139000Y-95721000D01*
G36*
X191139000Y-95721000D02*
G01*
X191181000Y-95724000D01*
X191222000Y-95730000D01*
X191263000Y-95737000D01*
X191304000Y-95747000D01*
X191344000Y-95759000D01*
X191384000Y-95773000D01*
X191422000Y-95789000D01*
X191460000Y-95807000D01*
X191497000Y-95827000D01*
X191533000Y-95849000D01*
X191567000Y-95873000D01*
X191600000Y-95898000D01*
X191632000Y-95925000D01*
X191663000Y-95954000D01*
X191692000Y-95985000D01*
X191719000Y-96017000D01*
X191744000Y-96050000D01*
X191768000Y-96084000D01*
X191790000Y-96120000D01*
X191810000Y-96157000D01*
X191828000Y-96195000D01*
X191844000Y-96233000D01*
X191858000Y-96273000D01*
X191870000Y-96313000D01*
X191880000Y-96354000D01*
X191887000Y-96395000D01*
X191893000Y-96436000D01*
X191896000Y-96478000D01*
X191897000Y-96520000D01*
X191896000Y-96562000D01*
X191893000Y-96604000D01*
X191887000Y-96645000D01*
X191880000Y-96686000D01*
X191870000Y-96727000D01*
X191858000Y-96767000D01*
X191844000Y-96807000D01*
X191828000Y-96845000D01*
X191810000Y-96883000D01*
X191790000Y-96920000D01*
X191768000Y-96956000D01*
X191744000Y-96990000D01*
X191719000Y-97023000D01*
X191692000Y-97055000D01*
X191663000Y-97086000D01*
X191632000Y-97115000D01*
X191600000Y-97142000D01*
X191567000Y-97167000D01*
X191533000Y-97191000D01*
X191497000Y-97213000D01*
X191460000Y-97233000D01*
X191422000Y-97251000D01*
X191384000Y-97267000D01*
X191344000Y-97281000D01*
X191304000Y-97293000D01*
X191263000Y-97303000D01*
X191222000Y-97310000D01*
X191181000Y-97316000D01*
X191139000Y-97319000D01*
X191097000Y-97320000D01*
X188697000Y-97320000D01*
X188697000Y-95720000D01*
X191097000Y-95720000D01*
X191139000Y-95721000D01*
G37*
X191139000Y-93181000D02*
X191181000Y-93184000D01*
X191222000Y-93190000D01*
X191263000Y-93197000D01*
X191304000Y-93207000D01*
X191344000Y-93219000D01*
X191384000Y-93233000D01*
X191422000Y-93249000D01*
X191460000Y-93267000D01*
X191497000Y-93287000D01*
X191533000Y-93309000D01*
X191567000Y-93333000D01*
X191600000Y-93358000D01*
X191632000Y-93385000D01*
X191663000Y-93414000D01*
X191692000Y-93445000D01*
X191719000Y-93477000D01*
X191744000Y-93510000D01*
X191768000Y-93544000D01*
X191790000Y-93580000D01*
X191810000Y-93617000D01*
X191828000Y-93655000D01*
X191844000Y-93693000D01*
X191858000Y-93733000D01*
X191870000Y-93773000D01*
X191880000Y-93814000D01*
X191887000Y-93855000D01*
X191893000Y-93896000D01*
X191896000Y-93938000D01*
X191897000Y-93980000D01*
X191896000Y-94022000D01*
X191893000Y-94064000D01*
X191887000Y-94105000D01*
X191880000Y-94146000D01*
X191870000Y-94187000D01*
X191858000Y-94227000D01*
X191844000Y-94267000D01*
X191828000Y-94305000D01*
X191810000Y-94343000D01*
X191790000Y-94380000D01*
X191768000Y-94416000D01*
X191744000Y-94450000D01*
X191719000Y-94483000D01*
X191692000Y-94515000D01*
X191663000Y-94546000D01*
X191632000Y-94575000D01*
X191600000Y-94602000D01*
X191567000Y-94627000D01*
X191533000Y-94651000D01*
X191497000Y-94673000D01*
X191460000Y-94693000D01*
X191422000Y-94711000D01*
X191384000Y-94727000D01*
X191344000Y-94741000D01*
X191304000Y-94753000D01*
X191263000Y-94763000D01*
X191222000Y-94770000D01*
X191181000Y-94776000D01*
X191139000Y-94779000D01*
X191097000Y-94780000D01*
X188697000Y-94780000D01*
X188697000Y-93180000D01*
X191097000Y-93180000D01*
X191139000Y-93181000D01*
G36*
X191139000Y-93181000D02*
G01*
X191181000Y-93184000D01*
X191222000Y-93190000D01*
X191263000Y-93197000D01*
X191304000Y-93207000D01*
X191344000Y-93219000D01*
X191384000Y-93233000D01*
X191422000Y-93249000D01*
X191460000Y-93267000D01*
X191497000Y-93287000D01*
X191533000Y-93309000D01*
X191567000Y-93333000D01*
X191600000Y-93358000D01*
X191632000Y-93385000D01*
X191663000Y-93414000D01*
X191692000Y-93445000D01*
X191719000Y-93477000D01*
X191744000Y-93510000D01*
X191768000Y-93544000D01*
X191790000Y-93580000D01*
X191810000Y-93617000D01*
X191828000Y-93655000D01*
X191844000Y-93693000D01*
X191858000Y-93733000D01*
X191870000Y-93773000D01*
X191880000Y-93814000D01*
X191887000Y-93855000D01*
X191893000Y-93896000D01*
X191896000Y-93938000D01*
X191897000Y-93980000D01*
X191896000Y-94022000D01*
X191893000Y-94064000D01*
X191887000Y-94105000D01*
X191880000Y-94146000D01*
X191870000Y-94187000D01*
X191858000Y-94227000D01*
X191844000Y-94267000D01*
X191828000Y-94305000D01*
X191810000Y-94343000D01*
X191790000Y-94380000D01*
X191768000Y-94416000D01*
X191744000Y-94450000D01*
X191719000Y-94483000D01*
X191692000Y-94515000D01*
X191663000Y-94546000D01*
X191632000Y-94575000D01*
X191600000Y-94602000D01*
X191567000Y-94627000D01*
X191533000Y-94651000D01*
X191497000Y-94673000D01*
X191460000Y-94693000D01*
X191422000Y-94711000D01*
X191384000Y-94727000D01*
X191344000Y-94741000D01*
X191304000Y-94753000D01*
X191263000Y-94763000D01*
X191222000Y-94770000D01*
X191181000Y-94776000D01*
X191139000Y-94779000D01*
X191097000Y-94780000D01*
X188697000Y-94780000D01*
X188697000Y-93180000D01*
X191097000Y-93180000D01*
X191139000Y-93181000D01*
G37*
X191139000Y-90641000D02*
X191181000Y-90644000D01*
X191222000Y-90650000D01*
X191263000Y-90657000D01*
X191304000Y-90667000D01*
X191344000Y-90679000D01*
X191384000Y-90693000D01*
X191422000Y-90709000D01*
X191460000Y-90727000D01*
X191497000Y-90747000D01*
X191533000Y-90769000D01*
X191567000Y-90793000D01*
X191600000Y-90818000D01*
X191632000Y-90845000D01*
X191663000Y-90874000D01*
X191692000Y-90905000D01*
X191719000Y-90937000D01*
X191744000Y-90970000D01*
X191768000Y-91004000D01*
X191790000Y-91040000D01*
X191810000Y-91077000D01*
X191828000Y-91115000D01*
X191844000Y-91153000D01*
X191858000Y-91193000D01*
X191870000Y-91233000D01*
X191880000Y-91274000D01*
X191887000Y-91315000D01*
X191893000Y-91356000D01*
X191896000Y-91398000D01*
X191897000Y-91440000D01*
X191896000Y-91482000D01*
X191893000Y-91524000D01*
X191887000Y-91565000D01*
X191880000Y-91606000D01*
X191870000Y-91647000D01*
X191858000Y-91687000D01*
X191844000Y-91727000D01*
X191828000Y-91765000D01*
X191810000Y-91803000D01*
X191790000Y-91840000D01*
X191768000Y-91876000D01*
X191744000Y-91910000D01*
X191719000Y-91943000D01*
X191692000Y-91975000D01*
X191663000Y-92006000D01*
X191632000Y-92035000D01*
X191600000Y-92062000D01*
X191567000Y-92087000D01*
X191533000Y-92111000D01*
X191497000Y-92133000D01*
X191460000Y-92153000D01*
X191422000Y-92171000D01*
X191384000Y-92187000D01*
X191344000Y-92201000D01*
X191304000Y-92213000D01*
X191263000Y-92223000D01*
X191222000Y-92230000D01*
X191181000Y-92236000D01*
X191139000Y-92239000D01*
X191097000Y-92240000D01*
X188697000Y-92240000D01*
X188697000Y-90640000D01*
X191097000Y-90640000D01*
X191139000Y-90641000D01*
G36*
X191139000Y-90641000D02*
G01*
X191181000Y-90644000D01*
X191222000Y-90650000D01*
X191263000Y-90657000D01*
X191304000Y-90667000D01*
X191344000Y-90679000D01*
X191384000Y-90693000D01*
X191422000Y-90709000D01*
X191460000Y-90727000D01*
X191497000Y-90747000D01*
X191533000Y-90769000D01*
X191567000Y-90793000D01*
X191600000Y-90818000D01*
X191632000Y-90845000D01*
X191663000Y-90874000D01*
X191692000Y-90905000D01*
X191719000Y-90937000D01*
X191744000Y-90970000D01*
X191768000Y-91004000D01*
X191790000Y-91040000D01*
X191810000Y-91077000D01*
X191828000Y-91115000D01*
X191844000Y-91153000D01*
X191858000Y-91193000D01*
X191870000Y-91233000D01*
X191880000Y-91274000D01*
X191887000Y-91315000D01*
X191893000Y-91356000D01*
X191896000Y-91398000D01*
X191897000Y-91440000D01*
X191896000Y-91482000D01*
X191893000Y-91524000D01*
X191887000Y-91565000D01*
X191880000Y-91606000D01*
X191870000Y-91647000D01*
X191858000Y-91687000D01*
X191844000Y-91727000D01*
X191828000Y-91765000D01*
X191810000Y-91803000D01*
X191790000Y-91840000D01*
X191768000Y-91876000D01*
X191744000Y-91910000D01*
X191719000Y-91943000D01*
X191692000Y-91975000D01*
X191663000Y-92006000D01*
X191632000Y-92035000D01*
X191600000Y-92062000D01*
X191567000Y-92087000D01*
X191533000Y-92111000D01*
X191497000Y-92133000D01*
X191460000Y-92153000D01*
X191422000Y-92171000D01*
X191384000Y-92187000D01*
X191344000Y-92201000D01*
X191304000Y-92213000D01*
X191263000Y-92223000D01*
X191222000Y-92230000D01*
X191181000Y-92236000D01*
X191139000Y-92239000D01*
X191097000Y-92240000D01*
X188697000Y-92240000D01*
X188697000Y-90640000D01*
X191097000Y-90640000D01*
X191139000Y-90641000D01*
G37*
X191139000Y-88101000D02*
X191181000Y-88104000D01*
X191222000Y-88110000D01*
X191263000Y-88117000D01*
X191304000Y-88127000D01*
X191344000Y-88139000D01*
X191384000Y-88153000D01*
X191422000Y-88169000D01*
X191460000Y-88187000D01*
X191497000Y-88207000D01*
X191533000Y-88229000D01*
X191567000Y-88253000D01*
X191600000Y-88278000D01*
X191632000Y-88305000D01*
X191663000Y-88334000D01*
X191692000Y-88365000D01*
X191719000Y-88397000D01*
X191744000Y-88430000D01*
X191768000Y-88464000D01*
X191790000Y-88500000D01*
X191810000Y-88537000D01*
X191828000Y-88575000D01*
X191844000Y-88613000D01*
X191858000Y-88653000D01*
X191870000Y-88693000D01*
X191880000Y-88734000D01*
X191887000Y-88775000D01*
X191893000Y-88816000D01*
X191896000Y-88858000D01*
X191897000Y-88900000D01*
X191896000Y-88942000D01*
X191893000Y-88984000D01*
X191887000Y-89025000D01*
X191880000Y-89066000D01*
X191870000Y-89107000D01*
X191858000Y-89147000D01*
X191844000Y-89187000D01*
X191828000Y-89225000D01*
X191810000Y-89263000D01*
X191790000Y-89300000D01*
X191768000Y-89336000D01*
X191744000Y-89370000D01*
X191719000Y-89403000D01*
X191692000Y-89435000D01*
X191663000Y-89466000D01*
X191632000Y-89495000D01*
X191600000Y-89522000D01*
X191567000Y-89547000D01*
X191533000Y-89571000D01*
X191497000Y-89593000D01*
X191460000Y-89613000D01*
X191422000Y-89631000D01*
X191384000Y-89647000D01*
X191344000Y-89661000D01*
X191304000Y-89673000D01*
X191263000Y-89683000D01*
X191222000Y-89690000D01*
X191181000Y-89696000D01*
X191139000Y-89699000D01*
X191097000Y-89700000D01*
X188697000Y-89700000D01*
X188697000Y-88100000D01*
X191097000Y-88100000D01*
X191139000Y-88101000D01*
G36*
X191139000Y-88101000D02*
G01*
X191181000Y-88104000D01*
X191222000Y-88110000D01*
X191263000Y-88117000D01*
X191304000Y-88127000D01*
X191344000Y-88139000D01*
X191384000Y-88153000D01*
X191422000Y-88169000D01*
X191460000Y-88187000D01*
X191497000Y-88207000D01*
X191533000Y-88229000D01*
X191567000Y-88253000D01*
X191600000Y-88278000D01*
X191632000Y-88305000D01*
X191663000Y-88334000D01*
X191692000Y-88365000D01*
X191719000Y-88397000D01*
X191744000Y-88430000D01*
X191768000Y-88464000D01*
X191790000Y-88500000D01*
X191810000Y-88537000D01*
X191828000Y-88575000D01*
X191844000Y-88613000D01*
X191858000Y-88653000D01*
X191870000Y-88693000D01*
X191880000Y-88734000D01*
X191887000Y-88775000D01*
X191893000Y-88816000D01*
X191896000Y-88858000D01*
X191897000Y-88900000D01*
X191896000Y-88942000D01*
X191893000Y-88984000D01*
X191887000Y-89025000D01*
X191880000Y-89066000D01*
X191870000Y-89107000D01*
X191858000Y-89147000D01*
X191844000Y-89187000D01*
X191828000Y-89225000D01*
X191810000Y-89263000D01*
X191790000Y-89300000D01*
X191768000Y-89336000D01*
X191744000Y-89370000D01*
X191719000Y-89403000D01*
X191692000Y-89435000D01*
X191663000Y-89466000D01*
X191632000Y-89495000D01*
X191600000Y-89522000D01*
X191567000Y-89547000D01*
X191533000Y-89571000D01*
X191497000Y-89593000D01*
X191460000Y-89613000D01*
X191422000Y-89631000D01*
X191384000Y-89647000D01*
X191344000Y-89661000D01*
X191304000Y-89673000D01*
X191263000Y-89683000D01*
X191222000Y-89690000D01*
X191181000Y-89696000D01*
X191139000Y-89699000D01*
X191097000Y-89700000D01*
X188697000Y-89700000D01*
X188697000Y-88100000D01*
X191097000Y-88100000D01*
X191139000Y-88101000D01*
G37*
X191139000Y-83021000D02*
X191181000Y-83024000D01*
X191222000Y-83030000D01*
X191263000Y-83037000D01*
X191304000Y-83047000D01*
X191344000Y-83059000D01*
X191384000Y-83073000D01*
X191422000Y-83089000D01*
X191460000Y-83107000D01*
X191497000Y-83127000D01*
X191533000Y-83149000D01*
X191567000Y-83173000D01*
X191600000Y-83198000D01*
X191632000Y-83225000D01*
X191663000Y-83254000D01*
X191692000Y-83285000D01*
X191719000Y-83317000D01*
X191744000Y-83350000D01*
X191768000Y-83384000D01*
X191790000Y-83420000D01*
X191810000Y-83457000D01*
X191828000Y-83495000D01*
X191844000Y-83533000D01*
X191858000Y-83573000D01*
X191870000Y-83613000D01*
X191880000Y-83654000D01*
X191887000Y-83695000D01*
X191893000Y-83736000D01*
X191896000Y-83778000D01*
X191897000Y-83820000D01*
X191896000Y-83862000D01*
X191893000Y-83904000D01*
X191887000Y-83945000D01*
X191880000Y-83986000D01*
X191870000Y-84027000D01*
X191858000Y-84067000D01*
X191844000Y-84107000D01*
X191828000Y-84145000D01*
X191810000Y-84183000D01*
X191790000Y-84220000D01*
X191768000Y-84256000D01*
X191744000Y-84290000D01*
X191719000Y-84323000D01*
X191692000Y-84355000D01*
X191663000Y-84386000D01*
X191632000Y-84415000D01*
X191600000Y-84442000D01*
X191567000Y-84467000D01*
X191533000Y-84491000D01*
X191497000Y-84513000D01*
X191460000Y-84533000D01*
X191422000Y-84551000D01*
X191384000Y-84567000D01*
X191344000Y-84581000D01*
X191304000Y-84593000D01*
X191263000Y-84603000D01*
X191222000Y-84610000D01*
X191181000Y-84616000D01*
X191139000Y-84619000D01*
X191097000Y-84620000D01*
X188697000Y-84620000D01*
X188697000Y-83020000D01*
X191097000Y-83020000D01*
X191139000Y-83021000D01*
G36*
X191139000Y-83021000D02*
G01*
X191181000Y-83024000D01*
X191222000Y-83030000D01*
X191263000Y-83037000D01*
X191304000Y-83047000D01*
X191344000Y-83059000D01*
X191384000Y-83073000D01*
X191422000Y-83089000D01*
X191460000Y-83107000D01*
X191497000Y-83127000D01*
X191533000Y-83149000D01*
X191567000Y-83173000D01*
X191600000Y-83198000D01*
X191632000Y-83225000D01*
X191663000Y-83254000D01*
X191692000Y-83285000D01*
X191719000Y-83317000D01*
X191744000Y-83350000D01*
X191768000Y-83384000D01*
X191790000Y-83420000D01*
X191810000Y-83457000D01*
X191828000Y-83495000D01*
X191844000Y-83533000D01*
X191858000Y-83573000D01*
X191870000Y-83613000D01*
X191880000Y-83654000D01*
X191887000Y-83695000D01*
X191893000Y-83736000D01*
X191896000Y-83778000D01*
X191897000Y-83820000D01*
X191896000Y-83862000D01*
X191893000Y-83904000D01*
X191887000Y-83945000D01*
X191880000Y-83986000D01*
X191870000Y-84027000D01*
X191858000Y-84067000D01*
X191844000Y-84107000D01*
X191828000Y-84145000D01*
X191810000Y-84183000D01*
X191790000Y-84220000D01*
X191768000Y-84256000D01*
X191744000Y-84290000D01*
X191719000Y-84323000D01*
X191692000Y-84355000D01*
X191663000Y-84386000D01*
X191632000Y-84415000D01*
X191600000Y-84442000D01*
X191567000Y-84467000D01*
X191533000Y-84491000D01*
X191497000Y-84513000D01*
X191460000Y-84533000D01*
X191422000Y-84551000D01*
X191384000Y-84567000D01*
X191344000Y-84581000D01*
X191304000Y-84593000D01*
X191263000Y-84603000D01*
X191222000Y-84610000D01*
X191181000Y-84616000D01*
X191139000Y-84619000D01*
X191097000Y-84620000D01*
X188697000Y-84620000D01*
X188697000Y-83020000D01*
X191097000Y-83020000D01*
X191139000Y-83021000D01*
G37*
X191139000Y-80481000D02*
X191181000Y-80484000D01*
X191222000Y-80490000D01*
X191263000Y-80497000D01*
X191304000Y-80507000D01*
X191344000Y-80519000D01*
X191384000Y-80533000D01*
X191422000Y-80549000D01*
X191460000Y-80567000D01*
X191497000Y-80587000D01*
X191533000Y-80609000D01*
X191567000Y-80633000D01*
X191600000Y-80658000D01*
X191632000Y-80685000D01*
X191663000Y-80714000D01*
X191692000Y-80745000D01*
X191719000Y-80777000D01*
X191744000Y-80810000D01*
X191768000Y-80844000D01*
X191790000Y-80880000D01*
X191810000Y-80917000D01*
X191828000Y-80955000D01*
X191844000Y-80993000D01*
X191858000Y-81033000D01*
X191870000Y-81073000D01*
X191880000Y-81114000D01*
X191887000Y-81155000D01*
X191893000Y-81196000D01*
X191896000Y-81238000D01*
X191897000Y-81280000D01*
X191896000Y-81322000D01*
X191893000Y-81364000D01*
X191887000Y-81405000D01*
X191880000Y-81446000D01*
X191870000Y-81487000D01*
X191858000Y-81527000D01*
X191844000Y-81567000D01*
X191828000Y-81605000D01*
X191810000Y-81643000D01*
X191790000Y-81680000D01*
X191768000Y-81716000D01*
X191744000Y-81750000D01*
X191719000Y-81783000D01*
X191692000Y-81815000D01*
X191663000Y-81846000D01*
X191632000Y-81875000D01*
X191600000Y-81902000D01*
X191567000Y-81927000D01*
X191533000Y-81951000D01*
X191497000Y-81973000D01*
X191460000Y-81993000D01*
X191422000Y-82011000D01*
X191384000Y-82027000D01*
X191344000Y-82041000D01*
X191304000Y-82053000D01*
X191263000Y-82063000D01*
X191222000Y-82070000D01*
X191181000Y-82076000D01*
X191139000Y-82079000D01*
X191097000Y-82080000D01*
X188697000Y-82080000D01*
X188697000Y-80480000D01*
X191097000Y-80480000D01*
X191139000Y-80481000D01*
G36*
X191139000Y-80481000D02*
G01*
X191181000Y-80484000D01*
X191222000Y-80490000D01*
X191263000Y-80497000D01*
X191304000Y-80507000D01*
X191344000Y-80519000D01*
X191384000Y-80533000D01*
X191422000Y-80549000D01*
X191460000Y-80567000D01*
X191497000Y-80587000D01*
X191533000Y-80609000D01*
X191567000Y-80633000D01*
X191600000Y-80658000D01*
X191632000Y-80685000D01*
X191663000Y-80714000D01*
X191692000Y-80745000D01*
X191719000Y-80777000D01*
X191744000Y-80810000D01*
X191768000Y-80844000D01*
X191790000Y-80880000D01*
X191810000Y-80917000D01*
X191828000Y-80955000D01*
X191844000Y-80993000D01*
X191858000Y-81033000D01*
X191870000Y-81073000D01*
X191880000Y-81114000D01*
X191887000Y-81155000D01*
X191893000Y-81196000D01*
X191896000Y-81238000D01*
X191897000Y-81280000D01*
X191896000Y-81322000D01*
X191893000Y-81364000D01*
X191887000Y-81405000D01*
X191880000Y-81446000D01*
X191870000Y-81487000D01*
X191858000Y-81527000D01*
X191844000Y-81567000D01*
X191828000Y-81605000D01*
X191810000Y-81643000D01*
X191790000Y-81680000D01*
X191768000Y-81716000D01*
X191744000Y-81750000D01*
X191719000Y-81783000D01*
X191692000Y-81815000D01*
X191663000Y-81846000D01*
X191632000Y-81875000D01*
X191600000Y-81902000D01*
X191567000Y-81927000D01*
X191533000Y-81951000D01*
X191497000Y-81973000D01*
X191460000Y-81993000D01*
X191422000Y-82011000D01*
X191384000Y-82027000D01*
X191344000Y-82041000D01*
X191304000Y-82053000D01*
X191263000Y-82063000D01*
X191222000Y-82070000D01*
X191181000Y-82076000D01*
X191139000Y-82079000D01*
X191097000Y-82080000D01*
X188697000Y-82080000D01*
X188697000Y-80480000D01*
X191097000Y-80480000D01*
X191139000Y-80481000D01*
G37*
X191139000Y-77941000D02*
X191181000Y-77944000D01*
X191222000Y-77950000D01*
X191263000Y-77957000D01*
X191304000Y-77967000D01*
X191344000Y-77979000D01*
X191384000Y-77993000D01*
X191422000Y-78009000D01*
X191460000Y-78027000D01*
X191497000Y-78047000D01*
X191533000Y-78069000D01*
X191567000Y-78093000D01*
X191600000Y-78118000D01*
X191632000Y-78145000D01*
X191663000Y-78174000D01*
X191692000Y-78205000D01*
X191719000Y-78237000D01*
X191744000Y-78270000D01*
X191768000Y-78304000D01*
X191790000Y-78340000D01*
X191810000Y-78377000D01*
X191828000Y-78415000D01*
X191844000Y-78453000D01*
X191858000Y-78493000D01*
X191870000Y-78533000D01*
X191880000Y-78574000D01*
X191887000Y-78615000D01*
X191893000Y-78656000D01*
X191896000Y-78698000D01*
X191897000Y-78740000D01*
X191896000Y-78782000D01*
X191893000Y-78824000D01*
X191887000Y-78865000D01*
X191880000Y-78906000D01*
X191870000Y-78947000D01*
X191858000Y-78987000D01*
X191844000Y-79027000D01*
X191828000Y-79065000D01*
X191810000Y-79103000D01*
X191790000Y-79140000D01*
X191768000Y-79176000D01*
X191744000Y-79210000D01*
X191719000Y-79243000D01*
X191692000Y-79275000D01*
X191663000Y-79306000D01*
X191632000Y-79335000D01*
X191600000Y-79362000D01*
X191567000Y-79387000D01*
X191533000Y-79411000D01*
X191497000Y-79433000D01*
X191460000Y-79453000D01*
X191422000Y-79471000D01*
X191384000Y-79487000D01*
X191344000Y-79501000D01*
X191304000Y-79513000D01*
X191263000Y-79523000D01*
X191222000Y-79530000D01*
X191181000Y-79536000D01*
X191139000Y-79539000D01*
X191097000Y-79540000D01*
X188697000Y-79540000D01*
X188697000Y-77940000D01*
X191097000Y-77940000D01*
X191139000Y-77941000D01*
G36*
X191139000Y-77941000D02*
G01*
X191181000Y-77944000D01*
X191222000Y-77950000D01*
X191263000Y-77957000D01*
X191304000Y-77967000D01*
X191344000Y-77979000D01*
X191384000Y-77993000D01*
X191422000Y-78009000D01*
X191460000Y-78027000D01*
X191497000Y-78047000D01*
X191533000Y-78069000D01*
X191567000Y-78093000D01*
X191600000Y-78118000D01*
X191632000Y-78145000D01*
X191663000Y-78174000D01*
X191692000Y-78205000D01*
X191719000Y-78237000D01*
X191744000Y-78270000D01*
X191768000Y-78304000D01*
X191790000Y-78340000D01*
X191810000Y-78377000D01*
X191828000Y-78415000D01*
X191844000Y-78453000D01*
X191858000Y-78493000D01*
X191870000Y-78533000D01*
X191880000Y-78574000D01*
X191887000Y-78615000D01*
X191893000Y-78656000D01*
X191896000Y-78698000D01*
X191897000Y-78740000D01*
X191896000Y-78782000D01*
X191893000Y-78824000D01*
X191887000Y-78865000D01*
X191880000Y-78906000D01*
X191870000Y-78947000D01*
X191858000Y-78987000D01*
X191844000Y-79027000D01*
X191828000Y-79065000D01*
X191810000Y-79103000D01*
X191790000Y-79140000D01*
X191768000Y-79176000D01*
X191744000Y-79210000D01*
X191719000Y-79243000D01*
X191692000Y-79275000D01*
X191663000Y-79306000D01*
X191632000Y-79335000D01*
X191600000Y-79362000D01*
X191567000Y-79387000D01*
X191533000Y-79411000D01*
X191497000Y-79433000D01*
X191460000Y-79453000D01*
X191422000Y-79471000D01*
X191384000Y-79487000D01*
X191344000Y-79501000D01*
X191304000Y-79513000D01*
X191263000Y-79523000D01*
X191222000Y-79530000D01*
X191181000Y-79536000D01*
X191139000Y-79539000D01*
X191097000Y-79540000D01*
X188697000Y-79540000D01*
X188697000Y-77940000D01*
X191097000Y-77940000D01*
X191139000Y-77941000D01*
G37*
X191139000Y-75401000D02*
X191181000Y-75404000D01*
X191222000Y-75410000D01*
X191263000Y-75417000D01*
X191304000Y-75427000D01*
X191344000Y-75439000D01*
X191384000Y-75453000D01*
X191422000Y-75469000D01*
X191460000Y-75487000D01*
X191497000Y-75507000D01*
X191533000Y-75529000D01*
X191567000Y-75553000D01*
X191600000Y-75578000D01*
X191632000Y-75605000D01*
X191663000Y-75634000D01*
X191692000Y-75665000D01*
X191719000Y-75697000D01*
X191744000Y-75730000D01*
X191768000Y-75764000D01*
X191790000Y-75800000D01*
X191810000Y-75837000D01*
X191828000Y-75875000D01*
X191844000Y-75913000D01*
X191858000Y-75953000D01*
X191870000Y-75993000D01*
X191880000Y-76034000D01*
X191887000Y-76075000D01*
X191893000Y-76116000D01*
X191896000Y-76158000D01*
X191897000Y-76200000D01*
X191896000Y-76242000D01*
X191893000Y-76284000D01*
X191887000Y-76325000D01*
X191880000Y-76366000D01*
X191870000Y-76407000D01*
X191858000Y-76447000D01*
X191844000Y-76487000D01*
X191828000Y-76525000D01*
X191810000Y-76563000D01*
X191790000Y-76600000D01*
X191768000Y-76636000D01*
X191744000Y-76670000D01*
X191719000Y-76703000D01*
X191692000Y-76735000D01*
X191663000Y-76766000D01*
X191632000Y-76795000D01*
X191600000Y-76822000D01*
X191567000Y-76847000D01*
X191533000Y-76871000D01*
X191497000Y-76893000D01*
X191460000Y-76913000D01*
X191422000Y-76931000D01*
X191384000Y-76947000D01*
X191344000Y-76961000D01*
X191304000Y-76973000D01*
X191263000Y-76983000D01*
X191222000Y-76990000D01*
X191181000Y-76996000D01*
X191139000Y-76999000D01*
X191097000Y-77000000D01*
X188697000Y-77000000D01*
X188697000Y-75400000D01*
X191097000Y-75400000D01*
X191139000Y-75401000D01*
G36*
X191139000Y-75401000D02*
G01*
X191181000Y-75404000D01*
X191222000Y-75410000D01*
X191263000Y-75417000D01*
X191304000Y-75427000D01*
X191344000Y-75439000D01*
X191384000Y-75453000D01*
X191422000Y-75469000D01*
X191460000Y-75487000D01*
X191497000Y-75507000D01*
X191533000Y-75529000D01*
X191567000Y-75553000D01*
X191600000Y-75578000D01*
X191632000Y-75605000D01*
X191663000Y-75634000D01*
X191692000Y-75665000D01*
X191719000Y-75697000D01*
X191744000Y-75730000D01*
X191768000Y-75764000D01*
X191790000Y-75800000D01*
X191810000Y-75837000D01*
X191828000Y-75875000D01*
X191844000Y-75913000D01*
X191858000Y-75953000D01*
X191870000Y-75993000D01*
X191880000Y-76034000D01*
X191887000Y-76075000D01*
X191893000Y-76116000D01*
X191896000Y-76158000D01*
X191897000Y-76200000D01*
X191896000Y-76242000D01*
X191893000Y-76284000D01*
X191887000Y-76325000D01*
X191880000Y-76366000D01*
X191870000Y-76407000D01*
X191858000Y-76447000D01*
X191844000Y-76487000D01*
X191828000Y-76525000D01*
X191810000Y-76563000D01*
X191790000Y-76600000D01*
X191768000Y-76636000D01*
X191744000Y-76670000D01*
X191719000Y-76703000D01*
X191692000Y-76735000D01*
X191663000Y-76766000D01*
X191632000Y-76795000D01*
X191600000Y-76822000D01*
X191567000Y-76847000D01*
X191533000Y-76871000D01*
X191497000Y-76893000D01*
X191460000Y-76913000D01*
X191422000Y-76931000D01*
X191384000Y-76947000D01*
X191344000Y-76961000D01*
X191304000Y-76973000D01*
X191263000Y-76983000D01*
X191222000Y-76990000D01*
X191181000Y-76996000D01*
X191139000Y-76999000D01*
X191097000Y-77000000D01*
X188697000Y-77000000D01*
X188697000Y-75400000D01*
X191097000Y-75400000D01*
X191139000Y-75401000D01*
G37*
X191139000Y-70321000D02*
X191181000Y-70324000D01*
X191222000Y-70330000D01*
X191263000Y-70337000D01*
X191304000Y-70347000D01*
X191344000Y-70359000D01*
X191384000Y-70373000D01*
X191422000Y-70389000D01*
X191460000Y-70407000D01*
X191497000Y-70427000D01*
X191533000Y-70449000D01*
X191567000Y-70473000D01*
X191600000Y-70498000D01*
X191632000Y-70525000D01*
X191663000Y-70554000D01*
X191692000Y-70585000D01*
X191719000Y-70617000D01*
X191744000Y-70650000D01*
X191768000Y-70684000D01*
X191790000Y-70720000D01*
X191810000Y-70757000D01*
X191828000Y-70795000D01*
X191844000Y-70833000D01*
X191858000Y-70873000D01*
X191870000Y-70913000D01*
X191880000Y-70954000D01*
X191887000Y-70995000D01*
X191893000Y-71036000D01*
X191896000Y-71078000D01*
X191897000Y-71120000D01*
X191896000Y-71162000D01*
X191893000Y-71204000D01*
X191887000Y-71245000D01*
X191880000Y-71286000D01*
X191870000Y-71327000D01*
X191858000Y-71367000D01*
X191844000Y-71407000D01*
X191828000Y-71445000D01*
X191810000Y-71483000D01*
X191790000Y-71520000D01*
X191768000Y-71556000D01*
X191744000Y-71590000D01*
X191719000Y-71623000D01*
X191692000Y-71655000D01*
X191663000Y-71686000D01*
X191632000Y-71715000D01*
X191600000Y-71742000D01*
X191567000Y-71767000D01*
X191533000Y-71791000D01*
X191497000Y-71813000D01*
X191460000Y-71833000D01*
X191422000Y-71851000D01*
X191384000Y-71867000D01*
X191344000Y-71881000D01*
X191304000Y-71893000D01*
X191263000Y-71903000D01*
X191222000Y-71910000D01*
X191181000Y-71916000D01*
X191139000Y-71919000D01*
X191097000Y-71920000D01*
X188697000Y-71920000D01*
X188697000Y-70320000D01*
X191097000Y-70320000D01*
X191139000Y-70321000D01*
G36*
X191139000Y-70321000D02*
G01*
X191181000Y-70324000D01*
X191222000Y-70330000D01*
X191263000Y-70337000D01*
X191304000Y-70347000D01*
X191344000Y-70359000D01*
X191384000Y-70373000D01*
X191422000Y-70389000D01*
X191460000Y-70407000D01*
X191497000Y-70427000D01*
X191533000Y-70449000D01*
X191567000Y-70473000D01*
X191600000Y-70498000D01*
X191632000Y-70525000D01*
X191663000Y-70554000D01*
X191692000Y-70585000D01*
X191719000Y-70617000D01*
X191744000Y-70650000D01*
X191768000Y-70684000D01*
X191790000Y-70720000D01*
X191810000Y-70757000D01*
X191828000Y-70795000D01*
X191844000Y-70833000D01*
X191858000Y-70873000D01*
X191870000Y-70913000D01*
X191880000Y-70954000D01*
X191887000Y-70995000D01*
X191893000Y-71036000D01*
X191896000Y-71078000D01*
X191897000Y-71120000D01*
X191896000Y-71162000D01*
X191893000Y-71204000D01*
X191887000Y-71245000D01*
X191880000Y-71286000D01*
X191870000Y-71327000D01*
X191858000Y-71367000D01*
X191844000Y-71407000D01*
X191828000Y-71445000D01*
X191810000Y-71483000D01*
X191790000Y-71520000D01*
X191768000Y-71556000D01*
X191744000Y-71590000D01*
X191719000Y-71623000D01*
X191692000Y-71655000D01*
X191663000Y-71686000D01*
X191632000Y-71715000D01*
X191600000Y-71742000D01*
X191567000Y-71767000D01*
X191533000Y-71791000D01*
X191497000Y-71813000D01*
X191460000Y-71833000D01*
X191422000Y-71851000D01*
X191384000Y-71867000D01*
X191344000Y-71881000D01*
X191304000Y-71893000D01*
X191263000Y-71903000D01*
X191222000Y-71910000D01*
X191181000Y-71916000D01*
X191139000Y-71919000D01*
X191097000Y-71920000D01*
X188697000Y-71920000D01*
X188697000Y-70320000D01*
X191097000Y-70320000D01*
X191139000Y-70321000D01*
G37*
X191139000Y-67781000D02*
X191181000Y-67784000D01*
X191222000Y-67790000D01*
X191263000Y-67797000D01*
X191304000Y-67807000D01*
X191344000Y-67819000D01*
X191384000Y-67833000D01*
X191422000Y-67849000D01*
X191460000Y-67867000D01*
X191497000Y-67887000D01*
X191533000Y-67909000D01*
X191567000Y-67933000D01*
X191600000Y-67958000D01*
X191632000Y-67985000D01*
X191663000Y-68014000D01*
X191692000Y-68045000D01*
X191719000Y-68077000D01*
X191744000Y-68110000D01*
X191768000Y-68144000D01*
X191790000Y-68180000D01*
X191810000Y-68217000D01*
X191828000Y-68255000D01*
X191844000Y-68293000D01*
X191858000Y-68333000D01*
X191870000Y-68373000D01*
X191880000Y-68414000D01*
X191887000Y-68455000D01*
X191893000Y-68496000D01*
X191896000Y-68538000D01*
X191897000Y-68580000D01*
X191896000Y-68622000D01*
X191893000Y-68664000D01*
X191887000Y-68705000D01*
X191880000Y-68746000D01*
X191870000Y-68787000D01*
X191858000Y-68827000D01*
X191844000Y-68867000D01*
X191828000Y-68905000D01*
X191810000Y-68943000D01*
X191790000Y-68980000D01*
X191768000Y-69016000D01*
X191744000Y-69050000D01*
X191719000Y-69083000D01*
X191692000Y-69115000D01*
X191663000Y-69146000D01*
X191632000Y-69175000D01*
X191600000Y-69202000D01*
X191567000Y-69227000D01*
X191533000Y-69251000D01*
X191497000Y-69273000D01*
X191460000Y-69293000D01*
X191422000Y-69311000D01*
X191384000Y-69327000D01*
X191344000Y-69341000D01*
X191304000Y-69353000D01*
X191263000Y-69363000D01*
X191222000Y-69370000D01*
X191181000Y-69376000D01*
X191139000Y-69379000D01*
X191097000Y-69380000D01*
X188697000Y-69380000D01*
X188697000Y-67780000D01*
X191097000Y-67780000D01*
X191139000Y-67781000D01*
G36*
X191139000Y-67781000D02*
G01*
X191181000Y-67784000D01*
X191222000Y-67790000D01*
X191263000Y-67797000D01*
X191304000Y-67807000D01*
X191344000Y-67819000D01*
X191384000Y-67833000D01*
X191422000Y-67849000D01*
X191460000Y-67867000D01*
X191497000Y-67887000D01*
X191533000Y-67909000D01*
X191567000Y-67933000D01*
X191600000Y-67958000D01*
X191632000Y-67985000D01*
X191663000Y-68014000D01*
X191692000Y-68045000D01*
X191719000Y-68077000D01*
X191744000Y-68110000D01*
X191768000Y-68144000D01*
X191790000Y-68180000D01*
X191810000Y-68217000D01*
X191828000Y-68255000D01*
X191844000Y-68293000D01*
X191858000Y-68333000D01*
X191870000Y-68373000D01*
X191880000Y-68414000D01*
X191887000Y-68455000D01*
X191893000Y-68496000D01*
X191896000Y-68538000D01*
X191897000Y-68580000D01*
X191896000Y-68622000D01*
X191893000Y-68664000D01*
X191887000Y-68705000D01*
X191880000Y-68746000D01*
X191870000Y-68787000D01*
X191858000Y-68827000D01*
X191844000Y-68867000D01*
X191828000Y-68905000D01*
X191810000Y-68943000D01*
X191790000Y-68980000D01*
X191768000Y-69016000D01*
X191744000Y-69050000D01*
X191719000Y-69083000D01*
X191692000Y-69115000D01*
X191663000Y-69146000D01*
X191632000Y-69175000D01*
X191600000Y-69202000D01*
X191567000Y-69227000D01*
X191533000Y-69251000D01*
X191497000Y-69273000D01*
X191460000Y-69293000D01*
X191422000Y-69311000D01*
X191384000Y-69327000D01*
X191344000Y-69341000D01*
X191304000Y-69353000D01*
X191263000Y-69363000D01*
X191222000Y-69370000D01*
X191181000Y-69376000D01*
X191139000Y-69379000D01*
X191097000Y-69380000D01*
X188697000Y-69380000D01*
X188697000Y-67780000D01*
X191097000Y-67780000D01*
X191139000Y-67781000D01*
G37*
X191139000Y-65241000D02*
X191181000Y-65244000D01*
X191222000Y-65250000D01*
X191263000Y-65257000D01*
X191304000Y-65267000D01*
X191344000Y-65279000D01*
X191384000Y-65293000D01*
X191422000Y-65309000D01*
X191460000Y-65327000D01*
X191497000Y-65347000D01*
X191533000Y-65369000D01*
X191567000Y-65393000D01*
X191600000Y-65418000D01*
X191632000Y-65445000D01*
X191663000Y-65474000D01*
X191692000Y-65505000D01*
X191719000Y-65537000D01*
X191744000Y-65570000D01*
X191768000Y-65604000D01*
X191790000Y-65640000D01*
X191810000Y-65677000D01*
X191828000Y-65715000D01*
X191844000Y-65753000D01*
X191858000Y-65793000D01*
X191870000Y-65833000D01*
X191880000Y-65874000D01*
X191887000Y-65915000D01*
X191893000Y-65956000D01*
X191896000Y-65998000D01*
X191897000Y-66040000D01*
X191896000Y-66082000D01*
X191893000Y-66124000D01*
X191887000Y-66165000D01*
X191880000Y-66206000D01*
X191870000Y-66247000D01*
X191858000Y-66287000D01*
X191844000Y-66327000D01*
X191828000Y-66365000D01*
X191810000Y-66403000D01*
X191790000Y-66440000D01*
X191768000Y-66476000D01*
X191744000Y-66510000D01*
X191719000Y-66543000D01*
X191692000Y-66575000D01*
X191663000Y-66606000D01*
X191632000Y-66635000D01*
X191600000Y-66662000D01*
X191567000Y-66687000D01*
X191533000Y-66711000D01*
X191497000Y-66733000D01*
X191460000Y-66753000D01*
X191422000Y-66771000D01*
X191384000Y-66787000D01*
X191344000Y-66801000D01*
X191304000Y-66813000D01*
X191263000Y-66823000D01*
X191222000Y-66830000D01*
X191181000Y-66836000D01*
X191139000Y-66839000D01*
X191097000Y-66840000D01*
X188697000Y-66840000D01*
X188697000Y-65240000D01*
X191097000Y-65240000D01*
X191139000Y-65241000D01*
G36*
X191139000Y-65241000D02*
G01*
X191181000Y-65244000D01*
X191222000Y-65250000D01*
X191263000Y-65257000D01*
X191304000Y-65267000D01*
X191344000Y-65279000D01*
X191384000Y-65293000D01*
X191422000Y-65309000D01*
X191460000Y-65327000D01*
X191497000Y-65347000D01*
X191533000Y-65369000D01*
X191567000Y-65393000D01*
X191600000Y-65418000D01*
X191632000Y-65445000D01*
X191663000Y-65474000D01*
X191692000Y-65505000D01*
X191719000Y-65537000D01*
X191744000Y-65570000D01*
X191768000Y-65604000D01*
X191790000Y-65640000D01*
X191810000Y-65677000D01*
X191828000Y-65715000D01*
X191844000Y-65753000D01*
X191858000Y-65793000D01*
X191870000Y-65833000D01*
X191880000Y-65874000D01*
X191887000Y-65915000D01*
X191893000Y-65956000D01*
X191896000Y-65998000D01*
X191897000Y-66040000D01*
X191896000Y-66082000D01*
X191893000Y-66124000D01*
X191887000Y-66165000D01*
X191880000Y-66206000D01*
X191870000Y-66247000D01*
X191858000Y-66287000D01*
X191844000Y-66327000D01*
X191828000Y-66365000D01*
X191810000Y-66403000D01*
X191790000Y-66440000D01*
X191768000Y-66476000D01*
X191744000Y-66510000D01*
X191719000Y-66543000D01*
X191692000Y-66575000D01*
X191663000Y-66606000D01*
X191632000Y-66635000D01*
X191600000Y-66662000D01*
X191567000Y-66687000D01*
X191533000Y-66711000D01*
X191497000Y-66733000D01*
X191460000Y-66753000D01*
X191422000Y-66771000D01*
X191384000Y-66787000D01*
X191344000Y-66801000D01*
X191304000Y-66813000D01*
X191263000Y-66823000D01*
X191222000Y-66830000D01*
X191181000Y-66836000D01*
X191139000Y-66839000D01*
X191097000Y-66840000D01*
X188697000Y-66840000D01*
X188697000Y-65240000D01*
X191097000Y-65240000D01*
X191139000Y-65241000D01*
G37*
X191139000Y-62701000D02*
X191181000Y-62704000D01*
X191222000Y-62710000D01*
X191263000Y-62717000D01*
X191304000Y-62727000D01*
X191344000Y-62739000D01*
X191384000Y-62753000D01*
X191422000Y-62769000D01*
X191460000Y-62787000D01*
X191497000Y-62807000D01*
X191533000Y-62829000D01*
X191567000Y-62853000D01*
X191600000Y-62878000D01*
X191632000Y-62905000D01*
X191663000Y-62934000D01*
X191692000Y-62965000D01*
X191719000Y-62997000D01*
X191744000Y-63030000D01*
X191768000Y-63064000D01*
X191790000Y-63100000D01*
X191810000Y-63137000D01*
X191828000Y-63175000D01*
X191844000Y-63213000D01*
X191858000Y-63253000D01*
X191870000Y-63293000D01*
X191880000Y-63334000D01*
X191887000Y-63375000D01*
X191893000Y-63416000D01*
X191896000Y-63458000D01*
X191897000Y-63500000D01*
X191896000Y-63542000D01*
X191893000Y-63584000D01*
X191887000Y-63625000D01*
X191880000Y-63666000D01*
X191870000Y-63707000D01*
X191858000Y-63747000D01*
X191844000Y-63787000D01*
X191828000Y-63825000D01*
X191810000Y-63863000D01*
X191790000Y-63900000D01*
X191768000Y-63936000D01*
X191744000Y-63970000D01*
X191719000Y-64003000D01*
X191692000Y-64035000D01*
X191663000Y-64066000D01*
X191632000Y-64095000D01*
X191600000Y-64122000D01*
X191567000Y-64147000D01*
X191533000Y-64171000D01*
X191497000Y-64193000D01*
X191460000Y-64213000D01*
X191422000Y-64231000D01*
X191384000Y-64247000D01*
X191344000Y-64261000D01*
X191304000Y-64273000D01*
X191263000Y-64283000D01*
X191222000Y-64290000D01*
X191181000Y-64296000D01*
X191139000Y-64299000D01*
X191097000Y-64300000D01*
X188697000Y-64300000D01*
X188697000Y-62700000D01*
X191097000Y-62700000D01*
X191139000Y-62701000D01*
G36*
X191139000Y-62701000D02*
G01*
X191181000Y-62704000D01*
X191222000Y-62710000D01*
X191263000Y-62717000D01*
X191304000Y-62727000D01*
X191344000Y-62739000D01*
X191384000Y-62753000D01*
X191422000Y-62769000D01*
X191460000Y-62787000D01*
X191497000Y-62807000D01*
X191533000Y-62829000D01*
X191567000Y-62853000D01*
X191600000Y-62878000D01*
X191632000Y-62905000D01*
X191663000Y-62934000D01*
X191692000Y-62965000D01*
X191719000Y-62997000D01*
X191744000Y-63030000D01*
X191768000Y-63064000D01*
X191790000Y-63100000D01*
X191810000Y-63137000D01*
X191828000Y-63175000D01*
X191844000Y-63213000D01*
X191858000Y-63253000D01*
X191870000Y-63293000D01*
X191880000Y-63334000D01*
X191887000Y-63375000D01*
X191893000Y-63416000D01*
X191896000Y-63458000D01*
X191897000Y-63500000D01*
X191896000Y-63542000D01*
X191893000Y-63584000D01*
X191887000Y-63625000D01*
X191880000Y-63666000D01*
X191870000Y-63707000D01*
X191858000Y-63747000D01*
X191844000Y-63787000D01*
X191828000Y-63825000D01*
X191810000Y-63863000D01*
X191790000Y-63900000D01*
X191768000Y-63936000D01*
X191744000Y-63970000D01*
X191719000Y-64003000D01*
X191692000Y-64035000D01*
X191663000Y-64066000D01*
X191632000Y-64095000D01*
X191600000Y-64122000D01*
X191567000Y-64147000D01*
X191533000Y-64171000D01*
X191497000Y-64193000D01*
X191460000Y-64213000D01*
X191422000Y-64231000D01*
X191384000Y-64247000D01*
X191344000Y-64261000D01*
X191304000Y-64273000D01*
X191263000Y-64283000D01*
X191222000Y-64290000D01*
X191181000Y-64296000D01*
X191139000Y-64299000D01*
X191097000Y-64300000D01*
X188697000Y-64300000D01*
X188697000Y-62700000D01*
X191097000Y-62700000D01*
X191139000Y-62701000D01*
G37*
X191139000Y-57621000D02*
X191181000Y-57624000D01*
X191222000Y-57630000D01*
X191263000Y-57637000D01*
X191304000Y-57647000D01*
X191344000Y-57659000D01*
X191384000Y-57673000D01*
X191422000Y-57689000D01*
X191460000Y-57707000D01*
X191497000Y-57727000D01*
X191533000Y-57749000D01*
X191567000Y-57773000D01*
X191600000Y-57798000D01*
X191632000Y-57825000D01*
X191663000Y-57854000D01*
X191692000Y-57885000D01*
X191719000Y-57917000D01*
X191744000Y-57950000D01*
X191768000Y-57984000D01*
X191790000Y-58020000D01*
X191810000Y-58057000D01*
X191828000Y-58095000D01*
X191844000Y-58133000D01*
X191858000Y-58173000D01*
X191870000Y-58213000D01*
X191880000Y-58254000D01*
X191887000Y-58295000D01*
X191893000Y-58336000D01*
X191896000Y-58378000D01*
X191897000Y-58420000D01*
X191896000Y-58462000D01*
X191893000Y-58504000D01*
X191887000Y-58545000D01*
X191880000Y-58586000D01*
X191870000Y-58627000D01*
X191858000Y-58667000D01*
X191844000Y-58707000D01*
X191828000Y-58745000D01*
X191810000Y-58783000D01*
X191790000Y-58820000D01*
X191768000Y-58856000D01*
X191744000Y-58890000D01*
X191719000Y-58923000D01*
X191692000Y-58955000D01*
X191663000Y-58986000D01*
X191632000Y-59015000D01*
X191600000Y-59042000D01*
X191567000Y-59067000D01*
X191533000Y-59091000D01*
X191497000Y-59113000D01*
X191460000Y-59133000D01*
X191422000Y-59151000D01*
X191384000Y-59167000D01*
X191344000Y-59181000D01*
X191304000Y-59193000D01*
X191263000Y-59203000D01*
X191222000Y-59210000D01*
X191181000Y-59216000D01*
X191139000Y-59219000D01*
X191097000Y-59220000D01*
X188697000Y-59220000D01*
X188697000Y-57620000D01*
X191097000Y-57620000D01*
X191139000Y-57621000D01*
G36*
X191139000Y-57621000D02*
G01*
X191181000Y-57624000D01*
X191222000Y-57630000D01*
X191263000Y-57637000D01*
X191304000Y-57647000D01*
X191344000Y-57659000D01*
X191384000Y-57673000D01*
X191422000Y-57689000D01*
X191460000Y-57707000D01*
X191497000Y-57727000D01*
X191533000Y-57749000D01*
X191567000Y-57773000D01*
X191600000Y-57798000D01*
X191632000Y-57825000D01*
X191663000Y-57854000D01*
X191692000Y-57885000D01*
X191719000Y-57917000D01*
X191744000Y-57950000D01*
X191768000Y-57984000D01*
X191790000Y-58020000D01*
X191810000Y-58057000D01*
X191828000Y-58095000D01*
X191844000Y-58133000D01*
X191858000Y-58173000D01*
X191870000Y-58213000D01*
X191880000Y-58254000D01*
X191887000Y-58295000D01*
X191893000Y-58336000D01*
X191896000Y-58378000D01*
X191897000Y-58420000D01*
X191896000Y-58462000D01*
X191893000Y-58504000D01*
X191887000Y-58545000D01*
X191880000Y-58586000D01*
X191870000Y-58627000D01*
X191858000Y-58667000D01*
X191844000Y-58707000D01*
X191828000Y-58745000D01*
X191810000Y-58783000D01*
X191790000Y-58820000D01*
X191768000Y-58856000D01*
X191744000Y-58890000D01*
X191719000Y-58923000D01*
X191692000Y-58955000D01*
X191663000Y-58986000D01*
X191632000Y-59015000D01*
X191600000Y-59042000D01*
X191567000Y-59067000D01*
X191533000Y-59091000D01*
X191497000Y-59113000D01*
X191460000Y-59133000D01*
X191422000Y-59151000D01*
X191384000Y-59167000D01*
X191344000Y-59181000D01*
X191304000Y-59193000D01*
X191263000Y-59203000D01*
X191222000Y-59210000D01*
X191181000Y-59216000D01*
X191139000Y-59219000D01*
X191097000Y-59220000D01*
X188697000Y-59220000D01*
X188697000Y-57620000D01*
X191097000Y-57620000D01*
X191139000Y-57621000D01*
G37*
X191139000Y-55081000D02*
X191181000Y-55084000D01*
X191222000Y-55090000D01*
X191263000Y-55097000D01*
X191304000Y-55107000D01*
X191344000Y-55119000D01*
X191384000Y-55133000D01*
X191422000Y-55149000D01*
X191460000Y-55167000D01*
X191497000Y-55187000D01*
X191533000Y-55209000D01*
X191567000Y-55233000D01*
X191600000Y-55258000D01*
X191632000Y-55285000D01*
X191663000Y-55314000D01*
X191692000Y-55345000D01*
X191719000Y-55377000D01*
X191744000Y-55410000D01*
X191768000Y-55444000D01*
X191790000Y-55480000D01*
X191810000Y-55517000D01*
X191828000Y-55555000D01*
X191844000Y-55593000D01*
X191858000Y-55633000D01*
X191870000Y-55673000D01*
X191880000Y-55714000D01*
X191887000Y-55755000D01*
X191893000Y-55796000D01*
X191896000Y-55838000D01*
X191897000Y-55880000D01*
X191896000Y-55922000D01*
X191893000Y-55964000D01*
X191887000Y-56005000D01*
X191880000Y-56046000D01*
X191870000Y-56087000D01*
X191858000Y-56127000D01*
X191844000Y-56167000D01*
X191828000Y-56205000D01*
X191810000Y-56243000D01*
X191790000Y-56280000D01*
X191768000Y-56316000D01*
X191744000Y-56350000D01*
X191719000Y-56383000D01*
X191692000Y-56415000D01*
X191663000Y-56446000D01*
X191632000Y-56475000D01*
X191600000Y-56502000D01*
X191567000Y-56527000D01*
X191533000Y-56551000D01*
X191497000Y-56573000D01*
X191460000Y-56593000D01*
X191422000Y-56611000D01*
X191384000Y-56627000D01*
X191344000Y-56641000D01*
X191304000Y-56653000D01*
X191263000Y-56663000D01*
X191222000Y-56670000D01*
X191181000Y-56676000D01*
X191139000Y-56679000D01*
X191097000Y-56680000D01*
X188697000Y-56680000D01*
X188697000Y-55080000D01*
X191097000Y-55080000D01*
X191139000Y-55081000D01*
G36*
X191139000Y-55081000D02*
G01*
X191181000Y-55084000D01*
X191222000Y-55090000D01*
X191263000Y-55097000D01*
X191304000Y-55107000D01*
X191344000Y-55119000D01*
X191384000Y-55133000D01*
X191422000Y-55149000D01*
X191460000Y-55167000D01*
X191497000Y-55187000D01*
X191533000Y-55209000D01*
X191567000Y-55233000D01*
X191600000Y-55258000D01*
X191632000Y-55285000D01*
X191663000Y-55314000D01*
X191692000Y-55345000D01*
X191719000Y-55377000D01*
X191744000Y-55410000D01*
X191768000Y-55444000D01*
X191790000Y-55480000D01*
X191810000Y-55517000D01*
X191828000Y-55555000D01*
X191844000Y-55593000D01*
X191858000Y-55633000D01*
X191870000Y-55673000D01*
X191880000Y-55714000D01*
X191887000Y-55755000D01*
X191893000Y-55796000D01*
X191896000Y-55838000D01*
X191897000Y-55880000D01*
X191896000Y-55922000D01*
X191893000Y-55964000D01*
X191887000Y-56005000D01*
X191880000Y-56046000D01*
X191870000Y-56087000D01*
X191858000Y-56127000D01*
X191844000Y-56167000D01*
X191828000Y-56205000D01*
X191810000Y-56243000D01*
X191790000Y-56280000D01*
X191768000Y-56316000D01*
X191744000Y-56350000D01*
X191719000Y-56383000D01*
X191692000Y-56415000D01*
X191663000Y-56446000D01*
X191632000Y-56475000D01*
X191600000Y-56502000D01*
X191567000Y-56527000D01*
X191533000Y-56551000D01*
X191497000Y-56573000D01*
X191460000Y-56593000D01*
X191422000Y-56611000D01*
X191384000Y-56627000D01*
X191344000Y-56641000D01*
X191304000Y-56653000D01*
X191263000Y-56663000D01*
X191222000Y-56670000D01*
X191181000Y-56676000D01*
X191139000Y-56679000D01*
X191097000Y-56680000D01*
X188697000Y-56680000D01*
X188697000Y-55080000D01*
X191097000Y-55080000D01*
X191139000Y-55081000D01*
G37*
D11*
X213360000Y-98321500D03*
X213360000Y-96496500D03*
X213360000Y-106068500D03*
X213360000Y-104243500D03*
D12*
X197487000Y-67510000D03*
X197487000Y-65010000D03*
X197487000Y-62510000D03*
X198987000Y-55710000D03*
X200987000Y-55710000D03*
X199987000Y-59010000D03*
D13*
X202412000Y-59040000D03*
X197562000Y-59040000D03*
D14*
X202712000Y-56010000D03*
X197262000Y-56010000D03*
D15*
X145034000Y-103886000D03*
X145034000Y-107696000D03*
X145034000Y-76200000D03*
X145034000Y-80010000D03*
D16*
X167132000Y-58420000D03*
X163322000Y-58420000D03*
M02*
