G04 #@! TF.GenerationSoftware,KiCad,Pcbnew,7.0.8*
G04 #@! TF.CreationDate,2023-10-27T17:24:16-04:00*
G04 #@! TF.ProjectId,IPTC Power Distribution and Control,49505443-2050-46f7-9765-722044697374,rev?*
G04 #@! TF.SameCoordinates,Original*
G04 #@! TF.FileFunction,Soldermask,Bot*
G04 #@! TF.FilePolarity,Negative*
%FSLAX46Y46*%
G04 Gerber Fmt 4.6, Leading zero omitted, Abs format (unit mm)*
G04 Created by KiCad (PCBNEW 7.0.8) date 2023-10-27 17:24:16*
%MOMM*%
%LPD*%
G01*
G04 APERTURE LIST*
%ADD10C,2.200000*%
%ADD11R,1.700000X1.700000*%
%ADD12O,1.700000X1.700000*%
%ADD13C,1.803400*%
%ADD14C,2.540000*%
%ADD15C,1.778000*%
%ADD16O,4.400000X2.200000*%
%ADD17O,4.470400X2.286000*%
%ADD18R,2.000000X1.905000*%
%ADD19O,2.000000X1.905000*%
%ADD20O,2.286000X4.470400*%
G04 APERTURE END LIST*
D10*
X219861000Y-57729000D03*
D11*
X220821000Y-104140000D03*
D12*
X220821000Y-101600000D03*
X220821000Y-99060000D03*
X220821000Y-96520000D03*
X220821000Y-93980000D03*
X220821000Y-91440000D03*
X220821000Y-88900000D03*
X220821000Y-86360000D03*
X220821000Y-83820000D03*
X220821000Y-81280000D03*
X220821000Y-78740000D03*
X220821000Y-76200000D03*
D13*
X145034000Y-61468000D03*
X145034000Y-58928000D03*
D10*
X155861000Y-68729000D03*
D14*
X164238000Y-109628000D03*
X164238000Y-91848000D03*
D15*
X182018000Y-109628000D03*
X182018000Y-107088000D03*
X182018000Y-104548000D03*
X182018000Y-102008000D03*
X182018000Y-99468000D03*
X182018000Y-96928000D03*
X182018000Y-94388000D03*
X182018000Y-91848000D03*
D16*
X165508000Y-103278000D03*
X165508000Y-98198000D03*
D17*
X145034000Y-71628000D03*
X145034000Y-66548000D03*
D18*
X157663000Y-82450000D03*
D19*
X157663000Y-79910000D03*
X157663000Y-77370000D03*
D18*
X157663000Y-105818000D03*
D19*
X157663000Y-103278000D03*
X157663000Y-100738000D03*
D14*
X164138000Y-86160000D03*
X164138000Y-68380000D03*
D15*
X181918000Y-86160000D03*
X181918000Y-83620000D03*
X181918000Y-81080000D03*
X181918000Y-78540000D03*
X181918000Y-76000000D03*
X181918000Y-73460000D03*
X181918000Y-70920000D03*
X181918000Y-68380000D03*
D16*
X165408000Y-79810000D03*
X165408000Y-74730000D03*
D10*
X155861000Y-112729000D03*
D20*
X171704000Y-58420000D03*
X176784000Y-58420000D03*
D10*
X219861000Y-112729000D03*
D13*
X181864000Y-58420000D03*
X184404000Y-58420000D03*
D17*
X145034000Y-99314000D03*
X145034000Y-94234000D03*
D13*
X145034000Y-89154000D03*
X145034000Y-86614000D03*
M02*
